<?xml version="1.0" encoding="UTF-8" standalone="no"?>
<svg
   xmlns:dc="http://purl.org/dc/elements/1.1/"
   xmlns:cc="http://creativecommons.org/ns#"
   xmlns:rdf="http://www.w3.org/1999/02/22-rdf-syntax-ns#"
   xmlns:svg="http://www.w3.org/2000/svg"
   xmlns="http://www.w3.org/2000/svg"
   xmlns:sodipodi="http://sodipodi.sourceforge.net/DTD/sodipodi-0.dtd"
   xmlns:inkscape="http://www.inkscape.org/namespaces/inkscape"
   inkscape:version="1.0 (4035a4fb49, 2020-05-01)"
   sodipodi:docname="Logopit_1629179382694-1.svg"
   id="svg8"
   preserveAspectRatio="xMidYMid meet"
   viewBox="0 0 676.000000 594.000000"
   height="594.000000pt"
   width="676.000000pt"
   version="1.0">
  <style></style>
  <metadata
     id="metadata14">
    <rdf:RDF>
      <cc:Work
         rdf:about="">
        <dc:format>image/svg+xml</dc:format>
        <dc:type
           rdf:resource="http://purl.org/dc/dcmitype/StillImage" />
      </cc:Work>
    </rdf:RDF>
  </metadata>
  <defs
     id="defs12" />
  <sodipodi:namedview
     inkscape:current-layer="g6"
     inkscape:window-maximized="1"
     inkscape:window-y="-9"
     inkscape:window-x="-9"
     inkscape:cy="369.67488"
     inkscape:cx="357.82773"
     inkscape:zoom="0.57245846"
     showgrid="false"
     id="namedview10"
     inkscape:window-height="1051"
     inkscape:window-width="1920"
     inkscape:pageshadow="2"
     inkscape:pageopacity="0"
     guidetolerance="10"
     gridtolerance="10"
     objecttolerance="10"
     borderopacity="1"
     bordercolor="#666666"
     pagecolor="#ffffff" />
  <g
     id="g6"
     stroke="none"
     fill="#000000"
     transform="matrix(0.1,0,0,-0.1,0,594)">
    <path
       style="stroke-width:1.47436"
       id="path2"
       d="m 4873.5709,5533.2422 c -13.2692,-17.6923 -23.5898,-48.6538 -23.5898,-67.8205 0,-60.4488 -231.4745,-266.8592 -508.6542,-452.6286 -104.6796,-70.7693 -250.6412,-175.4489 -324.3592,-232.9489 -72.2437,-57.5 -204.9361,-160.7053 -294.8721,-230.0002 -88.4616,-67.8205 -247.6925,-196.0899 -353.8464,-281.6028 -190.1925,-157.7565 -302.2438,-243.2694 -781.4109,-603.0133 -137.1155,-103.2052 -314.0387,-240.3207 -390.7054,-305.1925 -76.6667,-63.3975 -188.7181,-156.2822 -249.1669,-204.9361 C 1759.7223,3004.7146 1348.3758,2584.522 1133.1192,2322.0859 1062.3499,2236.573 984.2089,2143.6883 959.1447,2115.6754 934.0806,2087.6626 879.5293,2008.0471 838.2472,1938.7522 796.9651,1869.4573 723.2471,1752.9828 676.0676,1679.2648 577.2855,1528.8801 468.1828,1281.1876 434.2725,1135.2259 392.9904,956.82837 449.0161,781.37951 587.606,651.63582 699.6573,546.95625 770.4266,520.41776 965.0422,511.5716 c 328.7823,-14.7436 520.4491,67.82057 1002.5649,430.51316 97.3077,72.24364 234.4232,181.34634 306.6669,240.32074 70.7693,58.9744 179.8719,141.5385 243.2694,182.8206 191.6668,129.7437 440.8337,321.4105 583.8466,446.7312 73.718,66.3462 199.0386,171.0257 277.1797,232.9489 79.6155,63.3974 218.2053,179.8719 309.6156,259.4873 166.6027,144.4873 552.8851,464.4235 794.6802,659.039 69.2949,57.5001 176.9232,147.436 235.8976,200.513 60.4487,53.077 181.3463,159.2309 269.8079,234.4233 89.936,76.6667 277.1797,252.1155 418.7183,389.231 212.3078,207.8848 274.231,260.9618 356.7951,299.2951 144.4873,70.7693 154.8078,85.5129 154.8078,238.8464 0,119.4232 -4.423,134.1668 -66.3462,266.8592 -35.3846,76.6667 -88.4616,178.3975 -117.9488,224.1027 -91.4103,151.8591 -319.9361,460.0004 -386.2823,521.9235 -70.7693,69.2949 -235.8977,166.6027 -343.526,201.9873 -92.8846,32.436 -104.6795,30.9616 -131.218,-7.3718 z m 263.9105,-241.795 c 92.8847,-61.9232 135.6411,-107.6283 240.3207,-253.59 54.5513,-75.1923 123.8462,-172.5001 154.8078,-213.7822 57.5,-78.1411 216.7309,-390.7054 216.7309,-426.0901 0,-23.5897 -147.436,-173.9745 -171.0258,-173.9745 -20.641,0 -137.1154,151.8591 -193.1411,249.1669 -20.6411,38.3334 -63.3975,107.6283 -92.8847,156.2822 -30.9616,48.6539 -100.2565,176.9232 -156.2822,286.0258 -81.0898,160.7053 -101.7308,213.7823 -106.1539,283.0772 -10.3205,141.5386 8.8461,157.7565 107.6283,92.8847 z m -281.6028,-132.6924 c 4.4231,-13.2693 8.8461,-35.3847 8.8461,-50.1283 0,-32.4359 232.9489,-490.9619 297.8208,-585.321 22.1154,-33.9102 41.2821,-64.8718 41.2821,-70.7692 0,-20.6411 129.7437,-213.7823 193.1411,-288.9746 l 70.7693,-82.5642 -56.0257,-54.5513 c -48.6538,-47.1796 -69.2949,-56.0257 -128.2693,-60.4488 -210.8335,-13.2692 -489.4876,-39.8077 -632.5005,-60.4488 -119.4232,-16.2179 -337.6285,-23.5897 -833.0135,-29.4872 l -670.8338,-7.3718 45.7051,41.2821 c 84.0386,76.6667 483.5902,399.5516 654.6159,529.2953 92.8847,70.7693 199.0387,153.3335 235.8977,182.8207 82.5641,67.8205 349.4233,258.013 457.0516,327.3079 44.2308,28.0129 128.2693,91.4103 184.295,141.5386 57.5001,50.1282 107.6283,91.4103 112.0514,91.4103 5.8974,0 14.7436,-10.3205 19.1667,-23.5897 z m 288.9746,-1388.8473 c 0,-10.3205 -150.3848,-150.3847 -227.0515,-210.8335 l -38.3334,-30.9616 -94.359,101.7309 c -51.6026,54.5513 -89.936,106.1539 -82.5642,112.0514 23.5898,26.5384 442.3081,53.0769 442.3081,28.0128 z M 3652.8007,3706.51 c 302.2438,0 631.0261,4.4231 729.8083,10.3205 l 181.3463,10.3206 100.2565,-104.6796 c 163.6539,-169.5514 165.1283,-140.0642 -22.1154,-305.1926 -175.4489,-156.2821 -321.4106,-272.7566 -339.1029,-272.7566 -7.3718,0 -58.9744,56.0257 -116.4744,125.3206 -101.7309,122.3719 -140.0642,147.436 -156.2822,104.6796 -10.3205,-28.0128 23.5898,-91.4103 98.7821,-178.3976 33.9103,-39.8077 72.2437,-84.0385 82.5642,-97.3077 23.5898,-28.0129 14.7436,-36.859 -384.808,-359.7439 l -145.9617,-116.4745 -50.1282,57.5001 c -28.0128,32.4359 -79.6154,98.7821 -113.5257,147.436 -61.9232,88.4616 -115.0001,119.4232 -131.2181,75.1924 -8.8461,-22.1154 70.7693,-156.2822 145.9617,-244.7438 89.9359,-106.154 92.8847,-89.936 -39.8078,-200.513 -288.9745,-243.2694 -403.9746,-327.3079 -415.7695,-306.6669 -5.8975,11.7949 -23.5898,20.641 -36.859,20.641 -13.2693,0 -69.2949,44.2308 -123.8463,98.7822 -84.0385,84.0385 -101.7308,95.8334 -120.8975,78.141 -13.2692,-10.3205 -23.5898,-26.5384 -23.5898,-35.3846 0,-10.3205 53.077,-72.2436 117.9489,-140.0642 l 117.9488,-120.8975 -48.6539,-41.2821 c -132.6924,-117.9488 -485.0645,-381.8593 -580.8979,-436.4106 -45.7052,-26.5385 -45.7052,-26.5385 -92.8847,8.8461 -26.5385,19.1667 -88.4616,73.718 -137.1155,120.8976 -47.1795,47.1795 -94.359,82.5641 -104.6796,79.6154 -8.8461,-2.9487 -17.6923,-22.1154 -20.641,-44.2308 -2.9487,-29.4872 11.7949,-54.5513 66.3462,-109.1026 39.8077,-38.3334 92.8847,-86.9873 120.8975,-107.6283 l 50.1283,-36.859 -113.5258,-92.8847 c -61.9231,-51.6026 -210.8335,-166.6027 -330.2566,-255.0643 l -216.731,-162.17964 -44.2308,56.02568 c -23.5897,30.96157 -69.2949,82.56416 -100.2565,113.52576 -50.1282,53.0769 -57.5,56.0257 -78.1411,35.3846 -28.0128,-28.0128 -14.7436,-60.4487 69.295,-162.1796 32.4359,-38.33336 57.5,-76.66673 57.5,-85.51289 0,-8.84616 -56.0257,-42.75644 -123.8462,-75.19236 -147.436,-70.76929 -288.9746,-95.83341 -454.103,-81.08981 -95.8334,8.84616 -119.4231,17.69232 -182.8206,64.87185 -128.2693,98.78212 -175.4489,234.42326 -132.6924,387.75671 28.0128,100.2565 123.8462,337.6285 148.9104,367.1157 10.3205,11.7949 79.6154,120.8975 153.3334,241.795 237.372,386.2824 806.475,1020.2573 1210.4497,1346.0908 101.7308,82.5642 227.0514,184.2951 280.1284,228.5259 51.6026,42.7564 194.6155,153.3334 316.9874,244.7437 l 221.1541,166.6027 81.0898,-8.8461 c 44.2308,-4.4231 328.7823,-7.3718 631.0261,-8.8462 z" />
    <path
       style="stroke-width:1.47436"
       id="path4"
       d="m 5932.1615,3927.664 c -4.4231,-8.8461 4.4231,-35.3846 22.1154,-58.9744 17.6923,-23.5897 35.3846,-75.1923 39.8077,-113.5257 7.3718,-58.9744 0,-86.9872 -50.1282,-194.6155 -165.1284,-347.949 -178.3976,-675.257 -33.9103,-830.0648 54.5513,-57.5 61.9231,-60.4488 157.7565,-66.3462 126.795,-5.8974 185.7694,22.1154 252.1156,119.4232 95.8334,141.5386 79.6154,280.1284 -66.3462,588.2697 -47.1795,100.2565 -109.1027,250.6412 -135.6411,334.6797 -26.5385,84.0386 -64.8719,171.0258 -85.5129,194.6156 -35.3847,44.2308 -81.0898,56.0256 -100.2565,26.5384 z m 230.0002,-577.9491 c 56.0256,-116.4745 107.6282,-247.6925 116.4744,-293.3977 25.0641,-141.5386 -16.218,-244.7438 -123.8462,-297.8207 -51.6026,-25.0642 -61.9232,-26.5385 -116.4745,-7.3718 -45.7052,16.2179 -67.8206,35.3846 -97.3078,86.9872 -32.4359,58.9744 -36.859,81.0898 -33.9102,213.7822 1.4743,104.6796 11.7948,176.9232 33.9102,250.6412 36.859,119.4232 104.6796,277.1798 115.0001,266.8592 2.9487,-4.423 51.6026,-103.2052 106.154,-219.6796 z" />
    <path
       transform="matrix(7.5000001,0,0,-7.5000001,0,5940)"
       id="path20"
       d="m 806.69925,425.27513 c -6.03844,-1.94989 -10.04193,-5.18916 -13.47596,-10.90357 -4.46414,-7.42855 -4.9884,-10.11046 -4.98606,-25.50704 0.002,-15.46539 0.83792,-23.73198 3.39716,-33.60896 3.1078,-11.99411 13.69823,-37.96051 15.48224,-37.96051 0.76021,0 16.7829,33.48985 21.96126,45.90236 5.56822,13.34701 7.89081,20.90022 8.43818,27.44159 1.25887,15.04411 -5.01204,27.12018 -17.17011,33.06498 -6.29204,3.07655 -8.27705,3.30509 -13.64671,1.57115 z"
       style="fill:#c1ebbe;fill-opacity:1;stroke:#e6e6e6;stroke-width:4.23279;stroke-miterlimit:10;stroke-opacity:0.177165" />
    <path
       transform="matrix(7.5000001,0,0,-7.5000001,0,5940)"
       id="path845"
       d="m 120.11189,701.11371 c -7.60872,-1.0383 -11.98733,-2.50649 -16.81932,-5.63965 -18.039687,-11.69734 -26.49816,-29.96935 -22.654537,-48.9384 2.93096,-14.46489 15.834729,-46.38362 23.054967,-57.02872 1.49736,-2.20762 6.91513,-10.74617 12.0395,-18.97456 16.00442,-25.69891 27.39014,-41.68134 46.27072,-64.95136 21.3214,-26.27831 43.31272,-50.58482 69.37477,-76.6784 24.0792,-24.10831 34.9125,-33.84409 65.33723,-58.71784 32.25231,-26.36793 35.12652,-28.63061 67.0473,-52.7819 l 27.63262,-20.90686 4.11327,0.11837 c 76.98611,2.21554 168.23625,1.83133 206.99506,-0.87156 l 5.83832,-0.40714 13.57873,14.21801 c 7.4683,7.81991 14.12807,15.37569 14.79949,16.79061 2.30922,4.8663 0.9972,6.45285 -21.7109,26.25362 -16.27756,14.19354 -30.03308,25.52413 -36.27706,29.88185 l -4.79686,3.34777 -4.75939,-4.89219 c -2.61766,-2.69069 -7.55784,-8.17623 -10.97816,-12.19007 -13.70483,-16.08299 -19.65084,-19.74728 -21.31091,-13.13305 -1.09041,4.34455 3.48328,12.01211 16.36567,27.4362 4.81123,5.76049 8.74769,10.88082 8.74769,11.37851 0,1.42522 -3.95752,5.57581 -11.53108,12.0936 -6.43611,5.5389 -45.94758,37.77068 -55.53165,45.30034 l -4.1377,3.25077 -5.39721,-6.30876 c -2.96847,-3.46982 -9.15175,-11.34096 -13.74063,-17.49143 -10.46776,-14.02991 -15.73,-18.16704 -19.15972,-15.06318 -0.7866,0.71186 -1.43018,1.99157 -1.43018,2.8438 0,4.41663 10.57671,21.44105 21.48284,34.57908 4.46742,5.38167 6.24921,8.09379 6.24921,9.51221 0,2.46078 -3.48321,5.91938 -18.97456,18.84047 -23.57059,19.65988 -39.47769,31.9403 -45.53907,35.15659 -2.82884,1.50104 -2.85745,1.50155 -4.65961,0.084 -0.99731,-0.78448 -2.3481,-1.42633 -3.00175,-1.42633 -2.15327,0 -8.59783,-4.95264 -17.35521,-13.33748 -10.34986,-9.90958 -12.32819,-11.4754 -14.49851,-11.4754 -1.92467,0 -5.43988,3.80251 -5.43988,5.88449 0,1.80673 5.61228,8.44624 19.5251,23.09882 l 11.23581,11.83323 -2.42667,2.12416 c -17.26708,15.11458 -52.47806,42.15443 -72.12168,55.38498 -8.53997,5.75193 -12.9337,8.22721 -14.585,8.21673 -1.77942,-0.0113 -9.8385,-6.43432 -21.56311,-17.18563 -15.83493,-14.52045 -17.58303,-15.42538 -19.36535,-10.02488 -1.35182,4.09604 -0.44655,7.83023 2.97269,12.2622 3.28272,4.25501 16.91532,16.81312 23.1452,21.32094 2.09545,1.51622 3.81958,2.98676 3.8314,3.26786 0.025,0.59281 -14.92826,12.90035 -29.17012,24.00907 -15.42997,12.03546 -56.83864,42.98917 -57.45934,42.95187 -0.30745,-0.0185 -2.41887,-2.41187 -4.69203,-5.31865 -6.38973,-8.17081 -17.34618,-20.04072 -20.02887,-21.69871 -1.81899,-1.12419 -2.75478,-1.31275 -3.78328,-0.76231 -2.2589,1.20892 -3.21689,2.82599 -3.21689,5.43003 0,3.17735 1.2081,5.44604 6.85045,12.86454 7.2571,9.54154 11.54027,15.53288 11.54027,16.14264 0,0.9141 -7.85613,5.61955 -15.6905,9.39788 -16.72712,8.06707 -28.47806,10.92021 -46.70659,11.34039 -6.82354,0.15729 -14.70528,-0.0277 -17.51498,-0.41115 z"
       style="fill:#c1ebbe;fill-opacity:1;stroke:#e6e6e6;stroke-width:4.23279;stroke-miterlimit:10;stroke-opacity:0.177165" />
    <path
       transform="matrix(7.5000001,0,0,-7.5000001,0,5940)"
       id="path847"
       d="m 641.72476,311.2535 c -11.56379,-12.71123 -14.04352,-15.82719 -14.04352,-17.64673 0,-1.60078 14.30116,-3.60267 34.30016,-4.80139 13.10645,-0.78558 23.3533,-0.44584 23.3533,0.7743 0,1.19986 -26.75572,25.54509 -32.92405,29.95784 l -1.90795,1.36492 z"
       style="fill:#c1ebbe;fill-opacity:1;stroke:#e6e6e6;stroke-width:4.23279;stroke-miterlimit:10;stroke-opacity:0.177165" />
  </g>
</svg>
