<?xml version="1.0" encoding="UTF-8" standalone="no"?>
<svg
   xmlns:dc="http://purl.org/dc/elements/1.1/"
   xmlns:cc="http://creativecommons.org/ns#"
   xmlns:rdf="http://www.w3.org/1999/02/22-rdf-syntax-ns#"
   xmlns:svg="http://www.w3.org/2000/svg"
   xmlns="http://www.w3.org/2000/svg"
   xmlns:sodipodi="http://sodipodi.sourceforge.net/DTD/sodipodi-0.dtd"
   xmlns:inkscape="http://www.inkscape.org/namespaces/inkscape"
   version="1.0"
   width="2720pt"
   height="2720pt"
   viewBox="0 0 2720 2720"
   preserveAspectRatio="xMidYMid meet"
   id="svg14"
   sodipodi:docname="0th-order.svg"
   inkscape:version="1.0 (4035a4fb49, 2020-05-01)">
  <style
     id="style845"></style>
  <metadata
     id="metadata20">
    <rdf:RDF>
      <cc:Work
         rdf:about="">
        <dc:format>image/svg+xml</dc:format>
        <dc:type
           rdf:resource="http://purl.org/dc/dcmitype/StillImage" />
        <dc:title></dc:title>
      </cc:Work>
    </rdf:RDF>
  </metadata>
  <defs
     id="defs18" />
  <sodipodi:namedview
     inkscape:document-rotation="0"
     pagecolor="#ffffff"
     bordercolor="#666666"
     borderopacity="1"
     objecttolerance="10"
     gridtolerance="10"
     guidetolerance="10"
     inkscape:pageopacity="0"
     inkscape:pageshadow="2"
     inkscape:window-width="1407"
     inkscape:window-height="1033"
     id="namedview16"
     showgrid="false"
     inkscape:zoom="0.05767894"
     inkscape:cx="4690.9618"
     inkscape:cy="4692.0237"
     inkscape:window-x="128"
     inkscape:window-y="0"
     inkscape:window-maximized="0"
     inkscape:current-layer="svg14" />
  <g
     transform="matrix(0.93271607,0,0,0.93271607,4.0847397,161.2919)"
     id="g844">
    <circle
       r="1220.3527"
       cy="1388.6771"
       cx="1281.5615"
       id="path847"
       style="fill:#d9bdbd;fill-opacity:1;stroke:#e6e6e6;stroke-width:0.99975;stroke-opacity:0.177165" />
    <g
       id="g12"
       stroke="none"
       fill="#000000"
       transform="matrix(0.1,0,0,-0.1,0,2752)">
      <path
         id="path2"
         d="m 4980,24181 c 0,-4 -21,-11 -47,-14 -26,-3 -49,-10 -51,-16 -2,-6 -17,-11 -33,-11 -19,0 -38,-9 -53,-25 -13,-14 -26,-25 -30,-25 -7,0 -20,-10 -51,-37 -7,-7 -18,-13 -23,-13 -5,0 -13,-11 -16,-24 -3,-14 -14,-27 -25,-31 -10,-3 -26,-26 -36,-50 -9,-25 -20,-45 -25,-45 -4,0 -10,-18 -14,-40 -3,-22 -11,-40 -16,-40 -6,0 -10,-18 -10,-40 0,-29 -4,-40 -15,-40 -9,0 -15,-9 -15,-25 0,-14 -4,-25 -10,-25 -5,0 -10,-7 -10,-15 0,-8 -4,-15 -10,-15 -5,0 -12,-11 -16,-25 -3,-14 -10,-25 -15,-25 -5,0 -9,-9 -9,-20 0,-11 -7,-23 -15,-26 -8,-4 -15,-15 -15,-26 0,-21 -22,-48 -39,-48 -6,0 -11,-7 -11,-15 0,-8 -4,-15 -9,-15 -5,0 -12,-11 -15,-25 -4,-14 -11,-25 -16,-25 -6,0 -10,-9 -10,-20 0,-12 -11,-31 -25,-44 -14,-13 -25,-28 -25,-35 0,-6 -4,-11 -10,-11 -5,0 -12,-11 -16,-25 -3,-14 -10,-25 -15,-25 -5,0 -9,-9 -9,-20 0,-11 -4,-20 -10,-20 -5,0 -13,-18 -16,-40 -4,-22 -10,-40 -15,-40 -5,0 -9,-25 -9,-55 0,-30 3,-55 8,-55 11,0 42,-59 42,-81 0,-10 4,-19 9,-19 5,0 12,-11 15,-25 5,-18 13,-25 31,-25 14,0 25,-4 25,-10 0,-5 8,-10 18,-10 9,0 26,-7 36,-15 22,-17 96,-21 96,-5 0,5 16,12 35,16 19,3 35,10 35,14 0,4 11,11 24,14 14,3 28,15 31,26 3,11 11,20 16,20 5,0 9,7 9,15 0,8 5,15 11,15 14,0 39,25 39,39 0,6 4,11 9,11 5,0 13,10 17,23 4,12 17,32 30,44 13,12 24,27 24,33 0,5 4,10 9,10 5,0 13,9 16,20 12,37 25,21 25,-30 0,-30 4,-50 11,-50 7,0 9,-12 6,-32 -6,-40 14,-271 24,-278 4,-3 9,-52 12,-108 2,-57 10,-109 16,-115 6,-6 11,-47 11,-99 0,-52 4,-88 10,-88 6,0 10,-28 10,-62 0,-35 7,-99 15,-143 8,-44 14,-117 15,-162 0,-46 4,-83 9,-83 4,0 11,-39 14,-87 3,-50 10,-89 16,-91 7,-2 11,-51 11,-143 0,-76 4,-139 9,-139 5,0 12,-58 16,-130 4,-71 11,-130 16,-130 5,0 9,-23 9,-51 0,-28 4,-58 10,-68 5,-10 12,-84 16,-165 4,-80 11,-146 16,-146 4,0 8,-36 8,-80 0,-43 7,-105 15,-137 9,-34 15,-101 15,-165 0,-65 4,-108 10,-108 6,0 10,-43 10,-107 0,-60 6,-126 12,-148 6,-22 13,-84 15,-137 2,-54 8,-98 12,-98 5,0 12,-49 16,-110 3,-60 11,-110 16,-110 5,0 9,-47 9,-105 0,-63 4,-105 10,-105 6,0 10,-11 10,-25 0,-14 -4,-25 -10,-25 -13,0 -13,-27 -1,-32 6,-1 13,-87 17,-190 4,-104 11,-188 15,-188 5,0 9,-58 9,-130 0,-80 4,-130 10,-130 6,0 10,-9 10,-19 0,-11 -4,-23 -10,-26 -13,-8 -13,-52 0,-57 6,-2 13,-91 16,-228 4,-124 11,-226 15,-228 12,-5 11,-52 -1,-52 -5,0 -10,-11 -10,-25 0,-14 5,-25 10,-25 6,0 10,-91 11,-252 0,-139 5,-300 10,-358 6,-58 13,-220 16,-360 3,-177 8,-257 16,-263 9,-6 9,-10 0,-14 -16,-6 -18,-180 -2,-185 7,-2 10,-104 10,-313 0,-171 5,-364 10,-430 6,-66 9,-142 9,-170 -1,-27 -1,-178 0,-335 2,-303 2,-323 -5,-610 -2,-120 0,-187 6,-191 7,-4 8,-70 2,-205 -6,-133 -6,-208 1,-227 8,-20 7,-33 -2,-48 -11,-16 -13,-92 -10,-342 2,-185 7,-325 12,-329 6,-4 5,-13 -3,-22 -9,-11 -11,-38 -7,-93 10,-140 11,-213 3,-213 -4,0 -6,-100 -3,-222 3,-123 8,-450 12,-728 3,-278 9,-507 13,-510 4,-3 11,-147 14,-320 4,-201 10,-316 17,-318 13,-5 13,-82 0,-82 -5,0 -10,-9 -10,-20 0,-11 5,-20 10,-20 6,0 10,-85 10,-234 0,-179 3,-235 13,-238 9,-4 13,-78 15,-314 2,-170 8,-311 12,-314 5,-3 11,-102 14,-220 3,-118 8,-235 10,-260 3,-25 8,-136 12,-247 4,-112 11,-203 15,-203 5,0 9,-75 10,-167 0,-93 4,-199 10,-238 5,-38 12,-151 15,-250 4,-99 10,-182 14,-185 5,-3 12,-94 16,-203 4,-109 11,-200 15,-203 5,-3 9,-39 9,-80 0,-43 4,-74 10,-74 6,0 10,-7 10,-15 0,-8 -4,-15 -10,-15 -13,0 -13,-97 -1,-102 5,-1 13,-101 17,-221 4,-119 11,-217 15,-217 5,0 9,-58 9,-129 0,-87 4,-131 11,-133 7,-2 13,-53 17,-141 2,-75 9,-137 13,-137 5,0 9,-43 9,-96 0,-54 5,-105 12,-117 7,-13 14,-82 16,-162 3,-77 8,-142 12,-145 4,-3 10,-56 13,-119 5,-106 5,-114 -14,-118 -10,-3 -19,-9 -19,-13 0,-4 -125,-10 -277,-14 -165,-4 -279,-11 -281,-16 -5,-13 -52,-13 -52,0 0,6 -108,10 -305,10 -197,0 -305,-4 -305,-10 0,-7 -210,-10 -610,-10 -400,0 -610,3 -610,10 0,15 -87,12 -94,-2 -5,-10 -7,-10 -12,0 -7,16 -81,16 -88,0 -5,-10 -7,-10 -12,0 -7,14 -104,17 -104,2 0,-5 -7,-10 -15,-10 -8,0 -15,5 -15,10 0,6 -7,10 -15,10 -8,0 -15,-4 -15,-10 0,-6 -32,-10 -75,-10 -41,0 -75,4 -75,9 0,4 -48,11 -107,15 -60,4 -109,11 -111,16 -2,6 -23,10 -47,10 -24,0 -67,5 -96,11 -40,9 -61,8 -90,-1 -22,-7 -39,-16 -39,-20 0,-4 -16,-11 -35,-14 -19,-4 -35,-11 -35,-16 0,-6 -7,-10 -15,-10 -8,0 -15,-7 -15,-15 0,-8 -4,-15 -10,-15 -5,0 -10,-9 -10,-20 0,-11 -7,-23 -15,-26 -8,-4 -15,-17 -15,-30 0,-13 -4,-24 -10,-24 -5,0 -10,-11 -10,-25 0,-14 5,-25 10,-25 6,0 10,-13 10,-29 0,-44 44,-121 69,-121 6,0 11,-4 11,-10 0,-5 11,-12 25,-16 14,-3 25,-10 25,-14 0,-4 11,-11 25,-14 14,-4 25,-11 25,-16 0,-6 11,-10 25,-10 14,0 25,-4 25,-9 0,-5 28,-11 62,-13 35,-3 64,-10 66,-16 2,-7 24,-12 52,-12 30,0 50,-5 53,-12 3,-10 65,-13 266,-13 221,0 263,2 272,15 8,11 12,12 16,3 3,-9 35,-13 108,-13 73,0 105,4 109,13 5,9 7,9 12,0 3,-8 24,-13 50,-13 28,0 44,4 44,13 0,8 4,7 10,-3 14,-22 917,-21 932,1 7,11 11,11 15,2 6,-16 183,-18 183,-3 0,6 83,10 230,10 147,0 230,4 230,10 0,6 55,10 145,10 90,0 145,-4 145,-10 0,-5 23,-10 50,-10 28,0 50,5 50,10 0,6 16,10 35,10 19,0 35,-4 35,-10 0,-5 25,-10 55,-10 30,0 55,5 55,10 0,6 30,10 71,10 53,0 75,-4 87,-17 18,-18 29,-93 38,-275 3,-60 10,-108 15,-108 5,0 9,-20 9,-45 0,-25 -4,-45 -10,-45 -5,0 -10,-13 -10,-30 0,-16 4,-30 9,-30 4,0 11,-80 15,-177 4,-98 11,-180 17,-181 5,-2 9,-98 9,-232 0,-154 4,-230 11,-232 6,-2 13,-57 16,-141 3,-75 10,-137 14,-137 5,0 9,-7 9,-15 0,-8 -4,-15 -10,-15 -6,0 -10,-28 -10,-65 0,-37 4,-65 10,-65 6,0 10,-50 10,-130 0,-71 4,-130 9,-130 4,0 8,-39 9,-87 0,-136 13,-293 23,-293 5,0 9,-26 9,-59 0,-32 7,-75 15,-94 8,-20 15,-50 15,-67 0,-16 4,-30 9,-30 5,0 11,-22 15,-50 4,-27 11,-52 16,-55 6,-3 10,-17 10,-31 0,-15 6,-24 15,-24 8,0 15,-5 15,-10 0,-6 18,-29 39,-50 31,-32 47,-40 75,-40 20,0 36,5 36,11 0,14 25,39 39,39 6,0 11,6 11,14 0,8 5,16 11,18 5,2 13,22 16,46 3,23 10,42 14,42 5,0 9,36 9,79 0,53 4,81 12,83 8,3 13,45 16,131 3,70 8,127 13,127 5,0 9,11 9,25 0,14 -4,25 -10,25 -5,0 -10,11 -10,25 0,14 5,25 10,25 6,0 10,11 10,25 0,14 -4,25 -8,25 -5,0 -12,143 -16,318 -4,183 -11,318 -17,320 -5,2 -9,92 -9,217 0,137 -4,215 -10,217 -6,2 -13,71 -17,171 -3,92 -10,167 -15,167 -4,0 -8,7 -8,15 0,8 5,15 10,15 6,0 10,9 10,20 0,11 -4,20 -10,20 -6,0 -10,44 -10,113 0,61 -4,126 -9,143 -11,39 -25,465 -16,493 6,19 14,21 81,21 40,0 95,6 121,13 37,9 47,9 50,0 6,-16 180,-18 185,-2 2,7 12,7 29,0 18,-6 48,-5 97,4 53,10 192,14 554,15 309,0 484,4 486,10 5,13 82,13 82,0 0,-13 47,-13 52,1 2,7 102,10 303,10 207,0 303,4 313,11 10,9 15,9 21,-1 6,-9 27,-11 77,-7 155,12 184,12 184,4 0,-13 357,-10 402,4 29,9 41,9 50,0 17,-17 54,-15 72,3 16,16 48,20 60,7 11,-10 40,-12 249,-15 103,-2 187,1 187,5 0,5 11,6 25,2 15,-4 25,-2 25,5 0,6 7,11 15,11 8,0 15,-5 15,-10 0,-6 17,-10 38,-10 20,0 75,-3 121,-6 62,-5 85,-3 91,6 7,11 14,11 38,1 20,-8 42,-10 64,-5 18,5 66,7 106,5 45,-2 72,1 72,7 0,16 168,13 208,-4 28,-11 165,-14 780,-14 490,0 748,-3 750,-10 5,-13 262,-13 262,0 0,13 67,13 72,0 2,-5 193,-11 483,-13 264,-3 516,-6 560,-7 44,-1 134,-1 199,-1 66,1 135,-4 153,-10 26,-8 50,-8 98,2 53,10 71,10 104,-1 33,-11 54,-11 115,0 61,10 84,10 121,0 35,-10 52,-10 71,-1 31,14 64,14 64,1 0,-14 36,-12 60,2 16,10 24,10 40,0 14,-9 93,-12 294,-12 210,0 276,-3 280,-12 5,-10 7,-10 12,0 7,16 61,16 68,0 5,-11 7,-11 12,0 7,15 264,18 264,2 0,-5 11,-10 25,-10 14,0 25,5 25,10 0,14 47,12 54,-2 5,-10 7,-10 12,0 7,14 104,17 104,2 0,-5 25,-10 55,-10 30,0 55,5 55,10 0,13 247,14 252,1 2,-5 89,-12 193,-16 120,-5 193,-12 198,-19 6,-8 10,-8 14,2 6,16 30,16 37,0 5,-11 7,-11 12,0 7,15 164,17 164,2 0,-7 142,-10 405,-10 263,0 405,-3 405,-10 0,-5 9,-10 20,-10 11,0 20,5 20,10 0,6 9,10 20,10 11,0 20,-4 20,-10 0,-6 37,-10 90,-10 53,0 90,4 90,10 0,6 7,10 15,10 8,0 15,-4 15,-10 0,-15 177,-13 183,3 4,9 7,9 15,-1 11,-16 335,-19 340,-2 5,13 69,13 74,0 2,-5 141,-12 343,-15 196,-4 341,-10 343,-16 5,-12 32,-12 32,1 0,16 507,13 514,-2 5,-10 7,-10 12,0 7,15 364,18 364,2 0,-5 18,-10 40,-10 22,0 40,5 40,10 0,6 16,10 35,10 19,0 35,-4 35,-10 0,-5 7,-10 15,-10 8,0 15,5 15,10 0,6 32,10 75,10 43,0 75,-4 75,-10 0,-5 18,-10 40,-10 22,0 40,5 40,10 0,6 7,10 15,10 8,0 15,-4 15,-10 0,-5 7,-10 15,-10 8,0 15,5 15,10 0,6 30,10 70,10 40,0 70,-4 70,-10 0,-16 467,-13 474,3 5,9 7,9 12,0 4,-9 30,-13 78,-13 44,0 77,-5 85,-13 11,-9 14,-9 18,1 6,16 150,17 155,1 3,-8 101,-12 338,-13 184,0 362,0 395,2 81,4 188,-8 198,-22 6,-8 10,-8 14,2 2,6 22,12 43,12 21,0 41,-6 44,-12 5,-11 7,-11 12,0 7,15 204,17 204,2 0,-15 57,-12 64,3 5,9 7,9 12,0 7,-17 61,-17 68,0 5,9 7,9 12,0 4,-9 38,-13 119,-13 81,0 115,4 119,13 5,9 7,9 12,0 7,-15 84,-18 84,-3 0,13 207,14 212,1 2,-5 125,-13 273,-17 149,-4 308,-9 355,-11 47,-2 217,-6 378,-9 170,-3 292,-9 292,-15 0,-5 11,-9 25,-9 14,0 25,5 25,10 0,6 53,10 140,10 87,0 140,-4 140,-10 0,-6 75,-10 205,-10 130,0 205,4 205,10 0,15 77,12 84,-2 5,-10 7,-10 12,0 7,15 234,18 234,2 0,-5 7,-10 15,-10 8,0 15,5 15,10 0,6 7,10 15,10 8,0 15,-4 15,-10 0,-6 27,-10 60,-10 33,0 60,4 60,10 0,6 28,10 65,10 37,0 65,-4 65,-10 0,-5 11,-10 25,-10 14,0 25,5 25,10 0,7 149,10 428,10 235,0 444,4 465,9 21,5 122,12 225,16 118,5 190,12 195,19 6,8 10,8 14,-1 6,-15 33,-17 33,-3 0,6 27,10 60,10 33,0 60,-4 60,-10 0,-5 -4,-10 -10,-10 -5,0 -10,-7 -10,-15 0,-8 -7,-15 -15,-15 -8,0 -15,-4 -15,-10 0,-5 -11,-12 -25,-16 -14,-3 -25,-10 -25,-15 0,-5 -7,-9 -15,-9 -16,0 -65,-46 -65,-61 0,-5 -7,-9 -16,-9 -18,0 -104,-83 -104,-100 0,-5 -4,-10 -10,-10 -5,0 -12,-11 -16,-25 -3,-14 -10,-25 -14,-25 -4,0 -11,-11 -14,-25 -4,-14 -11,-25 -16,-25 -6,0 -10,-18 -10,-39 0,-22 -4,-41 -10,-43 -15,-5 -16,-151 -2,-156 7,-2 12,-16 12,-30 0,-32 29,-112 41,-112 5,0 9,-7 9,-15 0,-9 9,-15 25,-15 14,0 25,-4 25,-9 0,-5 25,-13 55,-16 30,-4 55,-11 55,-16 0,-5 11,-9 25,-9 22,0 25,4 25,35 0,34 1,35 40,35 22,0 40,-4 40,-10 0,-5 9,-10 20,-10 11,0 20,5 20,10 0,6 7,10 15,10 9,0 15,9 15,25 0,18 7,26 25,31 22,5 25,12 25,48 0,22 7,50 15,60 8,11 15,30 15,43 0,16 7,24 25,29 14,3 25,10 25,15 0,5 9,9 20,9 11,0 23,7 26,15 4,8 17,15 30,15 13,0 24,5 24,10 0,6 7,10 15,10 8,0 15,4 15,10 0,5 11,12 25,16 14,3 25,10 25,15 0,5 6,9 14,9 21,0 77,32 103,57 12,13 29,23 38,23 9,0 23,6 30,13 30,26 44,37 49,37 7,0 96,89 96,96 0,3 7,12 15,20 8,9 15,26 15,40 0,13 5,24 10,24 6,0 10,27 10,61 0,53 -4,65 -25,85 -14,13 -25,30 -25,39 0,9 -6,23 -12,30 -30,33 -38,45 -38,55 0,5 -7,10 -15,10 -8,0 -15,5 -15,11 0,14 -25,39 -39,39 -6,0 -11,7 -11,15 0,8 -7,15 -15,15 -10,0 -15,11 -15,35 0,19 -4,35 -10,35 -5,0 -10,7 -10,15 0,8 -4,15 -10,15 -5,0 -12,11 -16,25 -3,14 -10,25 -15,25 -5,0 -9,7 -9,15 0,8 -7,15 -15,15 -8,0 -15,5 -15,10 0,6 -20,10 -45,10 -25,0 -62,7 -82,15 -19,8 -42,15 -50,15 -18,0 -119,102 -128,129 -3,12 -11,21 -16,21 -5,0 -9,11 -9,25 0,14 -4,25 -9,25 -5,0 -11,18 -15,40 -3,22 -11,40 -16,40 -6,0 -10,13 -10,29 0,16 -6,31 -15,35 -8,3 -15,12 -15,20 0,7 -9,16 -21,19 -11,3 -23,15 -26,26 -3,12 -13,21 -22,21 -9,0 -25,7 -35,15 -26,20 -136,20 -162,0 -10,-8 -29,-15 -41,-15 -13,0 -23,-4 -23,-10 0,-5 -6,-10 -12,-10 -27,-1 -58,-38 -58,-69 0,-19 -6,-34 -15,-37 -8,-4 -15,-15 -15,-25 0,-10 -4,-19 -10,-19 -6,0 -10,-32 -10,-75 0,-43 4,-75 10,-75 6,0 10,-13 10,-30 0,-16 5,-30 10,-30 6,0 10,-16 10,-35 0,-19 -4,-35 -10,-35 -5,0 -10,-7 -10,-15 0,-13 -26,-15 -172,-16 -256,-2 -455,-8 -623,-19 -82,-5 -455,-10 -827,-10 -445,0 -678,-3 -678,-10 0,-5 -18,-10 -40,-10 -22,0 -40,4 -40,9 0,6 -146,12 -347,15 -192,3 -381,8 -420,12 -50,4 -73,2 -73,-5 0,-6 -7,-11 -15,-11 -8,0 -15,3 -15,8 0,7 -107,16 -180,14 -19,0 -114,-1 -210,-1 -96,-1 -201,-5 -233,-10 -41,-7 -66,-7 -90,2 -48,18 -919,17 -925,-1 -3,-10 -7,-10 -18,-1 -11,9 -128,13 -419,17 -223,3 -405,9 -405,13 0,5 -45,9 -100,9 -60,0 -100,-4 -100,-10 0,-13 -27,-13 -32,-1 -2,5 -158,12 -363,15 -198,3 -378,9 -399,15 -31,7 -44,6 -63,-6 -19,-13 -26,-13 -39,-2 -18,15 -319,25 -328,11 -2,-4 -53,-6 -113,-4 -59,2 -542,6 -1073,8 -596,3 -966,9 -968,15 -5,12 -222,12 -222,-1 0,-12 -27,-13 -32,-1 -2,5 -192,12 -423,16 -244,4 -421,10 -423,16 -2,5 -252,9 -628,9 -409,0 -624,3 -624,10 0,6 -16,10 -35,10 -19,0 -35,-4 -35,-10 0,-6 -28,-10 -65,-10 -37,0 -65,4 -65,10 0,6 -13,10 -30,10 -16,0 -30,-4 -30,-10 0,-5 -16,-10 -35,-10 -19,0 -35,5 -35,10 0,6 -16,10 -35,10 -19,0 -35,-4 -35,-10 0,-12 -57,-13 -62,-1 -2,4 -218,11 -482,14 -384,4 -481,8 -488,19 -7,10 -11,10 -15,1 -6,-16 -163,-18 -163,-3 0,6 -7,10 -15,10 -8,0 -15,-4 -15,-10 0,-6 -40,-10 -100,-10 -60,0 -100,4 -100,10 0,16 -227,13 -234,-2 -5,-10 -7,-10 -12,0 -7,14 -101,17 -106,3 -1,-5 -15,-13 -30,-16 -22,-6 -28,-4 -28,9 0,14 -16,16 -114,16 -82,0 -116,-4 -120,-12 -5,-10 -7,-10 -12,0 -4,9 -107,12 -465,12 -311,0 -459,3 -459,10 0,13 -84,11 -123,-3 -21,-7 -31,-7 -36,2 -5,8 -117,13 -402,17 -273,5 -396,10 -401,18 -6,8 -8,7 -8,-1 0,-7 -9,-13 -20,-13 -11,0 -20,5 -20,10 0,6 -9,10 -20,10 -11,0 -20,-4 -20,-10 0,-6 -40,-10 -100,-10 -60,0 -100,4 -100,10 0,6 -13,10 -30,10 -16,0 -30,-4 -30,-10 0,-5 -11,-10 -25,-10 -14,0 -25,5 -25,10 0,6 -18,10 -40,10 -22,0 -40,-4 -40,-10 0,-6 -48,-10 -125,-10 -77,0 -125,4 -125,10 0,6 -11,10 -25,10 -14,0 -25,-4 -25,-10 0,-5 -13,-10 -30,-10 -16,0 -30,5 -30,10 0,6 -22,10 -50,10 -27,0 -50,-4 -50,-10 0,-5 -11,-10 -25,-10 -14,0 -25,5 -25,10 0,6 -18,10 -40,10 -22,0 -40,-4 -40,-10 0,-5 -11,-10 -25,-10 -14,0 -25,5 -25,10 0,6 -37,10 -90,10 -53,0 -90,-4 -90,-10 0,-5 -16,-10 -35,-10 -19,0 -35,5 -35,10 0,6 -13,10 -30,10 -16,0 -30,-4 -30,-10 0,-5 -11,-10 -25,-10 -14,0 -25,5 -25,10 0,6 -40,10 -100,10 -60,0 -100,-4 -100,-10 0,-5 -11,-10 -25,-10 -14,0 -25,5 -25,10 0,14 -27,12 -34,-2 -5,-10 -7,-10 -12,0 -8,17 -260,17 -268,-1 -5,-9 -7,-9 -12,1 -8,18 -590,18 -598,0 -5,-11 -7,-11 -12,0 -8,17 -140,17 -148,-1 -5,-9 -7,-9 -12,1 -7,14 -74,17 -74,2 0,-6 -37,-10 -90,-10 -53,0 -90,4 -90,10 0,12 -77,13 -82,1 -2,-5 -276,-11 -637,-13 -479,-3 -636,-7 -639,-16 -4,-13 -52,-17 -52,-4 0,5 -70,8 -155,8 -85,-1 -155,-4 -155,-8 0,-5 -45,-8 -99,-8 -122,0 -131,6 -131,90 0,32 -4,60 -10,62 -5,2 -10,48 -11,103 -1,59 -7,114 -15,134 -10,23 -14,79 -14,181 0,95 -4,150 -11,152 -6,2 -12,56 -16,131 -3,70 -10,127 -15,127 -4,0 -8,63 -8,139 0,102 -3,141 -12,144 -10,4 -10,6 0,6 15,1 16,58 0,63 -8,3 -13,44 -16,126 -3,67 -8,122 -13,122 -5,0 -9,69 -9,153 0,94 -4,157 -11,164 -6,6 -13,83 -16,184 -3,96 -9,176 -13,179 -4,3 -10,120 -14,262 -4,141 -11,271 -16,290 -6,18 -10,99 -10,180 0,83 -4,148 -9,148 -5,0 -11,56 -13,125 -2,76 -7,129 -14,133 -7,5 -11,120 -12,361 -1,204 -6,357 -11,361 -5,3 -13,100 -16,215 -4,116 -11,212 -16,213 -5,2 -9,91 -9,198 0,123 -4,194 -10,194 -5,0 -10,9 -10,20 0,11 5,20 10,20 13,0 13,157 0,162 -6,2 -13,89 -16,218 -4,140 -11,218 -18,223 -8,6 -8,10 2,14 15,6 17,173 2,173 -6,0 -11,148 -14,398 -2,218 -7,424 -9,457 -6,69 -7,1259 -2,1685 2,157 3,296 3,310 -1,14 0,120 1,235 12,874 10,1261 -4,1297 -11,28 -12,45 -5,64 12,32 13,76 6,404 -14,605 -19,755 -27,758 -12,5 -11,52 1,52 13,0 13,47 0,52 -6,2 -10,155 -11,402 0,233 -5,410 -11,425 -5,14 -12,201 -15,416 -3,214 -9,392 -13,395 -4,3 -10,97 -14,210 -4,113 -11,228 -16,255 -5,28 -9,101 -9,163 -1,61 -5,112 -9,112 -5,0 -12,66 -15,147 -4,86 -11,149 -17,151 -14,5 -13,29 3,36 10,5 10,7 0,12 -9,4 -13,38 -13,119 0,80 -4,115 -12,117 -8,3 -14,39 -16,106 -2,56 -8,102 -13,102 -5,0 -9,63 -9,139 0,103 -3,140 -12,143 -16,6 -24,245 -9,267 7,11 27,-3 90,-68 45,-45 81,-84 81,-87 0,-6 15,-24 53,-64 15,-15 27,-33 27,-39 0,-6 5,-11 11,-11 11,0 39,-25 39,-35 0,-4 12,-20 28,-35 39,-41 52,-58 52,-66 0,-3 27,-33 60,-65 33,-32 60,-63 60,-69 0,-5 7,-10 15,-10 8,0 15,-5 15,-11 0,-14 25,-39 39,-39 6,0 11,-5 11,-10 0,-12 10,-25 53,-70 15,-15 27,-31 27,-34 0,-4 23,-29 50,-56 28,-27 50,-54 50,-60 0,-13 37,-50 50,-50 13,0 50,-37 50,-50 0,-5 11,-20 25,-34 14,-14 25,-30 25,-36 0,-5 7,-10 15,-10 8,0 15,-5 15,-11 0,-14 25,-39 39,-39 6,0 11,-5 11,-11 0,-6 18,-28 40,-50 22,-22 40,-44 40,-50 0,-15 22,-35 48,-43 12,-4 22,-12 22,-17 0,-5 7,-9 15,-9 8,0 15,-5 15,-11 0,-6 6,-17 13,-24 29,-33 37,-45 37,-55 0,-5 7,-10 15,-10 8,0 15,-5 15,-10 0,-6 45,-55 100,-110 55,-56 100,-104 100,-109 0,-4 23,-31 50,-60 28,-29 50,-56 50,-62 0,-5 7,-9 15,-9 8,0 15,-5 15,-11 0,-14 25,-39 39,-39 6,0 11,-5 11,-11 0,-6 6,-17 13,-24 29,-33 37,-45 37,-55 0,-5 7,-10 15,-10 8,0 15,-7 15,-15 0,-8 5,-15 11,-15 14,0 39,-25 39,-39 0,-6 5,-11 11,-11 12,0 39,-25 39,-35 0,-4 33,-40 74,-79 40,-39 76,-82 80,-94 4,-12 12,-22 17,-22 5,0 9,-5 9,-11 0,-14 25,-39 39,-39 6,0 11,-5 11,-11 0,-14 25,-39 39,-39 6,0 11,-9 11,-20 0,-11 32,-52 75,-95 41,-41 75,-79 75,-85 0,-5 5,-10 11,-10 13,0 39,-25 39,-39 0,-15 49,-61 65,-61 9,0 15,-10 15,-25 0,-16 6,-25 15,-25 8,0 15,-5 15,-11 0,-14 25,-39 39,-39 6,0 11,-5 11,-11 0,-7 11,-22 25,-35 14,-13 25,-30 25,-39 0,-8 5,-15 11,-15 14,0 39,-25 39,-39 0,-6 7,-11 15,-11 8,0 15,-5 15,-11 0,-7 16,-26 35,-45 19,-18 35,-37 35,-43 0,-6 7,-11 15,-11 8,0 15,-5 15,-11 0,-6 6,-17 13,-24 29,-33 37,-45 37,-55 0,-5 5,-10 11,-10 14,0 39,-25 39,-39 0,-6 5,-11 11,-11 14,0 39,-25 39,-39 0,-6 7,-11 15,-11 8,0 15,-6 15,-13 0,-7 11,-21 25,-31 14,-10 25,-25 25,-32 0,-15 105,-124 120,-124 5,0 10,-7 10,-15 0,-8 5,-15 10,-15 6,0 10,-7 10,-15 0,-8 5,-15 11,-15 14,0 39,-25 39,-39 0,-6 7,-11 15,-11 8,0 15,-5 15,-11 0,-6 6,-17 12,-24 30,-33 38,-45 38,-55 0,-5 5,-10 11,-10 14,0 39,-25 39,-39 0,-6 7,-11 15,-11 8,0 15,-5 15,-10 0,-6 23,-33 50,-60 28,-27 50,-54 50,-60 0,-6 23,-32 50,-59 27,-27 50,-54 50,-60 0,-6 5,-11 11,-11 14,0 39,-25 39,-39 0,-6 5,-11 11,-11 14,0 39,-25 39,-39 0,-6 7,-11 15,-11 9,0 15,-9 15,-23 0,-15 9,-29 25,-37 14,-7 25,-19 25,-27 0,-7 7,-13 15,-13 8,0 15,-5 15,-11 0,-7 16,-27 35,-46 19,-19 35,-38 35,-43 0,-15 50,-60 65,-60 8,0 15,-9 15,-20 0,-11 5,-20 10,-20 6,0 10,-7 10,-15 0,-8 7,-15 15,-15 8,0 15,-5 15,-11 0,-6 12,-24 28,-39 42,-45 52,-58 52,-70 0,-5 5,-10 11,-10 14,0 39,-25 39,-39 0,-6 5,-11 11,-11 12,0 39,-25 39,-36 0,-4 11,-17 25,-30 14,-13 25,-26 25,-29 0,-10 28,-35 38,-35 5,0 13,-11 16,-25 4,-16 13,-25 26,-25 11,0 20,-5 20,-11 0,-6 6,-17 13,-24 29,-33 37,-45 37,-55 0,-5 7,-10 15,-10 8,0 15,-7 15,-15 0,-8 5,-15 11,-15 14,0 39,-25 39,-39 0,-6 5,-11 11,-11 14,0 39,-25 39,-39 0,-6 7,-11 15,-11 8,0 15,-7 15,-15 0,-8 4,-15 9,-15 5,0 12,-8 16,-19 3,-10 21,-35 40,-54 19,-20 35,-39 35,-42 0,-10 28,-35 39,-35 6,0 11,-11 11,-25 0,-14 5,-25 11,-25 14,0 39,-25 39,-39 0,-6 5,-11 11,-11 11,0 69,-54 69,-65 0,-10 28,-35 39,-35 6,0 11,-5 11,-11 0,-7 11,-22 25,-35 14,-13 25,-28 25,-34 0,-6 11,-21 25,-34 14,-13 25,-28 25,-35 0,-6 5,-11 11,-11 14,0 39,-25 39,-39 0,-6 5,-11 11,-11 14,0 39,-25 39,-39 0,-6 7,-11 15,-11 8,0 15,-5 15,-11 0,-6 6,-17 13,-24 29,-33 37,-45 37,-55 0,-5 7,-10 15,-10 8,0 15,-4 15,-10 0,-5 38,-47 84,-94 46,-46 87,-93 91,-105 3,-11 11,-21 16,-21 5,0 9,-7 9,-15 0,-8 5,-15 10,-15 6,0 28,-18 50,-40 22,-22 40,-44 40,-50 0,-5 7,-10 15,-10 8,0 15,-4 15,-10 0,-5 18,-28 40,-50 22,-22 40,-45 40,-51 0,-6 15,-26 34,-44 19,-18 37,-42 41,-54 3,-12 15,-21 26,-21 10,0 19,-5 19,-10 0,-12 10,-25 53,-70 15,-15 27,-31 27,-35 0,-10 28,-35 39,-35 6,0 11,-7 11,-15 0,-8 4,-15 10,-15 5,0 12,-11 16,-25 3,-14 11,-25 16,-25 10,0 38,-25 38,-33 0,-3 34,-40 75,-82 41,-42 75,-78 75,-81 0,-10 28,-34 39,-34 6,0 11,-5 11,-10 0,-10 8,-22 38,-55 6,-7 12,-18 12,-24 0,-6 7,-11 15,-11 8,0 15,-5 15,-11 0,-6 34,-44 75,-85 41,-41 75,-79 75,-84 0,-6 7,-13 15,-16 8,-4 15,-10 15,-15 0,-4 16,-23 35,-42 19,-19 35,-39 35,-46 0,-6 7,-11 15,-11 8,0 15,-5 15,-11 0,-14 25,-39 39,-39 6,0 11,-5 11,-11 0,-11 54,-69 65,-69 10,0 35,-28 35,-39 0,-6 7,-11 15,-11 8,0 15,-7 15,-15 0,-16 46,-65 61,-65 4,0 11,-10 15,-22 8,-26 28,-48 43,-48 6,0 11,-5 11,-10 0,-6 38,-48 84,-94 46,-47 87,-93 90,-104 4,-11 16,-22 27,-25 11,-3 23,-15 26,-26 3,-12 10,-21 15,-21 10,0 38,-25 38,-34 0,-10 71,-76 82,-76 14,0 34,-23 42,-48 4,-13 16,-22 27,-22 10,0 19,-6 19,-14 0,-8 18,-33 40,-55 22,-22 40,-45 40,-51 0,-5 7,-10 15,-10 8,0 15,-5 15,-11 0,-14 25,-39 39,-39 6,0 11,-5 11,-11 0,-6 6,-17 13,-24 29,-33 37,-45 37,-55 0,-5 5,-10 11,-10 14,0 69,-55 69,-69 0,-6 11,-11 25,-11 14,0 25,-5 25,-11 0,-6 6,-17 13,-24 29,-33 37,-45 37,-55 0,-5 5,-10 11,-10 12,0 69,-54 69,-66 0,-4 23,-28 50,-54 28,-26 50,-52 50,-59 0,-6 4,-11 8,-11 10,0 92,-76 92,-85 0,-6 8,-16 37,-47 22,-23 42,-38 53,-38 5,0 10,-7 10,-15 0,-8 41,-54 90,-103 50,-49 90,-94 90,-101 0,-6 7,-11 15,-11 8,0 15,-5 15,-11 0,-6 6,-17 14,-25 8,-8 19,-14 25,-14 6,0 11,-5 11,-11 0,-6 6,-17 14,-25 8,-8 19,-14 25,-14 6,0 11,-7 11,-15 0,-8 4,-15 9,-15 5,0 13,-10 17,-22 8,-26 28,-48 43,-48 6,0 11,-7 11,-15 0,-8 5,-15 11,-15 6,0 17,-6 25,-14 8,-8 14,-19 14,-25 0,-6 5,-11 11,-11 6,0 17,-6 25,-14 8,-8 14,-19 14,-25 0,-6 7,-11 15,-11 8,0 15,-5 15,-10 0,-11 56,-70 66,-70 7,0 34,-27 34,-34 0,-11 158,-166 169,-166 6,0 11,-5 11,-10 0,-6 23,-33 50,-60 28,-27 50,-52 50,-56 0,-10 28,-34 39,-34 6,0 11,-5 11,-11 0,-10 6,-18 37,-51 22,-23 42,-38 53,-38 5,0 10,-5 10,-10 0,-14 11,-27 102,-118 91,-91 104,-102 118,-102 5,0 10,-5 10,-11 0,-14 25,-39 39,-39 6,0 11,-5 11,-10 0,-12 10,-25 53,-70 15,-15 27,-33 27,-39 0,-6 11,-11 25,-11 16,0 25,-6 25,-16 0,-8 41,-55 90,-103 50,-49 90,-94 90,-100 0,-6 5,-11 11,-11 14,0 39,-25 39,-39 0,-6 5,-11 11,-11 6,0 28,-17 49,-37 53,-52 67,-63 80,-63 5,0 10,-7 10,-15 0,-8 7,-15 15,-15 9,0 15,-9 15,-25 0,-14 5,-25 11,-25 14,0 89,-76 89,-90 0,-5 5,-10 11,-10 14,0 69,-55 69,-69 0,-6 5,-11 10,-11 14,0 90,-75 90,-89 0,-6 5,-11 11,-11 14,0 39,-25 39,-39 0,-6 11,-11 25,-11 15,0 25,-6 25,-15 0,-8 18,-32 40,-54 22,-22 40,-44 40,-50 0,-6 5,-11 11,-11 6,0 28,-18 50,-40 22,-22 44,-40 50,-40 11,0 39,-25 39,-35 0,-8 56,-65 65,-65 7,0 65,-59 65,-66 0,-7 27,-34 35,-34 3,0 16,-11 29,-25 13,-14 26,-25 30,-25 7,0 16,-7 48,-37 23,-22 38,-42 38,-53 0,-5 5,-10 11,-10 6,0 24,-12 39,-27 16,-16 35,-33 42,-40 23,-21 38,-42 38,-51 0,-6 9,-12 21,-15 11,-3 23,-15 26,-26 3,-12 11,-21 19,-21 7,0 31,-18 53,-40 22,-22 42,-40 46,-40 10,0 35,-28 35,-39 0,-6 5,-11 11,-11 6,0 40,-29 75,-65 36,-36 71,-65 79,-65 8,0 15,-7 15,-15 0,-8 4,-15 9,-15 5,0 36,-27 69,-60 34,-33 64,-60 67,-60 10,0 35,-28 35,-39 0,-6 7,-11 15,-11 8,0 15,-5 15,-11 0,-14 25,-39 39,-39 6,0 11,-7 11,-15 0,-8 5,-15 11,-15 14,0 39,-25 39,-39 0,-6 11,-11 25,-11 14,0 25,-5 25,-11 0,-14 25,-39 39,-39 6,0 11,-7 11,-15 0,-8 4,-15 9,-15 6,0 33,-22 62,-50 29,-27 58,-50 66,-50 7,0 13,-7 13,-15 0,-16 46,-65 61,-65 5,0 32,-23 59,-50 27,-27 52,-50 56,-50 10,0 34,-28 34,-39 0,-6 5,-11 11,-11 14,0 39,-25 39,-39 0,-6 5,-11 11,-11 6,0 17,-6 24,-13 33,-29 45,-37 55,-37 5,0 10,-7 10,-15 0,-8 5,-15 10,-15 11,0 70,-56 70,-66 0,-10 28,-34 39,-34 6,0 11,-7 11,-15 0,-8 5,-15 11,-15 6,0 26,-16 45,-35 18,-19 39,-35 45,-35 7,0 34,-22 60,-50 26,-27 53,-50 58,-50 6,0 11,-7 11,-15 0,-8 5,-15 11,-15 14,0 39,-25 39,-39 0,-6 5,-11 11,-11 6,0 24,-12 39,-28 45,-42 58,-52 70,-52 5,0 10,-4 10,-10 0,-5 7,-10 15,-10 8,0 15,-5 15,-11 0,-14 25,-39 39,-39 6,0 11,-7 11,-15 0,-9 9,-15 21,-15 22,0 49,-22 49,-39 0,-6 7,-11 15,-11 8,0 15,-7 15,-15 0,-8 5,-15 11,-15 6,0 17,-6 24,-12 33,-30 45,-38 55,-38 5,0 10,-4 10,-10 0,-5 7,-10 15,-10 8,0 15,-4 15,-9 0,-5 10,-13 23,-17 12,-4 32,-17 44,-30 12,-13 27,-24 33,-24 6,0 21,-11 34,-25 13,-14 26,-25 30,-25 4,0 14,-6 21,-13 26,-23 40,-32 78,-52 20,-11 37,-23 37,-27 0,-5 7,-8 15,-8 8,0 15,-7 15,-15 0,-9 9,-15 21,-15 22,0 49,-22 49,-39 0,-6 7,-11 15,-11 8,0 15,-4 15,-10 0,-5 6,-10 14,-10 8,0 21,-6 28,-12 7,-7 30,-22 51,-32 20,-11 37,-23 37,-28 0,-4 11,-8 25,-8 16,0 25,-6 25,-15 0,-9 9,-15 21,-15 12,0 32,-11 45,-25 13,-14 32,-25 44,-25 11,0 20,-4 20,-9 0,-4 21,-11 47,-14 26,-3 49,-10 51,-16 2,-6 29,-11 63,-11 32,0 59,-4 59,-9 0,-5 29,-13 65,-16 36,-4 65,-11 65,-16 0,-5 11,-9 25,-9 14,0 25,4 25,9 0,5 14,12 30,16 17,4 30,11 30,16 0,5 11,9 25,9 20,0 25,5 25,25 0,14 5,25 10,25 6,0 10,27 10,60 0,33 -4,60 -10,60 -5,0 -10,5 -10,11 0,13 -85,99 -97,99 -5,0 -20,11 -35,25 -15,14 -32,25 -38,25 -5,0 -10,5 -10,11 0,13 -25,39 -38,39 -6,0 -12,7 -16,15 -3,8 -15,15 -26,15 -11,0 -20,7 -20,15 0,8 -7,15 -15,15 -8,0 -15,5 -15,10 0,6 -5,10 -11,10 -6,0 -17,6 -24,13 -33,29 -45,37 -55,37 -5,0 -10,4 -10,10 0,5 -11,12 -25,16 -14,3 -25,10 -25,15 0,5 -7,9 -15,9 -8,0 -15,4 -15,9 0,5 -10,13 -22,17 -26,8 -48,28 -48,43 0,6 -7,11 -15,11 -8,0 -15,4 -15,9 0,5 -11,12 -25,15 -14,4 -25,11 -25,16 0,6 -11,10 -25,10 -16,0 -25,6 -25,15 0,8 -7,15 -15,15 -8,0 -15,5 -15,10 0,6 -7,10 -15,10 -8,0 -15,4 -15,9 0,5 -10,13 -22,17 -12,3 -28,12 -35,18 -30,27 -43,36 -48,36 -10,0 -35,28 -35,39 0,6 -7,11 -15,11 -8,0 -15,4 -15,9 0,5 -11,12 -25,15 -14,4 -25,11 -25,16 0,6 -7,10 -15,10 -8,0 -15,7 -15,15 0,8 -5,15 -11,15 -6,0 -17,6 -24,12 -33,30 -45,38 -55,38 -5,0 -10,5 -10,10 0,6 -7,10 -15,10 -8,0 -15,4 -15,9 0,5 -10,13 -22,17 -26,8 -48,28 -48,43 0,6 -5,11 -10,11 -6,0 -40,29 -77,65 -36,36 -70,65 -75,65 -5,0 -24,16 -42,35 -19,19 -38,35 -45,35 -6,0 -11,7 -11,15 0,8 -5,15 -11,15 -14,0 -39,25 -39,39 0,6 -11,11 -25,11 -16,0 -25,6 -25,15 0,8 -5,15 -11,15 -11,0 -39,25 -39,35 0,10 -28,35 -39,35 -6,0 -11,7 -11,15 0,8 -5,15 -11,15 -7,0 -26,16 -45,35 -18,19 -37,35 -43,35 -5,0 -39,29 -75,64 -35,35 -74,67 -85,71 -11,3 -23,15 -26,26 -4,10 -11,19 -16,19 -5,0 -9,7 -9,15 0,8 -5,15 -11,15 -10,0 -31,18 -109,93 -21,20 -41,37 -45,37 -4,0 -29,23 -56,50 -27,28 -51,50 -55,50 -7,0 -43,31 -71,62 -22,23 -42,38 -53,38 -5,0 -10,7 -10,15 0,8 -5,15 -11,15 -14,0 -39,25 -39,39 0,6 -7,11 -15,11 -8,0 -15,5 -15,11 0,11 -25,39 -35,39 -4,0 -24,17 -45,37 -20,21 -52,49 -70,63 -18,14 -80,71 -137,128 -57,56 -106,102 -109,102 -6,0 -24,15 -64,53 -15,15 -31,27 -35,27 -10,0 -35,28 -35,39 0,6 -5,11 -11,11 -6,0 -17,6 -25,14 -8,8 -14,19 -14,25 0,6 -7,11 -15,11 -8,0 -15,7 -15,15 0,8 -5,15 -11,15 -14,0 -39,25 -39,39 0,6 -5,11 -10,11 -6,0 -23,11 -38,25 -15,14 -30,25 -35,25 -4,0 -18,11 -31,25 -13,14 -28,25 -35,25 -6,0 -11,5 -11,10 0,13 -77,90 -90,90 -5,0 -10,5 -10,11 0,14 -25,39 -39,39 -6,0 -11,7 -11,15 0,8 -5,15 -11,15 -14,0 -39,25 -39,39 0,6 -5,11 -11,11 -14,0 -39,25 -39,39 0,6 -5,11 -11,11 -6,0 -17,6 -25,14 -8,8 -14,19 -14,25 0,6 -7,11 -15,11 -8,0 -15,7 -15,15 0,8 -7,15 -15,15 -14,0 -33,17 -75,67 -5,7 -10,17 -10,23 0,5 -11,10 -25,10 -14,0 -25,5 -25,11 0,6 -29,40 -65,75 -36,36 -65,71 -65,79 0,8 -7,15 -15,15 -9,0 -26,11 -39,25 -13,14 -28,25 -35,25 -6,0 -11,5 -11,11 0,6 -6,17 -14,25 -8,8 -19,14 -25,14 -6,0 -11,5 -11,11 0,6 -12,24 -27,39 -43,45 -53,58 -53,70 0,5 -11,10 -25,10 -14,0 -25,5 -25,11 0,6 -6,17 -14,25 -8,8 -19,14 -25,14 -6,0 -11,5 -11,11 0,6 -6,17 -14,25 -8,8 -19,14 -25,14 -6,0 -11,5 -11,11 0,6 -13,24 -29,40 -16,16 -34,29 -40,29 -6,0 -11,5 -11,11 0,6 -6,17 -14,25 -8,8 -19,14 -25,14 -6,0 -11,11 -11,25 0,14 -5,25 -11,25 -6,0 -17,6 -25,14 -8,8 -14,19 -14,25 0,6 -5,11 -10,11 -12,0 -25,10 -80,63 -22,21 -40,44 -40,52 0,8 -5,15 -11,15 -14,0 -39,25 -39,39 0,6 -5,11 -11,11 -6,0 -17,6 -25,14 -8,8 -14,19 -14,25 0,6 -5,11 -10,11 -14,0 -49,30 -107,92 -7,7 -18,18 -25,25 -23,22 -38,42 -38,53 0,5 -5,10 -11,10 -6,0 -17,6 -25,14 -8,8 -14,19 -14,25 0,6 -7,11 -15,11 -8,0 -24,11 -37,25 -13,13 -35,38 -50,54 -16,16 -28,35 -28,40 0,6 -5,11 -11,11 -6,0 -17,6 -25,14 -8,8 -14,19 -14,25 0,6 -5,11 -11,11 -6,0 -17,6 -25,14 -8,8 -14,19 -14,25 0,6 -5,11 -11,11 -11,0 -69,54 -69,65 0,10 -28,35 -39,35 -6,0 -11,5 -11,11 0,6 -13,24 -29,40 -16,16 -34,29 -40,29 -6,0 -11,5 -11,10 0,6 -38,49 -85,95 -47,47 -85,90 -85,95 0,6 -7,10 -15,10 -8,0 -15,5 -15,11 0,6 -6,17 -14,25 -8,8 -19,14 -25,14 -6,0 -11,5 -11,10 0,12 -10,24 -62,79 -21,21 -38,44 -38,50 0,6 -5,11 -11,11 -6,0 -24,13 -40,29 -16,16 -29,34 -29,40 0,6 -5,11 -11,11 -6,0 -17,6 -25,14 -8,8 -14,19 -14,25 0,6 -5,11 -11,11 -6,0 -17,6 -25,14 -8,8 -14,19 -14,25 0,6 -4,11 -10,11 -5,0 -12,11 -16,25 -4,16 -13,25 -25,25 -11,0 -21,9 -25,24 -3,15 -15,27 -30,30 -15,4 -24,14 -24,26 0,11 -7,20 -15,20 -8,0 -15,5 -15,11 0,14 -25,39 -39,39 -6,0 -11,4 -11,10 0,5 -49,59 -110,120 -60,61 -110,115 -110,120 0,6 -4,10 -10,10 -13,0 -70,57 -70,69 0,6 -18,28 -40,50 -22,22 -40,44 -40,50 0,6 -5,11 -11,11 -13,0 -139,126 -139,140 0,5 -7,10 -15,10 -8,0 -15,5 -15,11 0,14 -25,39 -39,39 -6,0 -11,5 -11,11 0,14 -25,39 -39,39 -6,0 -11,7 -11,15 0,8 -5,15 -11,15 -6,0 -17,6 -25,14 -8,8 -14,19 -14,25 0,6 -5,11 -11,11 -11,0 -69,54 -69,65 0,3 -24,31 -52,60 -61,62 -78,82 -78,89 0,3 -56,62 -125,130 -69,68 -125,127 -125,131 0,11 -108,115 -119,115 -6,0 -11,5 -11,11 0,6 -6,17 -12,24 -30,33 -38,45 -38,55 0,5 -5,10 -11,10 -11,0 -69,54 -69,64 0,3 -56,63 -125,132 -69,70 -125,132 -125,138 0,6 -18,27 -40,46 -22,19 -40,39 -40,43 0,5 -24,33 -52,62 -63,65 -78,82 -78,91 0,3 -34,39 -75,79 -41,41 -75,77 -75,82 0,5 -18,28 -40,52 -22,23 -40,45 -40,48 0,9 -29,33 -39,33 -6,0 -11,11 -11,25 0,14 -5,25 -11,25 -14,0 -39,25 -39,39 0,6 -7,11 -15,11 -8,0 -15,5 -15,11 0,14 -25,39 -39,39 -6,0 -11,5 -11,11 0,6 -16,25 -35,43 -19,19 -35,38 -35,45 0,6 -7,11 -15,11 -8,0 -15,7 -15,15 0,9 -11,26 -25,39 -14,13 -25,28 -25,35 0,6 -7,11 -15,11 -8,0 -15,5 -15,10 0,11 -15,31 -38,53 -37,34 -62,63 -62,70 0,5 -23,31 -50,58 -27,27 -50,51 -50,54 0,7 -15,25 -62,75 -21,22 -38,44 -38,50 0,5 -7,10 -15,10 -8,0 -15,5 -15,11 0,6 -34,44 -75,85 -41,41 -75,79 -75,86 0,6 -18,28 -40,49 -22,21 -40,41 -40,44 0,4 -6,13 -12,20 -30,33 -38,45 -38,55 0,5 -5,10 -11,10 -11,0 -39,24 -39,34 0,10 -59,66 -70,66 -5,0 -10,5 -10,11 0,7 -11,22 -25,35 -14,13 -25,30 -25,39 0,8 -7,15 -15,15 -8,0 -15,5 -15,10 0,6 -27,36 -60,68 -33,32 -60,64 -60,70 0,7 -4,12 -10,12 -5,0 -12,11 -16,25 -3,14 -11,25 -16,25 -11,0 -38,25 -38,36 0,4 -11,17 -25,30 -14,13 -25,27 -25,32 0,5 -10,14 -23,21 -13,7 -32,26 -42,43 -10,17 -33,46 -52,64 -18,18 -33,37 -33,43 0,6 -7,11 -15,11 -8,0 -15,5 -15,11 0,14 -25,39 -39,39 -6,0 -11,5 -11,11 0,6 -6,17 -12,24 -30,33 -38,45 -38,53 0,6 -11,13 -24,16 -14,3 -27,15 -31,25 -3,10 -21,35 -40,56 -19,20 -35,39 -35,41 0,10 -28,34 -39,34 -6,0 -11,11 -11,25 0,14 -5,25 -11,25 -14,0 -39,25 -39,39 0,6 -5,11 -11,11 -14,0 -39,25 -39,39 0,6 -7,11 -15,11 -8,0 -15,5 -15,11 0,14 -25,39 -39,39 -6,0 -11,7 -11,15 0,8 -4,15 -9,15 -5,0 -13,10 -17,22 -8,26 -28,48 -43,48 -6,0 -11,5 -11,11 0,7 -16,26 -35,45 -19,18 -35,37 -35,43 0,6 -18,28 -40,50 -22,22 -40,42 -40,46 0,10 -28,35 -39,35 -6,0 -11,7 -11,15 0,8 -7,15 -15,15 -8,0 -15,5 -15,11 0,6 -6,17 -13,24 -27,31 -37,44 -37,51 0,4 -16,21 -35,40 -19,18 -35,37 -35,43 0,6 -7,11 -15,11 -8,0 -15,5 -15,11 0,14 -25,39 -39,39 -6,0 -11,5 -11,10 0,10 -8,22 -37,55 -7,7 -13,18 -13,24 0,6 -5,11 -11,11 -14,0 -39,25 -39,39 0,6 -7,11 -15,11 -8,0 -15,5 -15,11 0,14 -25,39 -39,39 -6,0 -11,11 -11,25 0,16 -6,25 -15,25 -8,0 -15,5 -15,11 0,6 -16,25 -35,43 -19,19 -35,37 -35,40 0,11 -27,36 -39,36 -6,0 -11,7 -11,15 0,8 -7,15 -15,15 -8,0 -15,5 -15,11 0,6 -6,17 -12,24 -30,33 -38,45 -38,55 0,5 -5,10 -11,10 -11,0 -39,24 -39,34 0,2 -16,21 -35,41 -19,21 -37,46 -40,56 -4,10 -11,19 -16,19 -5,0 -9,7 -9,15 0,8 -5,15 -11,15 -11,0 -119,104 -119,115 0,4 -12,20 -27,35 -39,41 -53,58 -53,66 0,3 -22,28 -50,55 -27,27 -50,51 -50,55 0,10 -28,34 -39,34 -6,0 -11,6 -11,13 0,7 -11,24 -25,39 -14,15 -25,32 -25,38 0,5 -7,10 -15,10 -8,0 -15,5 -15,11 0,14 -25,39 -39,39 -6,0 -11,5 -11,11 0,6 -17,28 -37,49 -47,48 -63,67 -63,75 0,3 -11,16 -25,29 -14,13 -25,26 -25,30 0,4 -12,21 -27,36 -16,16 -33,35 -40,42 -7,7 -18,18 -25,25 -23,22 -38,42 -38,53 0,5 -11,10 -25,10 -20,0 -25,5 -25,25 0,16 -6,25 -15,25 -8,0 -15,4 -15,10 0,5 -29,39 -65,75 -36,36 -65,71 -65,76 0,14 -26,39 -39,39 -6,0 -11,5 -11,11 0,6 -16,25 -35,43 -19,19 -35,38 -35,45 0,6 -5,11 -11,11 -14,0 -39,25 -39,39 0,6 -7,11 -15,11 -8,0 -15,7 -15,15 0,9 -11,26 -25,39 -14,13 -25,28 -25,35 0,6 -7,11 -15,11 -8,0 -15,4 -15,10 0,5 -11,12 -25,16 -16,4 -25,13 -25,26 0,21 -22,48 -39,48 -6,0 -11,5 -11,11 0,14 -25,39 -39,39 -6,0 -11,5 -11,11 0,6 -22,33 -50,60 -27,27 -50,53 -50,57 0,5 -22,32 -50,61 -27,29 -50,56 -50,62 0,5 -7,9 -15,9 -8,0 -15,5 -15,11 0,14 -25,39 -39,39 -6,0 -11,5 -11,11 0,14 -25,39 -39,39 -6,0 -11,11 -11,25 0,16 -6,25 -15,25 -8,0 -15,4 -15,10 0,5 -11,12 -25,16 -18,4 -25,13 -25,30 0,13 -5,24 -11,24 -11,0 -39,25 -39,35 0,4 -18,24 -40,46 -22,22 -40,46 -40,54 0,8 -4,15 -10,15 -5,0 -10,7 -10,15 0,8 -5,15 -11,15 -14,0 -39,25 -39,39 0,6 -7,11 -15,11 -8,0 -15,5 -15,11 0,14 -25,39 -39,39 -6,0 -11,5 -11,11 0,6 -18,28 -40,50 -22,22 -40,44 -40,49 0,6 -34,44 -75,85 -41,42 -75,82 -75,90 0,8 -11,17 -25,21 -15,4 -25,13 -25,24 0,9 -11,26 -25,36 -14,10 -25,24 -25,31 0,7 -5,13 -11,13 -14,0 -89,76 -89,90 0,5 -7,10 -15,10 -8,0 -15,7 -15,15 0,8 -5,15 -10,15 -6,0 -22,11 -36,25 -14,14 -30,25 -36,25 -6,0 -25,16 -44,35 -18,19 -37,35 -43,35 -6,0 -11,7 -11,15 0,9 -9,15 -25,15 -14,0 -25,4 -25,9 0,5 -11,12 -25,15 -14,4 -25,11 -25,16 0,6 -18,10 -40,10 -29,0 -46,7 -65,25 -24,24 -25,32 -25,130 0,58 -4,105 -9,105 -5,0 -11,28 -13,62 -3,35 -10,64 -16,66 -9,3 -12,57 -12,192 0,108 -4,190 -9,192 -6,2 -13,54 -17,116 -4,61 -11,112 -15,112 -5,0 -9,51 -9,114 0,73 -4,116 -11,118 -6,2 -13,41 -16,88 -3,47 -9,87 -13,90 -4,3 -10,52 -13,110 -3,58 -10,118 -16,133 -6,16 -11,71 -11,123 0,56 -4,94 -10,94 -5,0 -10,7 -10,15 0,8 5,15 10,15 6,0 10,9 10,20 0,11 5,20 10,20 6,0 10,-4 10,-10 0,-5 6,-10 14,-10 8,0 17,-11 20,-25 4,-14 11,-25 16,-25 6,0 10,-5 10,-11 0,-6 6,-17 13,-24 29,-33 37,-45 37,-55 0,-5 7,-10 15,-10 8,0 15,-5 15,-11 0,-15 39,-49 56,-49 7,0 16,-9 19,-20 3,-11 11,-20 16,-20 5,0 9,-7 9,-15 0,-8 6,-15 13,-15 7,0 24,-11 39,-25 15,-14 32,-25 38,-25 5,0 10,-5 10,-11 0,-20 108,-119 130,-119 12,0 28,-7 36,-15 9,-8 26,-15 40,-15 13,0 24,-4 24,-10 0,-5 5,-10 11,-10 14,0 39,25 39,39 0,21 20,11 26,-14 6,-24 44,-37 44,-15 0,6 6,10 14,10 8,0 17,11 20,25 4,15 16,27 31,31 27,7 34,24 10,24 -8,0 -15,7 -15,16 0,13 7,15 38,11 45,-8 76,7 52,24 -11,8 -12,12 -2,16 14,6 17,63 2,63 -5,0 -10,11 -10,25 0,26 15,34 23,13 2,-8 8,-9 13,-4 5,5 4,11 -3,13 -7,3 -13,20 -13,40 0,34 -18,63 -39,63 -6,0 -11,11 -11,25 0,16 -6,25 -15,25 -8,0 -15,5 -15,11 0,14 -25,39 -39,39 -6,0 -11,7 -11,15 0,9 -9,15 -25,15 -14,0 -25,5 -25,11 0,14 -25,39 -39,39 -6,0 -11,5 -11,11 0,14 -25,39 -39,39 -6,0 -11,5 -11,11 0,14 -25,39 -39,39 -6,0 -11,7 -11,15 0,8 -4,15 -10,15 -5,0 -12,11 -16,25 -3,14 -11,25 -16,25 -11,0 -38,25 -38,36 0,4 -11,17 -25,30 -14,13 -25,30 -25,39 0,8 -4,15 -10,15 -5,0 -10,7 -10,15 0,8 -7,15 -15,15 -8,0 -15,7 -15,15 0,8 -4,15 -10,15 -5,0 -12,11 -16,25 -3,14 -10,25 -15,25 -5,0 -9,5 -9,11 0,6 -6,17 -12,24 -24,27 -33,40 -53,80 -11,22 -24,45 -30,52 -5,7 -16,19 -22,27 -7,8 -13,24 -13,36 0,11 -4,20 -9,20 -5,0 -12,11 -15,25 -4,14 -11,25 -16,25 -6,0 -10,7 -10,15 0,8 -7,15 -15,15 -18,0 -65,47 -65,65 0,9 -9,15 -21,15 -12,0 -32,11 -45,25 -13,14 -30,25 -39,25 -9,0 -23,7 -31,15 -9,8 -31,15 -50,15 -19,0 -34,5 -34,10 0,6 -30,10 -70,10 -38,0 -70,-4 -70,-9 z M 27430,4105 c 0,-8 -4,-15 -10,-15 -5,0 -10,7 -10,15 0,8 5,15 10,15 6,0 10,-7 10,-15 z m 100,-20 c 0,-8 -4,-15 -10,-15 -5,0 -10,7 -10,15 0,8 5,15 10,15 6,0 10,-7 10,-15 z" />
      <path
         id="path4"
         d="m 3560,22210 c 0,-5 -12,-10 -27,-10 -16,-1 -39,-7 -53,-15 -14,-8 -37,-14 -52,-15 -16,0 -28,-4 -28,-10 0,-5 -16,-12 -35,-16 -19,-3 -35,-10 -35,-15 0,-5 -12,-9 -26,-9 -26,0 -54,-20 -54,-39 0,-6 -11,-11 -25,-11 -14,0 -28,-7 -31,-15 -4,-8 -14,-15 -24,-15 -10,0 -21,-9 -25,-19 -3,-11 -15,-23 -26,-26 -12,-4 -19,-15 -19,-31 0,-15 -6,-24 -15,-24 -8,0 -15,-7 -15,-15 0,-8 -4,-15 -9,-15 -5,0 -13,-10 -17,-22 -3,-12 -17,-33 -30,-47 -13,-14 -24,-31 -24,-38 0,-7 -4,-13 -10,-13 -5,0 -10,-11 -10,-25 0,-14 -7,-28 -15,-31 -10,-4 -15,-21 -15,-54 0,-27 -5,-50 -10,-52 -16,-5 -18,-220 -2,-225 8,-3 12,-26 12,-65 0,-39 5,-64 15,-74 8,-9 15,-30 15,-49 0,-18 3,-35 8,-37 4,-1 16,-21 27,-43 11,-22 30,-50 43,-63 12,-13 22,-29 22,-37 0,-8 4,-15 8,-15 5,0 15,-11 22,-25 7,-14 19,-25 26,-25 8,0 16,-11 20,-25 4,-15 13,-25 24,-25 9,0 29,-11 43,-24 15,-14 40,-33 57,-42 16,-10 30,-21 30,-25 0,-4 11,-10 25,-13 14,-4 25,-11 25,-16 0,-6 11,-10 25,-10 14,0 25,-4 25,-9 0,-5 14,-12 30,-16 17,-4 30,-11 30,-16 0,-5 38,-9 85,-9 50,0 85,-4 85,-10 0,-5 11,-10 25,-10 14,0 25,5 25,10 0,6 57,10 150,10 93,0 150,4 150,10 0,6 7,10 15,10 9,0 18,7 21,15 4,8 17,15 30,15 13,0 34,11 48,25 14,14 30,25 36,25 5,0 10,7 10,15 0,8 4,15 9,15 5,0 13,10 17,23 4,12 11,25 16,28 15,10 15,152 1,156 -7,3 -13,13 -13,23 0,9 -7,23 -15,30 -8,7 -15,19 -15,27 0,15 -23,43 -36,43 -4,0 -17,11 -30,25 -15,16 -34,25 -53,25 -16,0 -31,5 -33,12 -2,6 -31,13 -64,16 -46,3 -64,0 -76,-12 -9,-9 -32,-16 -51,-16 -20,0 -37,-6 -39,-12 -3,-9 -30,-13 -88,-13 -58,0 -85,4 -87,13 -3,6 -16,12 -29,12 -15,0 -24,6 -24,15 0,8 -7,15 -15,15 -8,0 -15,7 -15,15 0,8 -4,15 -9,15 -5,0 -12,16 -15,35 -4,19 -11,35 -16,35 -6,0 -10,11 -10,25 0,14 -4,25 -10,25 -5,0 -10,23 -10,50 0,28 5,50 10,50 6,0 10,18 10,40 0,29 4,40 15,40 9,0 15,9 15,25 0,18 5,25 19,25 10,0 21,7 25,15 3,8 17,15 31,15 14,0 25,5 25,10 0,6 32,10 75,10 43,0 75,-4 75,-10 0,-5 7,-10 15,-10 8,0 15,-7 15,-15 0,-8 5,-15 11,-15 14,0 39,-25 39,-39 0,-6 7,-11 15,-11 8,0 15,-4 15,-10 0,-5 11,-12 25,-16 14,-3 25,-10 25,-14 0,-4 15,-11 33,-15 99,-22 111,-23 124,-9 8,8 23,14 34,14 11,0 30,11 43,25 13,14 28,25 35,25 6,0 11,5 11,11 0,14 25,39 39,39 6,0 11,11 11,25 0,14 5,25 10,25 6,0 10,11 10,25 0,14 7,28 15,31 17,7 20,41 4,46 -6,2 -13,25 -16,51 -3,26 -10,47 -14,47 -5,0 -9,8 -9,18 0,9 -11,29 -25,44 -14,15 -25,32 -25,38 0,5 -5,10 -10,10 -6,0 -33,23 -60,50 -27,28 -59,50 -70,50 -11,0 -20,4 -20,10 0,5 -11,12 -25,16 -14,3 -25,10 -25,15 0,5 -15,9 -34,9 -21,0 -36,6 -40,15 -3,9 -19,15 -41,15 -19,0 -35,5 -35,10 0,6 -37,10 -90,10 -53,0 -90,-4 -90,-10 0,-5 -11,-10 -25,-10 -14,0 -25,5 -25,10 0,6 -4,10 -10,10 -5,0 -10,-4 -10,-10 z" />
      <path
         id="path6"
         d="m 27115,4130 c -11,-5 -44,-9 -72,-9 -29,-1 -53,-5 -53,-11 0,-6 -30,-10 -70,-10 -40,0 -70,4 -70,10 0,6 -18,10 -40,10 -22,0 -40,-4 -40,-10 0,-5 -18,-13 -40,-16 -22,-4 -40,-10 -40,-15 0,-5 -5,-9 -11,-9 -14,0 -39,-25 -39,-39 0,-6 -11,-11 -25,-11 -14,0 -25,-4 -25,-10 0,-5 -11,-12 -25,-16 -14,-3 -25,-10 -25,-15 0,-5 -17,-9 -38,-9 -21,0 -47,-7 -58,-15 -10,-8 -40,-15 -66,-15 -27,0 -48,-4 -48,-10 0,-5 -18,-10 -39,-10 -22,0 -46,-7 -55,-15 -8,-8 -28,-15 -45,-15 -17,0 -31,-4 -31,-10 0,-5 -13,-10 -29,-10 -16,0 -36,-7 -45,-15 -8,-8 -19,-15 -25,-15 -6,0 -11,-4 -11,-10 0,-5 -6,-10 -13,-10 -20,0 -53,-31 -61,-57 -4,-13 -12,-23 -17,-23 -5,0 -9,-11 -9,-25 0,-14 -4,-25 -10,-25 -5,0 -10,-18 -10,-40 0,-22 5,-40 10,-40 6,0 10,-14 10,-30 0,-22 10,-40 36,-65 20,-19 42,-35 50,-35 8,0 14,-4 14,-9 0,-5 11,-12 25,-15 14,-4 25,-11 25,-16 0,-6 6,-10 14,-10 8,0 17,-6 20,-12 5,-10 7,-10 12,0 7,14 34,16 34,2 0,-5 23,-10 50,-10 28,0 50,5 50,10 0,6 30,10 69,10 38,0 87,7 111,15 30,11 47,12 61,5 18,-10 19,-24 19,-213 -1,-137 -5,-223 -15,-267 -20,-92 -20,-326 0,-334 8,-3 15,-15 15,-26 0,-11 4,-20 9,-20 5,0 12,-11 15,-25 4,-14 11,-25 16,-25 6,0 10,-7 10,-15 0,-8 7,-15 15,-15 8,0 15,-4 15,-10 0,-5 11,-12 25,-16 14,-3 25,-10 25,-15 0,-5 45,-9 100,-9 64,0 100,4 100,11 0,13 25,39 38,39 5,0 13,11 16,25 4,16 13,25 26,25 11,0 20,5 20,11 0,6 7,17 15,25 8,9 15,29 15,45 0,16 4,29 9,29 4,0 11,44 13,97 3,59 10,99 17,101 8,3 11,81 11,268 0,169 4,264 10,264 6,0 10,20 10,45 0,25 -4,45 -10,45 -5,0 -10,20 -10,45 0,25 4,45 9,45 5,0 11,17 14,38 5,29 14,41 42,56 19,11 35,23 35,28 0,4 7,8 15,8 8,0 15,7 15,15 0,8 5,15 11,15 14,0 39,25 39,39 0,6 5,11 11,11 14,0 39,25 39,39 0,6 4,11 9,11 5,0 12,11 15,25 4,14 11,25 16,25 6,0 10,23 10,50 0,28 -4,50 -10,50 -14,0 -12,28 2,32 15,5 -58,78 -78,78 -8,0 -14,4 -14,9 0,4 -15,11 -32,14 -18,3 -40,8 -48,10 -8,3 -24,2 -35,-3 z" />
      <path
         id="path8"
         d="m 4370,4110 c 0,-5 -11,-10 -24,-10 -14,0 -31,-7 -40,-15 -9,-9 -34,-15 -65,-15 -28,0 -51,-4 -51,-10 0,-5 -16,-12 -35,-16 -19,-3 -35,-10 -35,-15 0,-5 -7,-9 -15,-9 -8,0 -15,-4 -15,-9 0,-5 -10,-13 -22,-17 -12,-3 -36,-21 -52,-39 -17,-18 -41,-35 -53,-39 -13,-4 -23,-12 -23,-17 0,-5 -7,-9 -15,-9 -8,0 -15,-7 -15,-15 0,-8 -4,-15 -10,-15 -5,0 -10,-7 -10,-17 0,-9 -18,-33 -40,-54 -22,-21 -40,-41 -40,-44 0,-4 -6,-13 -12,-20 -29,-32 -36,-43 -42,-63 -4,-12 -12,-22 -17,-22 -5,0 -9,-11 -9,-25 0,-14 -4,-25 -10,-25 -5,0 -10,-11 -10,-25 0,-14 -7,-28 -15,-31 -9,-4 -15,-19 -15,-40 0,-19 -4,-34 -9,-34 -5,0 -12,-11 -15,-25 -4,-14 -11,-25 -16,-25 -6,0 -10,-25 -10,-55 0,-30 -4,-55 -9,-55 -5,0 -12,-40 -16,-90 -4,-49 -11,-90 -16,-90 -14,0 -11,-97 4,-104 10,-5 10,-7 0,-12 -15,-7 -17,-61 -3,-66 5,-1 13,-42 16,-90 4,-49 11,-88 15,-88 5,0 9,-22 9,-50 0,-27 4,-50 10,-50 5,0 12,-11 16,-25 3,-14 10,-25 15,-25 5,0 9,-17 9,-39 0,-22 6,-44 15,-51 8,-7 15,-19 15,-26 0,-8 5,-14 10,-14 6,0 10,-9 10,-20 0,-11 7,-23 15,-26 8,-4 15,-15 15,-25 0,-10 5,-19 10,-19 6,0 10,-7 10,-15 0,-8 7,-15 15,-15 9,0 15,-9 15,-25 0,-14 5,-25 10,-25 6,0 10,-7 10,-15 0,-8 7,-15 15,-15 8,0 15,-5 15,-11 0,-14 25,-39 39,-39 6,0 11,-6 11,-14 0,-17 65,-86 80,-86 6,0 21,-11 33,-24 12,-13 32,-26 45,-30 12,-4 22,-12 22,-17 0,-5 11,-9 24,-9 13,0 26,-5 28,-11 2,-6 25,-13 51,-16 26,-3 47,-10 47,-14 0,-13 258,-11 262,2 2,6 41,13 86,16 45,3 82,10 82,14 0,5 14,9 30,9 17,0 30,4 30,10 0,5 11,12 25,16 14,3 25,10 25,15 0,5 11,9 24,9 13,0 26,7 30,15 3,8 15,15 26,15 11,0 20,5 20,10 0,6 7,10 15,10 8,0 15,7 15,15 0,8 5,15 11,15 6,0 17,6 24,13 33,29 45,37 55,37 5,0 10,5 10,11 0,11 24,39 34,39 10,0 66,59 66,70 0,5 4,10 9,10 5,0 13,10 17,22 3,12 13,28 20,36 8,7 14,20 14,28 0,8 5,14 10,14 6,0 10,11 10,25 0,14 4,25 9,25 5,0 12,11 15,25 4,14 11,25 16,25 6,0 10,11 10,25 0,14 4,25 10,25 5,0 13,18 16,40 4,22 10,40 15,40 5,0 9,15 9,33 0,17 7,41 15,51 9,11 15,41 15,68 0,26 4,48 9,48 7,0 21,120 23,205 2,69 -16,265 -24,265 -4,0 -8,19 -8,43 0,23 -7,51 -15,61 -9,11 -15,41 -15,69 0,30 -6,54 -15,63 -8,9 -15,26 -15,40 0,13 -4,24 -10,24 -5,0 -10,9 -10,20 0,12 -11,31 -25,44 -14,13 -25,33 -25,45 0,12 -6,21 -15,21 -8,0 -15,7 -15,15 0,8 -4,15 -9,15 -5,0 -12,8 -16,19 -7,22 -78,101 -92,101 -5,0 -15,11 -23,24 -7,14 -23,27 -36,30 -13,4 -24,11 -24,16 0,6 -7,10 -15,10 -8,0 -15,4 -15,10 0,5 -16,12 -35,16 -19,3 -35,10 -35,15 0,5 -18,9 -39,9 -22,0 -41,4 -43,9 -1,4 -13,12 -25,15 -17,6 -23,3 -23,-8 0,-13 -14,-16 -80,-16 -44,0 -80,4 -80,9 0,4 -27,11 -60,15 -33,4 -60,11 -60,16 0,6 -18,10 -40,10 -22,0 -40,-4 -40,-10 z m 294,-525 c 13,-14 33,-25 45,-25 12,0 21,-6 21,-15 0,-8 4,-15 10,-15 5,0 12,-11 16,-25 3,-14 10,-25 15,-25 5,0 9,-11 9,-24 0,-13 5,-26 11,-28 5,-2 13,-24 16,-48 3,-25 10,-48 15,-51 16,-10 15,-382 0,-387 -6,-2 -12,-14 -12,-26 0,-12 -7,-31 -15,-42 -8,-10 -15,-38 -15,-61 0,-24 -4,-43 -9,-43 -5,0 -12,-13 -16,-30 -4,-16 -11,-30 -16,-30 -5,0 -9,-11 -9,-25 0,-14 -5,-25 -11,-25 -14,0 -39,-25 -39,-39 0,-6 -6,-11 -13,-11 -7,0 -21,-11 -31,-25 -10,-14 -27,-25 -37,-25 -9,0 -19,-3 -21,-7 -7,-18 -72,-43 -109,-43 -21,0 -39,-4 -39,-10 0,-5 -13,-10 -30,-10 -16,0 -30,5 -30,10 0,6 -9,10 -21,10 -21,0 -79,50 -79,69 0,6 -5,11 -11,11 -14,0 -39,25 -39,39 0,6 -4,11 -10,11 -5,0 -12,11 -16,25 -3,14 -10,25 -15,25 -5,0 -9,10 -9,23 0,13 -7,32 -15,43 -8,10 -15,29 -15,41 0,12 -5,23 -11,25 -8,3 -12,60 -13,191 -1,157 1,189 14,197 13,9 13,11 0,21 -11,8 -12,12 -2,16 6,2 12,13 12,23 0,20 30,83 43,88 4,2 7,10 7,17 0,16 29,73 48,93 6,7 12,18 12,23 0,14 26,39 39,39 6,0 24,14 39,30 16,17 34,30 41,30 6,0 11,5 11,10 0,6 50,10 130,10 127,0 132,-1 154,-25 z" />
      <path
         id="path10"
         d="m 27610,4060 c 0,-5 11,-10 25,-10 14,0 25,5 25,10 0,6 -11,10 -25,10 -14,0 -25,-4 -25,-10 z" />
    </g>
  </g>
</svg>
