<?xml version="1.0" encoding="UTF-8" standalone="no"?>
<svg
   xmlns:dc="http://purl.org/dc/elements/1.1/"
   xmlns:cc="http://creativecommons.org/ns#"
   xmlns:rdf="http://www.w3.org/1999/02/22-rdf-syntax-ns#"
   xmlns:svg="http://www.w3.org/2000/svg"
   xmlns="http://www.w3.org/2000/svg"
   xmlns:sodipodi="http://sodipodi.sourceforge.net/DTD/sodipodi-0.dtd"
   xmlns:inkscape="http://www.inkscape.org/namespaces/inkscape"
   inkscape:version="1.0 (4035a4fb49, 2020-05-01)"
   sodipodi:docname="1st-order.svg"
   id="svg18"
   preserveAspectRatio="xMidYMid meet"
   viewBox="0 0 2720 2720"
   height="2720pt"
   width="2720pt"
   version="1.0">
  <style
     id="style849"></style>
  <metadata
     id="metadata24">
    <rdf:RDF>
      <cc:Work
         rdf:about="">
        <dc:format>image/svg+xml</dc:format>
        <dc:type
           rdf:resource="http://purl.org/dc/dcmitype/StillImage" />
        <dc:title></dc:title>
      </cc:Work>
    </rdf:RDF>
  </metadata>
  <defs
     id="defs22" />
  <sodipodi:namedview
     inkscape:current-layer="svg18"
     inkscape:window-maximized="1"
     inkscape:window-y="-9"
     inkscape:window-x="-9"
     inkscape:cy="1079.6395"
     inkscape:cx="1986.6179"
     inkscape:zoom="0.1424991"
     showgrid="false"
     id="namedview20"
     inkscape:window-height="1051"
     inkscape:window-width="1920"
     inkscape:pageshadow="2"
     inkscape:pageopacity="0"
     guidetolerance="10"
     gridtolerance="10"
     objecttolerance="10"
     borderopacity="1"
     bordercolor="#666666"
     pagecolor="#ffffff" />
  <g
     transform="matrix(1.0158352,0,0,1.0158352,89.16776,209.83148)"
     id="g866">
    <circle
       r="1138.2427"
       cy="1266.9839"
       cx="1128.4745"
       id="path847"
       style="fill:#d9bdbd;fill-opacity:1;stroke:#e6e6e6;stroke-width:0.932482;stroke-opacity:0.177165" />
    <g
       transform="matrix(0.1,0,0,-0.1,0,2584)"
       fill="#000000"
       stroke="none"
       id="g16">
      <path
         d="m 3935,25673 c -55,-7 -122,-43 -168,-91 -51,-52 -67,-72 -67,-82 0,-5 -3,-10 -8,-10 -9,0 -32,-72 -32,-99 0,-11 -4,-23 -10,-26 -5,-3 -10,-19 -10,-36 0,-16 -10,-62 -21,-102 -12,-39 -24,-87 -26,-105 -3,-18 -9,-35 -14,-38 -5,-3 -9,-23 -9,-45 0,-21 -4,-39 -10,-39 -6,0 -10,-40 -10,-100 0,-60 -4,-100 -10,-100 -6,0 -10,-26 -10,-59 0,-33 -4,-63 -10,-66 -5,-3 -10,-29 -10,-56 0,-28 -6,-71 -14,-97 -8,-26 -20,-80 -27,-119 -7,-40 -16,-73 -21,-73 -4,0 -8,-18 -8,-40 0,-22 -4,-40 -10,-40 -5,0 -10,-13 -10,-30 0,-16 -4,-30 -10,-30 -5,0 -10,-16 -10,-35 0,-19 -4,-35 -10,-35 -5,0 -10,-9 -10,-20 0,-10 -4,-29 -9,-42 -14,-35 -57,-158 -71,-205 -7,-24 -17,-43 -22,-43 -4,0 -8,-13 -8,-30 0,-16 -4,-30 -10,-30 -5,0 -10,-7 -10,-15 0,-8 -4,-23 -9,-33 -5,-9 -17,-37 -26,-62 -32,-86 -72,-161 -87,-168 -5,-2 -8,-12 -8,-22 0,-10 -4,-22 -10,-25 -13,-8 -13,-91 1,-116 33,-63 95,-119 130,-119 16,0 29,-4 29,-10 0,-5 18,-10 40,-10 22,0 40,5 40,10 0,6 9,10 21,10 28,0 97,74 126,136 9,19 20,34 25,34 4,0 8,11 8,25 0,14 5,25 10,25 6,0 10,9 10,20 0,11 5,20 10,20 6,0 10,13 10,28 0,16 11,52 25,80 14,29 25,56 25,62 0,5 9,25 20,45 11,20 20,42 20,50 0,24 24,95 32,95 5,0 8,11 8,25 0,14 5,25 10,25 6,0 10,13 10,28 0,15 4,32 8,38 5,5 14,29 21,54 7,25 24,79 37,121 13,42 24,84 24,93 0,9 5,16 10,16 6,0 10,27 10,60 0,33 4,60 10,60 6,0 10,16 10,35 0,19 5,35 10,35 6,0 10,23 10,51 0,29 5,69 10,90 6,22 15,58 21,81 6,24 15,85 20,138 15,165 21,200 30,200 5,0 9,9 9,20 0,11 5,20 10,20 6,0 10,-18 10,-40 0,-22 4,-40 9,-40 5,0 12,-30 14,-67 8,-94 24,-261 36,-368 16,-139 31,-1635 22,-2220 -2,-152 -23,-1192 -37,-1855 -3,-113 -7,-250 -10,-305 -3,-55 -7,-689 -10,-1410 -4,-996 -8,-1312 -17,-1318 -9,-7 -9,-10 1,-14 15,-6 18,-303 2,-303 -5,0 -10,-7 -10,-15 0,-8 5,-15 10,-15 7,0 10,-207 10,-600 0,-393 -3,-600 -10,-600 -6,0 -10,-43 -10,-110 0,-67 4,-110 10,-110 6,0 10,-22 10,-50 0,-27 -4,-50 -10,-50 -15,0 -13,-137 3,-143 10,-4 10,-6 0,-6 -15,-1 -18,-28 -4,-33 5,-1 11,-167 15,-368 3,-201 10,-547 15,-770 6,-223 12,-634 14,-915 7,-1000 21,-1755 38,-2040 6,-104 13,-394 15,-642 3,-287 8,-453 14,-453 6,0 10,-18 10,-40 0,-22 -4,-40 -10,-40 -16,0 -13,-497 3,-504 9,-5 9,-7 -1,-12 -14,-7 -16,-44 -2,-44 6,0 10,-93 10,-260 0,-160 4,-260 10,-260 5,0 11,-84 13,-207 3,-115 7,-226 10,-248 4,-22 11,-182 17,-355 6,-173 16,-369 21,-435 14,-159 41,-899 55,-1461 l 7,-282 -24,-8 c -24,-8 -165,-10 -1114,-18 -264,-2 -545,-9 -625,-15 -80,-6 -229,-11 -332,-11 -114,0 -189,-4 -193,-10 -4,-6 -55,-10 -121,-10 -69,0 -114,-4 -114,-10 0,-5 -25,-10 -55,-10 -30,0 -55,5 -55,10 0,6 -22,10 -48,10 -26,0 -52,4 -58,8 -22,20 -104,37 -169,36 -66,-1 -163,-32 -173,-56 -2,-4 -12,-8 -23,-8 -10,0 -19,-4 -19,-10 0,-5 -7,-10 -15,-10 -8,0 -15,-4 -15,-10 0,-5 -7,-10 -15,-10 -46,0 -122,-64 -146,-122 -7,-18 -18,-36 -23,-40 -8,-5 -7,-14 1,-28 7,-11 13,-26 13,-33 0,-21 76,-94 105,-101 14,-4 25,-11 25,-16 0,-6 33,-10 75,-10 41,0 75,3 75,8 0,4 21,16 46,26 57,23 180,24 274,2 73,-17 183,-19 250,-5 43,10 177,18 625,40 110,5 385,12 610,15 243,3 411,9 413,15 5,12 62,12 62,-1 0,-5 11,-10 25,-10 14,0 25,5 25,10 0,6 9,10 20,10 11,0 20,-4 20,-10 0,-5 14,-10 30,-10 17,0 30,5 30,10 0,6 102,10 286,10 283,0 287,0 306,-22 18,-21 19,-44 14,-778 -6,-878 -14,-1406 -21,-1470 -19,-172 -44,-665 -44,-901 -1,-165 3,-224 18,-295 19,-90 49,-174 63,-174 5,0 8,-8 8,-18 0,-25 82,-65 145,-70 46,-4 59,-1 83,19 16,13 38,30 49,38 26,17 49,108 37,147 -12,42 -9,764 4,1014 27,507 45,1935 29,2272 -5,103 -6,199 -3,213 6,24 9,25 91,25 50,0 85,4 85,10 0,15 57,12 63,-2 4,-10 7,-10 14,-1 7,9 70,13 238,13 127,0 266,6 309,12 62,9 81,9 84,0 4,-14 527,-18 536,-3 3,5 160,9 348,10 371,1 847,15 1023,31 61,5 162,9 225,9 109,0 966,13 1785,26 212,4 381,11 383,16 5,12 52,11 52,-1 0,-5 18,-10 40,-10 22,0 40,5 40,10 0,6 115,10 325,10 201,0 325,4 325,10 0,6 215,11 568,15 312,3 659,7 772,8 124,1 208,-2 212,-8 4,-6 20,-5 42,3 20,7 40,10 46,7 5,-3 81,-6 167,-6 885,3 1403,-5 1403,-19 0,-6 106,-10 280,-10 180,0 280,-4 280,-10 0,-6 50,-10 130,-10 80,0 130,4 130,10 0,6 18,10 40,10 22,0 40,-4 40,-9 0,-5 102,-12 228,-15 544,-16 678,-22 692,-28 8,-4 96,-9 195,-13 589,-21 686,-25 745,-35 36,-5 194,-10 353,-10 184,0 287,-4 287,-10 0,-5 9,-10 20,-10 11,0 20,5 20,10 0,6 20,10 45,10 25,0 45,-4 45,-10 0,-6 68,-10 185,-10 111,0 185,-4 185,-10 0,-5 69,-11 163,-14 204,-6 441,-21 454,-29 6,-4 95,-7 199,-8 104,-1 203,-6 219,-11 17,-5 89,-14 160,-19 72,-5 175,-14 230,-20 55,-6 168,-13 250,-15 87,-2 151,-8 153,-14 2,-6 59,-10 143,-10 81,0 139,-4 139,-9 0,-6 59,-12 133,-15 72,-3 197,-9 277,-15 195,-13 429,-27 700,-41 124,-6 240,-16 258,-21 24,-8 37,-7 47,1 10,8 29,8 71,1 32,-6 73,-11 91,-11 18,0 33,-4 33,-10 0,-6 88,-10 245,-10 157,0 245,-4 245,-10 0,-6 101,-10 283,-10 164,0 287,-4 293,-9 5,-6 86,-11 179,-12 94,-1 178,-5 187,-10 28,-15 454,-9 521,7 17,4 50,0 82,-11 50,-15 55,-19 55,-46 0,-22 -5,-29 -20,-29 -11,0 -20,-4 -20,-10 0,-5 -9,-10 -20,-10 -11,0 -20,-4 -20,-10 0,-5 -7,-10 -15,-10 -8,0 -15,-4 -15,-9 0,-5 -13,-14 -30,-21 -16,-7 -30,-16 -30,-21 0,-5 -18,-17 -40,-26 -22,-10 -40,-21 -40,-25 0,-5 -5,-8 -10,-8 -6,0 -36,-25 -68,-55 -31,-30 -62,-55 -67,-55 -6,0 -17,-10 -25,-22 -19,-29 -104,-120 -207,-224 -46,-46 -83,-90 -83,-98 0,-9 -4,-16 -10,-16 -5,0 -10,-7 -10,-15 0,-8 -3,-15 -8,-15 -28,0 -44,-158 -20,-203 14,-27 49,-61 77,-76 53,-29 166,-8 213,40 16,16 36,29 44,29 8,0 14,7 14,15 0,9 10,26 23,39 12,13 36,41 52,61 54,67 267,275 282,275 5,0 15,9 23,20 8,11 21,20 29,20 7,0 21,8 30,18 9,10 31,24 50,32 18,7 44,24 57,37 13,13 30,23 39,23 8,0 15,5 15,10 0,6 11,10 25,10 14,0 25,5 25,10 0,6 9,10 20,10 11,0 20,5 20,10 0,6 6,10 13,10 18,0 75,28 82,41 4,5 17,9 31,9 13,0 24,5 24,10 0,6 13,10 29,10 17,0 33,5 36,10 3,6 15,10 26,10 10,0 19,5 19,10 0,6 7,10 16,10 9,0 38,22 64,49 39,40 48,57 52,93 8,81 -5,121 -53,169 -51,51 -92,79 -114,79 -8,0 -15,5 -15,10 0,6 -9,10 -20,10 -11,0 -20,5 -20,10 0,6 -9,10 -19,10 -11,0 -23,5 -26,10 -3,6 -14,10 -22,10 -19,0 -166,71 -171,83 -2,4 -17,7 -33,7 -16,0 -29,5 -29,10 0,6 -13,10 -30,10 -16,0 -30,5 -30,10 0,6 -9,10 -19,10 -11,0 -23,4 -26,10 -3,5 -15,10 -25,10 -10,0 -20,3 -22,8 -1,4 -31,20 -65,36 -35,16 -63,33 -63,38 0,4 -11,8 -25,8 -14,0 -25,5 -25,10 0,6 -6,10 -14,10 -8,0 -16,3 -18,8 -1,4 -23,17 -48,29 -65,32 -103,55 -121,75 -9,10 -22,18 -28,18 -7,0 -23,11 -37,25 -14,14 -28,25 -32,25 -4,0 -20,11 -36,25 -16,14 -33,25 -37,25 -4,0 -19,11 -33,25 -14,14 -30,25 -36,25 -5,0 -10,5 -10,10 0,6 -5,10 -11,10 -6,0 -41,30 -78,68 -37,37 -80,76 -95,87 -16,11 -33,25 -40,30 -6,6 -24,17 -40,25 -39,20 -166,20 -190,0 -91,-77 -122,-134 -112,-204 4,-25 14,-52 22,-60 8,-8 14,-17 14,-21 0,-15 72,-75 90,-75 11,0 20,-4 20,-10 0,-5 5,-10 10,-10 6,0 36,-25 67,-55 31,-30 62,-55 68,-55 6,0 17,-9 25,-20 8,-11 18,-20 23,-20 13,0 57,-48 57,-63 0,-25 -31,-29 -140,-17 -58,6 -325,15 -595,21 -565,11 -677,16 -760,29 -33,5 -108,10 -167,10 -65,0 -108,4 -108,10 0,6 -85,10 -235,10 -136,0 -235,4 -235,9 0,5 -78,12 -172,15 -95,3 -231,10 -303,15 -71,6 -231,16 -355,25 -124,8 -283,19 -355,26 -292,25 -377,31 -525,36 -85,3 -156,10 -158,15 -2,5 -75,9 -163,9 -99,0 -159,4 -159,10 0,6 -49,10 -127,10 -69,0 -154,4 -187,9 -88,14 -780,39 -1570,57 -127,3 -234,8 -239,11 -9,6 -398,22 -724,30 -117,2 -213,9 -213,14 0,4 -147,10 -327,13 -430,5 -1108,22 -1203,30 -238,19 -639,23 -1530,16 -212,-2 -553,-3 -758,-2 -206,1 -377,0 -381,-2 -4,-3 -191,-5 -417,-6 -225,-1 -481,-6 -569,-11 -190,-11 -591,-18 -1465,-25 -400,-3 -646,-8 -648,-14 -5,-13 -32,-13 -32,0 0,15 -147,13 -153,-2 -4,-10 -8,-9 -16,2 -6,9 -11,10 -11,3 0,-8 -81,-13 -302,-17 -167,-3 -521,-10 -788,-15 -773,-16 -1979,-20 -1988,-7 -4,6 -10,144 -14,306 -12,509 -19,693 -28,762 -6,37 -10,137 -10,222 0,97 -4,156 -10,156 -6,0 -10,75 -10,205 0,119 -4,205 -9,205 -5,0 -12,66 -15,148 -5,132 -11,237 -30,512 -36,509 -62,1184 -71,1848 -4,239 -10,402 -16,402 -5,0 -9,116 -9,289 0,178 -4,291 -10,293 -6,2 -11,148 -14,373 -3,204 -8,478 -10,610 -3,132 -7,402 -10,600 -3,198 -7,482 -10,630 -3,149 -8,439 -11,645 -4,206 -11,409 -16,450 -9,69 -11,2510 -3,3225 2,154 6,550 9,880 3,330 10,737 15,905 6,168 13,379 15,470 4,153 18,250 37,250 4,0 8,-22 8,-50 0,-27 4,-50 9,-50 5,0 12,-26 14,-57 3,-32 10,-83 15,-113 6,-30 15,-86 21,-124 6,-37 14,-73 17,-78 3,-5 10,-35 15,-66 6,-31 12,-72 16,-89 3,-18 9,-33 14,-33 5,0 9,-11 9,-25 0,-14 5,-25 10,-25 6,0 10,-25 10,-55 0,-30 4,-55 8,-55 4,0 14,-21 21,-47 7,-27 24,-84 37,-129 13,-44 24,-87 24,-96 0,-9 5,-20 10,-23 6,-3 10,-19 10,-36 0,-16 5,-29 10,-29 6,0 10,-18 10,-40 0,-22 5,-40 10,-40 6,0 10,-16 10,-35 0,-19 5,-35 10,-35 6,0 10,-6 10,-12 0,-14 46,-144 61,-170 5,-10 9,-27 9,-38 0,-11 5,-20 10,-20 6,0 10,-11 10,-25 0,-14 5,-25 10,-25 6,0 10,-13 10,-30 0,-16 5,-30 10,-30 6,0 10,-9 10,-19 0,-11 4,-21 8,-23 11,-4 62,-116 62,-134 0,-8 5,-14 10,-14 6,0 10,-9 10,-20 0,-11 5,-20 10,-20 6,0 10,-11 10,-25 0,-14 5,-25 10,-25 6,0 10,-9 10,-20 0,-11 5,-20 10,-20 6,0 10,-11 10,-24 0,-13 11,-44 25,-67 14,-24 25,-52 25,-61 0,-10 5,-18 10,-18 6,0 10,-9 10,-20 0,-11 5,-20 10,-20 6,0 10,-11 10,-25 0,-14 5,-25 10,-25 6,0 10,-9 10,-20 0,-11 5,-20 10,-20 6,0 10,-8 10,-19 0,-10 16,-45 35,-77 19,-32 35,-68 35,-81 0,-13 5,-23 10,-23 6,0 10,-9 10,-20 0,-11 5,-20 10,-20 6,0 10,-11 10,-25 0,-14 5,-25 10,-25 6,0 10,-9 10,-20 0,-11 5,-20 10,-20 6,0 10,-7 10,-17 0,-9 16,-44 35,-79 19,-34 35,-69 35,-78 0,-9 5,-16 10,-16 6,0 10,-9 10,-20 0,-11 5,-20 10,-20 6,0 10,-9 10,-20 0,-11 4,-20 8,-20 4,0 16,-21 27,-46 10,-26 31,-65 45,-88 14,-22 32,-57 40,-76 8,-19 16,-37 19,-40 3,-3 17,-25 30,-50 14,-25 31,-51 38,-58 7,-7 13,-22 13,-32 0,-10 5,-22 10,-25 6,-3 10,-15 10,-26 0,-10 5,-19 10,-19 6,0 10,-9 10,-20 0,-11 5,-20 10,-20 6,0 10,-9 10,-20 0,-11 5,-20 10,-20 6,0 10,-7 10,-15 0,-14 25,-62 40,-75 3,-3 16,-27 30,-55 14,-27 28,-51 33,-53 4,-2 7,-12 7,-23 0,-10 5,-19 10,-19 6,0 10,-9 10,-20 0,-11 4,-20 8,-20 4,0 17,-21 27,-46 11,-26 24,-52 30,-58 20,-22 45,-66 45,-81 0,-8 5,-15 10,-15 6,0 10,-9 10,-20 0,-11 3,-20 8,-20 4,0 20,-25 37,-55 16,-30 33,-55 37,-55 4,0 8,-9 8,-20 0,-11 5,-20 10,-20 6,0 10,-7 10,-15 0,-8 5,-15 10,-15 6,0 10,-7 10,-15 0,-8 5,-15 10,-15 6,0 10,-7 10,-15 0,-8 5,-15 10,-15 6,0 10,-7 10,-16 0,-8 6,-22 13,-29 29,-33 37,-45 37,-55 0,-5 5,-10 10,-10 6,0 10,-8 10,-18 0,-10 9,-24 20,-32 11,-8 20,-22 20,-32 0,-10 5,-18 10,-18 6,0 10,-7 10,-15 0,-8 3,-15 8,-15 4,0 13,-13 20,-29 7,-16 24,-42 37,-57 14,-16 25,-35 25,-41 0,-7 5,-13 10,-13 6,0 10,-5 10,-10 0,-6 9,-20 20,-32 11,-12 20,-28 20,-35 0,-7 4,-13 8,-13 4,0 21,-25 37,-55 17,-30 33,-55 38,-55 4,0 7,-8 7,-18 0,-10 9,-24 20,-32 11,-8 20,-20 20,-27 0,-7 5,-13 10,-13 6,0 10,-6 10,-12 0,-7 11,-26 25,-42 13,-15 30,-41 37,-57 7,-16 16,-29 20,-29 5,0 8,-6 8,-13 0,-7 9,-19 20,-27 11,-8 20,-22 20,-32 0,-10 3,-18 8,-18 4,0 21,-20 37,-45 17,-24 33,-45 38,-45 4,0 7,-8 7,-18 0,-10 9,-24 20,-32 11,-8 20,-20 20,-27 0,-11 16,-34 46,-67 5,-6 19,-26 29,-43 11,-18 23,-33 27,-33 4,0 8,-7 8,-15 0,-8 5,-15 10,-15 6,0 10,-5 10,-10 0,-6 5,-16 10,-23 40,-47 54,-65 68,-89 9,-16 20,-28 24,-28 4,0 8,-5 8,-10 0,-6 11,-22 25,-36 14,-14 25,-29 25,-33 0,-5 16,-26 35,-47 19,-22 35,-42 35,-46 0,-4 16,-23 35,-42 19,-20 35,-39 35,-44 0,-5 25,-34 55,-66 30,-31 55,-59 55,-62 0,-5 23,-31 88,-99 23,-24 42,-47 42,-50 0,-3 34,-40 75,-82 41,-42 75,-80 75,-85 0,-12 47,-58 60,-58 5,0 10,-4 10,-10 0,-5 18,-28 40,-50 22,-22 40,-47 40,-55 0,-8 5,-15 11,-15 11,0 119,-103 119,-114 0,-4 15,-22 33,-40 45,-47 97,-106 97,-110 0,-3 48,-53 108,-113 59,-60 122,-126 140,-146 18,-20 37,-37 42,-37 6,0 10,-4 10,-10 0,-5 22,-30 50,-56 27,-25 52,-55 55,-65 4,-10 15,-19 26,-19 10,0 19,-6 19,-13 0,-14 104,-117 117,-117 5,0 19,-14 33,-32 30,-38 72,-78 82,-78 4,0 10,-9 13,-20 7,-23 34,-52 90,-95 21,-16 86,-77 144,-135 58,-58 124,-119 146,-135 22,-17 58,-48 81,-70 81,-79 156,-145 165,-145 5,0 9,-4 9,-10 0,-5 16,-20 35,-32 19,-13 35,-27 35,-31 0,-10 46,-57 56,-57 3,0 39,-34 79,-75 41,-41 78,-75 84,-75 6,0 11,-4 11,-10 0,-5 5,-10 10,-10 6,0 30,-19 54,-42 23,-24 63,-60 87,-80 24,-21 55,-46 68,-58 13,-11 27,-20 31,-20 4,0 21,-13 38,-30 18,-16 36,-30 42,-30 6,0 40,-29 76,-65 36,-36 70,-65 75,-65 5,0 28,-18 51,-40 24,-22 46,-40 50,-40 4,0 23,-16 42,-35 20,-19 40,-35 46,-35 5,0 10,-4 10,-10 0,-5 7,-10 15,-10 9,0 31,-15 49,-32 18,-18 46,-42 61,-53 16,-11 34,-26 41,-32 7,-7 18,-13 24,-13 6,0 21,-10 34,-22 13,-13 36,-32 52,-43 15,-11 38,-30 50,-42 13,-13 28,-23 34,-23 6,0 21,-10 34,-22 12,-13 39,-34 59,-48 20,-14 37,-28 37,-32 0,-5 8,-8 18,-8 10,0 24,-9 32,-20 8,-11 20,-20 27,-20 7,0 22,-8 34,-17 11,-10 29,-25 40,-34 11,-9 33,-22 49,-29 17,-7 30,-16 30,-21 0,-5 7,-9 15,-9 8,0 15,-4 15,-10 0,-5 7,-10 16,-10 9,0 24,-8 33,-18 9,-10 48,-36 86,-57 39,-22 71,-43 73,-47 2,-4 10,-8 18,-8 8,0 14,-4 14,-10 0,-5 9,-10 20,-10 11,0 20,-4 20,-10 0,-5 9,-10 20,-10 11,0 20,-4 20,-9 0,-5 25,-21 55,-37 30,-16 55,-32 55,-36 0,-5 9,-8 20,-8 11,0 20,-4 20,-10 0,-5 9,-10 20,-10 11,0 20,-4 20,-10 0,-5 9,-10 20,-10 11,0 20,-4 20,-10 0,-5 5,-10 10,-10 6,0 16,-5 23,-10 24,-20 83,-57 115,-71 17,-7 32,-17 32,-21 0,-5 9,-8 20,-8 11,0 20,-4 20,-10 0,-5 7,-10 15,-10 8,0 15,-4 15,-8 0,-5 18,-17 40,-27 22,-10 40,-21 40,-24 0,-3 25,-17 55,-31 30,-14 55,-28 55,-32 0,-5 9,-8 20,-8 11,0 20,-4 20,-10 0,-5 9,-10 19,-10 11,0 21,-3 23,-7 2,-5 31,-21 66,-37 34,-16 62,-33 62,-38 0,-4 7,-8 15,-8 8,0 15,-4 15,-10 0,-5 11,-10 24,-10 13,0 26,-3 28,-7 2,-5 46,-30 98,-57 52,-27 97,-53 98,-58 2,-4 12,-8 23,-8 10,0 19,-4 19,-10 0,-5 11,-10 25,-10 14,0 25,-4 25,-9 0,-4 38,-25 85,-46 47,-21 85,-42 85,-47 0,-4 9,-8 20,-8 11,0 20,-4 20,-10 0,-5 7,-10 15,-10 8,0 15,-4 15,-10 0,-5 9,-10 20,-10 11,0 20,-4 20,-10 0,-5 9,-10 20,-10 11,0 20,-4 20,-9 0,-5 10,-13 23,-16 38,-12 147,-68 147,-77 0,-4 9,-8 19,-8 11,0 23,-4 26,-10 3,-5 15,-10 26,-10 10,0 19,-4 19,-10 0,-5 9,-10 20,-10 11,0 20,-3 20,-7 0,-5 20,-17 45,-28 25,-11 45,-23 45,-27 0,-5 11,-8 25,-8 14,0 25,-4 25,-10 0,-5 9,-10 20,-10 11,0 20,-4 20,-10 0,-5 9,-10 20,-10 11,0 20,-4 20,-10 0,-5 9,-10 20,-10 11,0 20,-4 20,-8 0,-5 19,-17 43,-28 23,-10 44,-21 47,-25 3,-3 26,-12 53,-20 26,-7 47,-17 47,-21 0,-4 7,-8 15,-8 8,0 15,-4 15,-10 0,-5 9,-10 20,-10 11,0 20,-4 20,-10 0,-5 7,-10 15,-10 8,0 43,-16 78,-35 35,-19 71,-35 80,-35 9,0 17,-4 17,-10 0,-5 11,-10 25,-10 14,0 25,-4 25,-10 0,-5 9,-10 20,-10 11,0 20,-4 20,-10 0,-5 9,-10 20,-10 11,0 20,-3 20,-7 0,-5 20,-17 45,-28 25,-11 45,-23 45,-27 0,-5 9,-8 19,-8 11,0 23,-5 26,-10 3,-6 15,-10 26,-10 10,0 19,-4 19,-10 0,-5 9,-10 20,-10 11,0 20,-4 20,-10 0,-5 7,-10 16,-10 8,0 45,-16 81,-35 36,-19 72,-35 80,-35 7,0 13,-4 13,-10 0,-5 11,-10 25,-10 14,0 25,-4 25,-10 0,-5 9,-10 20,-10 11,0 20,-4 20,-10 0,-5 7,-10 15,-10 8,0 58,-20 111,-45 52,-25 99,-45 105,-45 5,0 9,-4 9,-10 0,-5 9,-10 20,-10 11,0 20,-4 20,-10 0,-5 14,-10 30,-10 17,0 30,-4 30,-10 0,-5 9,-10 19,-10 11,0 23,-4 26,-10 3,-5 15,-10 26,-10 10,0 19,-3 19,-7 0,-5 29,-17 65,-28 36,-10 65,-23 65,-27 0,-4 9,-8 20,-8 11,0 20,-4 20,-10 0,-5 9,-10 20,-10 11,0 20,-4 20,-10 0,-5 9,-10 19,-10 11,0 63,-20 117,-45 53,-25 103,-45 110,-45 8,0 14,-4 14,-10 0,-5 11,-10 25,-10 14,0 25,-4 25,-10 0,-5 14,-10 30,-10 17,0 30,-4 30,-10 0,-5 7,-10 15,-10 8,0 23,-4 33,-9 47,-25 134,-61 147,-61 8,0 15,-4 15,-10 0,-5 11,-10 25,-10 14,0 25,-4 25,-10 0,-5 9,-10 20,-10 11,0 20,-4 20,-10 0,-5 8,-10 18,-10 10,0 37,-9 60,-20 22,-11 48,-20 57,-20 8,0 15,-4 15,-9 0,-5 12,-12 28,-15 39,-10 82,-30 82,-38 0,-5 11,-8 25,-8 14,0 25,-4 25,-10 0,-5 14,-10 30,-10 17,0 30,-4 30,-10 0,-5 9,-10 20,-10 11,0 20,-4 20,-10 0,-5 8,-10 18,-10 10,0 22,-4 28,-9 5,-4 34,-16 64,-27 30,-10 59,-22 64,-26 6,-4 18,-8 28,-8 10,0 18,-4 18,-10 0,-5 14,-10 30,-10 17,0 30,-4 30,-10 0,-5 14,-10 30,-10 17,0 30,-4 30,-10 0,-5 8,-10 18,-10 9,0 53,-14 97,-31 44,-17 90,-33 103,-36 12,-3 25,-9 28,-14 3,-5 16,-9 30,-9 13,0 24,-4 24,-10 0,-5 16,-10 35,-10 19,0 35,-4 35,-10 0,-5 7,-10 15,-10 8,0 23,-4 33,-9 31,-15 177,-61 195,-61 9,0 17,-4 17,-10 0,-5 14,-10 30,-10 17,0 30,-4 30,-10 0,-5 16,-10 35,-10 19,0 35,-4 35,-10 0,-5 18,-10 40,-10 22,0 40,-4 40,-10 0,-5 11,-10 25,-10 14,0 25,-3 25,-8 0,-9 56,-29 143,-49 37,-9 67,-20 67,-25 0,-4 11,-8 25,-8 14,0 25,-4 25,-10 0,-5 18,-10 40,-10 22,0 40,-4 40,-10 0,-5 11,-10 24,-10 13,0 26,-3 28,-8 2,-4 44,-16 93,-26 50,-10 92,-22 95,-26 3,-4 19,-10 35,-13 17,-4 45,-9 63,-13 17,-3 32,-10 32,-15 0,-5 34,-9 75,-9 43,0 75,-4 75,-10 0,-5 13,-10 28,-10 15,0 32,-4 38,-8 9,-9 33,-16 154,-47 36,-10 78,-21 94,-26 16,-5 49,-9 72,-9 24,0 44,-4 44,-10 0,-5 25,-10 55,-10 30,0 55,-4 55,-10 0,-5 18,-10 40,-10 22,0 40,-4 40,-10 0,-5 20,-10 45,-10 25,0 45,-4 45,-10 0,-5 13,-10 28,-10 16,0 69,-14 118,-31 49,-17 104,-33 122,-36 17,-3 32,-9 32,-14 0,-5 18,-9 40,-9 22,0 40,-4 40,-10 0,-5 20,-10 45,-10 25,0 45,-4 45,-9 0,-5 21,-11 48,-14 47,-5 75,-11 187,-42 76,-21 139,-35 188,-42 20,-3 37,-9 37,-14 0,-5 20,-9 45,-9 25,0 45,-4 45,-10 0,-5 7,-10 15,-10 8,0 23,-4 33,-9 9,-5 71,-24 137,-42 109,-29 153,-38 268,-55 20,-4 37,-10 37,-14 0,-13 99,-21 323,-26 201,-5 209,-4 227,15 9,12 23,21 29,21 15,0 41,25 41,39 0,6 5,11 10,11 6,0 10,8 10,18 0,22 32,62 49,62 6,0 11,5 11,10 0,6 -11,10 -25,10 -29,0 -45,41 -25,65 20,24 4,65 -25,65 -15,0 -25,6 -25,14 0,21 -23,26 -128,26 -106,0 -507,45 -534,60 -10,6 -29,10 -43,10 -14,0 -25,5 -25,10 0,6 -20,10 -45,10 -25,0 -45,5 -45,10 0,6 -13,10 -29,10 -17,0 -32,4 -35,9 -3,4 -20,11 -38,14 -18,4 -73,18 -123,32 -90,26 -152,41 -212,52 -18,3 -33,9 -33,14 0,5 -25,9 -55,9 -30,0 -55,5 -55,10 0,6 -18,10 -40,10 -22,0 -48,4 -58,9 -27,14 -87,31 -107,31 -25,0 -129,33 -133,42 -2,5 -19,8 -38,8 -19,0 -34,5 -34,10 0,6 -18,10 -40,10 -22,0 -40,5 -40,10 0,6 -20,10 -45,10 -25,0 -45,4 -45,9 0,4 -17,11 -37,15 -21,4 -72,12 -113,19 -41,8 -82,16 -90,19 -35,12 -112,28 -140,28 -17,0 -30,5 -30,10 0,6 -20,10 -45,10 -25,0 -45,5 -45,10 0,6 -22,10 -50,10 -27,0 -50,4 -50,9 0,5 -17,11 -37,14 -110,17 -365,85 -371,99 -2,5 -24,8 -48,8 -24,0 -44,5 -44,10 0,6 -18,10 -40,10 -22,0 -40,5 -40,10 0,6 -7,10 -16,10 -8,0 -39,7 -67,16 -51,15 -62,19 -120,43 -15,6 -39,11 -52,11 -13,0 -27,5 -30,10 -3,6 -19,10 -36,10 -16,0 -29,5 -29,10 0,6 -16,10 -35,10 -19,0 -35,5 -35,10 0,6 -10,10 -22,10 -21,0 -79,16 -108,30 -8,4 -42,15 -75,25 -33,10 -64,22 -69,27 -6,4 -18,8 -28,8 -10,0 -18,5 -18,10 0,6 -16,10 -35,10 -19,0 -35,5 -35,10 0,6 -13,10 -29,10 -17,0 -33,5 -36,10 -3,6 -17,10 -31,10 -13,0 -24,5 -24,10 0,6 -13,10 -29,10 -17,0 -32,4 -35,9 -4,5 -32,17 -64,26 -31,9 -65,21 -74,26 -10,5 -27,9 -38,9 -11,0 -20,5 -20,10 0,6 -11,10 -25,10 -14,0 -25,5 -25,10 0,6 -9,10 -20,10 -11,0 -28,4 -38,9 -9,5 -44,19 -77,31 -33,12 -75,28 -93,36 -18,8 -39,14 -47,14 -8,0 -15,5 -15,10 0,6 -11,10 -25,10 -14,0 -25,5 -25,10 0,6 -13,10 -30,10 -16,0 -30,5 -30,10 0,6 -8,10 -18,10 -10,0 -51,16 -91,35 -39,19 -78,35 -86,35 -7,0 -17,5 -20,10 -3,6 -15,10 -26,10 -10,0 -19,5 -19,10 0,6 -9,10 -20,10 -11,0 -20,5 -20,10 0,6 -10,10 -23,10 -13,0 -27,4 -33,9 -5,4 -53,25 -106,45 -54,21 -98,42 -98,47 0,5 -11,9 -25,9 -14,0 -25,5 -25,10 0,6 -9,10 -19,10 -11,0 -23,4 -26,10 -3,5 -17,10 -31,10 -13,0 -24,4 -24,8 0,4 -20,14 -46,21 -25,7 -51,20 -59,27 -7,8 -23,14 -34,14 -11,0 -23,5 -26,10 -3,6 -17,10 -31,10 -13,0 -24,5 -24,10 0,6 -9,10 -20,10 -11,0 -20,5 -20,10 0,6 -8,10 -18,10 -10,0 -37,9 -60,20 -22,11 -47,20 -54,20 -7,0 -33,11 -57,25 -23,14 -49,25 -57,25 -8,0 -14,5 -14,10 0,6 -9,10 -20,10 -11,0 -20,5 -20,10 0,6 -11,10 -25,10 -14,0 -25,3 -25,8 0,4 -19,13 -42,20 -68,20 -168,64 -168,74 0,4 -9,8 -20,8 -11,0 -20,5 -20,10 0,6 -11,10 -25,10 -14,0 -25,5 -25,10 0,6 -9,10 -20,10 -11,0 -20,5 -20,10 0,6 -7,10 -14,10 -8,0 -48,15 -88,33 -40,18 -88,40 -105,48 -18,7 -33,17 -33,21 0,5 -9,8 -20,8 -11,0 -20,5 -20,10 0,6 -8,10 -18,10 -10,0 -22,4 -28,9 -5,4 -30,16 -56,26 -27,10 -48,22 -48,26 0,5 -9,9 -19,9 -11,0 -23,5 -26,10 -3,6 -15,10 -26,10 -10,0 -19,5 -19,10 0,6 -9,10 -20,10 -11,0 -20,5 -20,10 0,6 -11,10 -24,10 -13,0 -26,4 -28,8 -4,11 -146,82 -164,82 -8,0 -14,5 -14,10 0,6 -11,10 -25,10 -14,0 -25,3 -25,8 0,4 -15,13 -32,21 -18,8 -44,22 -58,31 -14,9 -37,20 -52,24 -16,3 -28,11 -28,16 0,6 -6,10 -13,10 -18,0 -67,24 -67,33 0,4 -11,7 -25,7 -14,0 -25,5 -25,10 0,6 -9,10 -20,10 -11,0 -20,5 -20,10 0,6 -6,10 -14,10 -8,0 -42,16 -76,35 -34,19 -68,35 -76,35 -8,0 -14,5 -14,10 0,6 -9,10 -20,10 -11,0 -20,4 -20,8 0,5 -38,26 -85,47 -47,21 -85,42 -85,46 0,5 -9,9 -20,9 -11,0 -20,5 -20,10 0,6 -9,10 -20,10 -11,0 -20,5 -20,10 0,6 -11,10 -25,10 -14,0 -25,5 -25,10 0,6 -7,10 -15,10 -8,0 -15,5 -15,10 0,6 -9,10 -20,10 -11,0 -20,4 -20,8 0,5 -28,22 -62,38 -35,16 -64,32 -66,37 -2,4 -12,7 -23,7 -10,0 -19,5 -19,10 0,6 -9,10 -20,10 -11,0 -20,5 -20,10 0,6 -9,10 -19,10 -11,0 -21,3 -23,8 -2,4 -31,20 -65,36 -35,16 -63,33 -63,38 0,4 -9,8 -20,8 -11,0 -20,5 -20,10 0,6 -9,10 -20,10 -11,0 -20,5 -20,10 0,6 -5,10 -11,10 -11,0 -121,51 -129,61 -3,3 -25,16 -50,30 -25,13 -46,27 -48,32 -2,4 -15,7 -28,7 -13,0 -24,3 -24,8 0,4 -34,25 -75,47 -41,22 -75,43 -75,48 0,4 -9,7 -20,7 -11,0 -20,5 -20,10 0,6 -9,10 -20,10 -11,0 -20,5 -20,10 0,6 -7,10 -15,10 -8,0 -46,20 -84,45 -38,25 -77,45 -85,45 -9,0 -16,5 -16,10 0,6 -9,10 -20,10 -11,0 -20,5 -20,10 0,6 -6,10 -14,10 -8,0 -16,4 -18,9 -4,11 -145,101 -158,101 -6,0 -10,5 -10,10 0,6 -9,10 -20,10 -11,0 -20,5 -20,10 0,6 -6,10 -13,10 -7,0 -22,8 -33,18 -11,9 -37,26 -59,37 -22,11 -49,28 -59,38 -11,9 -26,17 -33,17 -7,0 -13,5 -13,10 0,6 -7,10 -15,10 -8,0 -15,5 -15,10 0,6 -9,10 -19,10 -11,0 -21,3 -23,8 -2,4 -30,25 -63,47 -33,22 -61,43 -63,48 -2,4 -11,7 -21,7 -9,0 -23,9 -31,20 -8,11 -18,20 -23,20 -8,0 -21,10 -60,45 -12,11 -34,26 -49,34 -16,8 -28,18 -28,23 0,4 -7,8 -15,8 -8,0 -15,4 -15,8 0,5 -12,15 -27,23 -29,15 -61,40 -99,77 -13,12 -26,22 -29,22 -3,0 -17,10 -30,23 -13,12 -49,40 -80,62 -31,22 -67,50 -80,63 -13,12 -29,22 -35,22 -5,0 -10,3 -10,8 0,4 -17,18 -38,32 -20,13 -47,35 -59,47 -12,13 -24,23 -27,23 -6,0 -25,15 -77,60 -43,38 -52,44 -81,59 -16,8 -28,18 -28,23 0,4 -5,8 -11,8 -14,0 -39,25 -39,39 0,6 -4,11 -8,11 -5,0 -28,18 -52,40 -24,22 -47,40 -52,40 -5,0 -43,34 -85,75 -42,41 -80,75 -84,75 -5,0 -49,39 -98,88 -49,48 -110,107 -135,131 -25,24 -46,48 -46,53 0,4 -7,8 -15,8 -8,0 -48,34 -90,75 -41,41 -77,75 -80,75 -6,0 -51,40 -125,110 -27,25 -64,59 -84,75 -19,17 -36,36 -36,43 0,6 -3,12 -7,12 -17,0 -173,145 -173,160 0,5 -5,10 -10,10 -10,0 -101,91 -170,169 -19,22 -42,43 -50,46 -8,2 -24,18 -35,35 -11,16 -24,30 -28,30 -9,0 -67,58 -67,66 0,3 -34,39 -75,79 -41,41 -75,76 -75,79 0,3 -50,56 -110,118 -163,167 -190,196 -190,208 0,5 -6,10 -12,10 -7,0 -23,13 -35,28 -12,16 -36,43 -53,60 -16,18 -30,36 -30,42 0,5 -42,52 -94,104 -51,52 -111,116 -132,142 -21,26 -65,75 -96,109 -32,33 -58,63 -58,67 0,3 -17,24 -37,46 -21,21 -56,60 -78,86 -22,26 -50,58 -62,71 -13,13 -23,27 -23,30 0,3 -10,17 -22,30 -60,65 -68,75 -68,85 0,5 -4,10 -10,10 -5,0 -10,7 -10,15 0,8 -4,15 -10,15 -5,0 -10,5 -10,11 0,6 -13,23 -28,37 -16,15 -36,43 -46,63 -9,20 -26,46 -36,57 -11,12 -20,26 -20,32 0,5 -4,10 -10,10 -5,0 -10,7 -10,15 0,8 -4,15 -10,15 -5,0 -10,5 -10,11 0,6 -6,17 -12,24 -20,22 -31,37 -58,77 -14,21 -28,38 -32,38 -5,0 -8,7 -8,15 0,8 -4,15 -10,15 -5,0 -10,7 -10,16 0,9 -8,24 -18,33 -10,9 -31,39 -47,66 -15,28 -37,57 -47,66 -10,9 -18,23 -18,32 0,8 -4,17 -8,19 -5,2 -25,28 -45,58 -20,30 -41,60 -47,67 -5,7 -10,17 -10,23 0,5 -4,10 -10,10 -5,0 -10,7 -10,16 0,8 -6,21 -12,28 -7,8 -20,24 -28,36 -8,12 -23,33 -32,45 -10,13 -18,28 -18,34 0,6 -4,11 -10,11 -5,0 -10,8 -10,18 0,10 -9,24 -20,32 -11,8 -20,22 -20,32 0,10 -4,18 -10,18 -5,0 -10,4 -10,10 0,10 -38,70 -70,110 -11,14 -20,31 -20,38 0,6 -4,12 -10,12 -5,0 -10,5 -10,11 0,7 -8,19 -18,28 -10,9 -36,48 -57,86 -21,39 -42,72 -47,73 -4,2 -8,12 -8,23 0,10 -4,19 -10,19 -5,0 -10,9 -10,20 0,11 -3,20 -8,20 -4,0 -14,15 -21,33 -8,17 -20,37 -25,44 -26,30 -33,40 -46,71 -8,17 -18,32 -22,32 -5,0 -8,7 -8,15 0,9 -9,25 -20,37 -11,12 -20,30 -20,40 0,10 -4,18 -10,18 -5,0 -10,9 -10,19 0,11 -6,26 -13,33 -7,7 -20,28 -28,46 -7,17 -17,32 -21,32 -5,0 -8,9 -8,20 0,11 -4,20 -10,20 -5,0 -10,9 -10,20 0,11 -3,20 -7,20 -5,0 -21,29 -37,65 -16,36 -33,65 -37,65 -5,0 -9,9 -9,20 0,11 -4,20 -10,20 -5,0 -10,7 -10,15 0,8 -4,15 -10,15 -5,0 -10,9 -10,20 0,11 -4,20 -10,20 -5,0 -10,9 -10,20 0,11 -4,20 -10,20 -5,0 -10,7 -10,16 0,9 -16,44 -35,78 -19,35 -35,70 -35,79 0,10 -4,17 -10,17 -5,0 -10,9 -10,20 0,11 -4,20 -10,20 -5,0 -10,11 -10,25 0,14 -4,25 -9,25 -5,0 -26,33 -46,73 -21,39 -42,74 -47,75 -4,2 -8,15 -8,28 0,13 -4,24 -10,24 -5,0 -10,9 -10,20 0,11 -4,20 -10,20 -5,0 -10,9 -10,20 0,11 -4,20 -10,20 -5,0 -10,7 -10,16 0,9 -11,37 -24,63 -13,25 -30,61 -38,79 -7,17 -16,32 -20,32 -5,0 -8,11 -8,25 0,14 -4,25 -10,25 -5,0 -10,6 -10,13 0,8 -6,27 -14,43 -7,16 -29,63 -47,104 -19,41 -37,77 -41,78 -5,2 -8,12 -8,23 0,10 -4,19 -10,19 -5,0 -10,14 -10,30 0,17 -4,30 -10,30 -5,0 -10,11 -10,25 0,14 -4,25 -10,25 -5,0 -10,9 -10,20 0,11 -4,20 -8,20 -8,0 -18,21 -53,105 -4,11 -13,37 -20,58 -7,20 -17,37 -21,37 -4,0 -8,14 -8,30 0,17 -4,30 -10,30 -5,0 -10,9 -10,20 0,11 -4,20 -10,20 -5,0 -10,9 -10,19 0,11 -4,22 -9,26 -6,3 -18,32 -28,65 -9,33 -21,60 -25,60 -4,0 -8,11 -8,25 0,14 -4,25 -10,25 -5,0 -10,14 -10,30 0,17 -4,30 -10,30 -5,0 -10,11 -10,25 0,14 -4,33 -10,43 -11,20 -32,87 -51,160 -7,28 -16,52 -21,52 -4,0 -8,15 -8,34 0,19 -4,38 -10,41 -5,3 -10,22 -10,41 0,19 -4,34 -10,34 -5,0 -10,20 -10,44 0,24 -3,46 -8,48 -21,9 -86,259 -99,381 -3,26 -9,47 -14,47 -5,0 -9,27 -9,60 0,33 -4,60 -10,60 -5,0 -10,25 -10,55 0,30 -4,64 -9,77 -5,13 -14,48 -20,78 -6,30 -21,100 -32,155 -21,103 -36,188 -46,263 -3,23 -9,42 -14,42 -5,0 -9,29 -9,65 0,36 -4,65 -9,65 -5,0 -11,39 -14,88 -8,114 -22,233 -42,357 -9,59 -18,194 -21,330 -3,127 -9,246 -14,265 -9,42 -5,759 6,878 7,84 -10,222 -28,222 -4,0 -8,7 -8,16 0,9 -24,40 -54,70 l -55,55 -5,117 c -3,64 -6,128 -5,142 1,35 0,269 -2,300 -2,45 14,370 18,370 10,0 31,-28 58,-77 15,-29 32,-53 37,-53 4,0 8,-8 8,-18 0,-10 9,-24 20,-32 11,-8 20,-19 20,-25 0,-15 76,-95 90,-95 7,0 21,-9 31,-21 15,-17 29,-20 91,-20 41,0 74,5 76,11 2,5 10,10 18,10 20,0 64,45 64,65 0,8 5,15 10,15 6,0 10,28 10,65 0,37 -4,65 -10,65 -5,0 -10,7 -10,15 0,8 -4,15 -10,15 -5,0 -10,9 -10,20 0,11 -3,20 -7,20 -5,0 -21,25 -37,55 -16,30 -32,55 -37,55 -5,0 -9,8 -9,18 0,10 -9,24 -20,32 -11,8 -20,22 -20,32 0,10 -4,18 -10,18 -5,0 -10,6 -10,14 0,8 -16,42 -35,76 -19,34 -35,68 -35,76 0,8 -4,14 -10,14 -5,0 -10,8 -10,18 0,10 -9,24 -20,32 -11,8 -20,20 -20,28 0,11 -57,148 -81,194 -5,10 -9,25 -9,33 0,8 -4,15 -10,15 -5,0 -10,14 -10,30 0,17 -4,30 -10,30 -5,0 -10,11 -10,24 0,13 -3,26 -7,28 -7,3 -31,59 -57,136 -6,17 -14,32 -18,32 -5,0 -8,9 -8,20 0,11 -4,20 -10,20 -5,0 -10,11 -10,25 0,14 -4,25 -10,25 -5,0 -10,9 -10,20 0,11 -4,20 -8,20 -18,0 -58,110 -79,212 -3,15 -12,34 -22,42 -77,73 -109,100 -145,118 -22,11 -43,24 -46,28 -6,9 -115,18 -155,13 z"
         id="path2" />
      <path
         d="m 2660,22060 c 0,-5 -18,-10 -40,-10 -22,0 -40,-4 -40,-10 0,-5 -15,-10 -34,-10 -19,0 -38,-4 -41,-10 -3,-5 -17,-10 -31,-10 -13,0 -24,-4 -24,-9 0,-5 -12,-14 -27,-20 -35,-13 -87,-44 -91,-53 -2,-5 -8,-8 -13,-8 -13,0 -46,-34 -83,-85 -17,-22 -38,-47 -48,-56 -10,-9 -18,-24 -18,-33 0,-9 -4,-16 -10,-16 -5,0 -10,-16 -10,-35 0,-19 -4,-35 -10,-35 -5,0 -10,-9 -10,-20 0,-11 -4,-20 -8,-20 -4,0 -14,-21 -22,-47 -27,-86 -10,-363 22,-363 4,0 8,-13 8,-30 0,-16 5,-30 10,-30 6,0 10,-7 10,-15 0,-8 5,-15 10,-15 6,0 10,-7 10,-15 0,-9 11,-27 25,-41 14,-14 25,-28 25,-33 0,-12 87,-101 99,-101 6,0 11,-3 11,-7 0,-5 23,-19 50,-32 28,-14 50,-28 50,-32 0,-12 62,-32 130,-41 112,-15 340,-21 340,-9 0,6 12,11 28,11 40,0 108,27 140,54 15,14 37,33 50,44 12,11 22,24 22,30 0,6 5,12 12,14 7,3 12,25 12,58 0,33 -5,55 -12,58 -7,2 -12,12 -12,23 0,10 -4,19 -10,19 -5,0 -10,11 -10,25 0,21 -5,25 -28,25 -16,0 -34,8 -42,20 -8,11 -20,20 -27,20 -7,0 -13,5 -13,10 0,6 -22,10 -50,10 -27,0 -50,-4 -50,-10 0,-5 -7,-10 -15,-10 -8,0 -15,-4 -15,-10 0,-5 -9,-10 -19,-10 -11,0 -21,-5 -23,-12 -5,-15 -176,-14 -192,2 -5,5 -18,10 -28,10 -10,0 -18,5 -18,10 0,6 -7,10 -16,10 -17,0 -27,9 -66,62 -16,20 -28,44 -28,54 0,9 -5,34 -11,54 -17,56 -3,121 39,184 20,31 41,56 47,56 6,0 17,9 25,20 8,11 22,20 32,20 9,0 20,5 23,10 3,6 42,10 85,10 43,0 82,-4 85,-10 3,-5 18,-10 32,-10 25,0 55,-27 98,-86 32,-44 46,-55 76,-61 16,-3 29,-9 29,-14 0,-5 25,-9 55,-9 30,0 55,5 55,10 0,6 7,10 16,10 18,0 74,53 74,69 0,6 5,11 10,11 6,0 10,11 10,25 0,14 5,25 10,25 6,0 10,20 10,45 0,25 -4,45 -10,45 -5,0 -10,20 -10,45 0,25 -4,45 -10,45 -5,0 -10,6 -10,13 0,12 -30,52 -67,90 -23,24 -79,53 -120,62 -18,3 -33,11 -33,16 0,5 -9,9 -20,9 -11,0 -20,5 -20,10 0,6 -16,10 -35,10 -19,0 -35,5 -35,10 0,6 -22,10 -50,10 -27,0 -50,5 -50,10 0,6 -33,10 -80,10 -47,0 -80,-4 -80,-10 z"
         id="path4" />
      <path
         d="m 21805,7372 c -38,-20 -71,-40 -73,-44 -2,-5 -8,-8 -13,-8 -32,0 -109,-114 -109,-160 0,-49 61,-140 95,-140 8,0 15,-4 15,-10 0,-5 13,-10 29,-10 17,0 33,-4 36,-10 3,-5 15,-10 26,-10 10,0 19,5 19,10 0,6 16,10 35,10 19,0 35,5 35,10 0,6 13,10 29,10 16,0 32,6 35,13 5,10 7,10 12,0 7,-16 204,-18 204,-3 0,6 9,10 20,10 12,0 20,7 20,18 0,9 14,28 31,42 17,14 37,31 44,38 8,6 18,12 24,12 12,0 15,39 5,64 -3,8 -12,12 -20,9 -10,-4 -14,3 -14,25 0,17 -7,37 -15,46 -8,8 -15,21 -15,29 0,14 -31,30 -130,67 -42,15 -79,20 -155,20 -96,-1 -103,-2 -170,-38 z"
         id="path6" />
      <path
         d="m 23235,7189 c -66,-10 -107,-20 -120,-31 -61,-49 -95,-94 -95,-125 0,-24 23,-83 32,-83 4,0 8,-7 8,-15 0,-8 5,-15 10,-15 6,0 10,-7 10,-15 0,-10 10,-15 33,-15 21,0 36,-7 44,-19 12,-20 29,-23 193,-37 68,-6 77,-4 94,15 11,11 28,21 39,21 25,0 46,27 47,60 1,34 27,104 40,108 5,2 10,10 10,18 0,17 -88,105 -121,121 -30,15 -158,22 -224,12 z"
         id="path8" />
      <path
         d="m 24395,6920 c -3,-5 -13,-10 -21,-10 -20,0 -44,-24 -44,-44 0,-9 -4,-16 -10,-16 -5,0 -10,-25 -10,-55 0,-30 5,-55 10,-55 6,0 10,-7 10,-15 0,-19 34,-54 78,-80 17,-11 32,-23 32,-27 0,-4 26,-8 58,-8 46,0 62,5 86,25 16,13 37,27 47,30 11,4 19,13 19,21 0,8 4,14 10,14 5,0 12,12 16,28 4,15 12,37 20,48 11,19 11,24 -6,39 -11,10 -20,26 -20,37 0,10 -7,18 -16,18 -9,0 -24,8 -33,18 -9,9 -32,23 -52,30 -42,14 -165,16 -174,2 z"
         id="path10" />
      <path
         d="m 3200,5330 c 0,-5 -9,-10 -20,-10 -11,0 -20,-4 -20,-10 0,-5 -13,-10 -30,-10 -16,0 -30,-4 -30,-10 0,-5 -7,-10 -15,-10 -31,0 -135,-85 -135,-111 0,-14 -72,-143 -82,-147 -4,-2 -8,-12 -8,-23 0,-10 -3,-19 -8,-19 -4,0 -12,-12 -19,-27 -10,-25 -14,-47 -29,-133 -10,-65 -8,-240 4,-252 7,-7 12,-29 12,-50 0,-21 5,-38 10,-38 6,0 10,-9 10,-20 0,-11 5,-20 10,-20 6,0 10,-8 10,-17 0,-19 26,-55 78,-109 17,-18 32,-36 32,-39 0,-10 69,-75 80,-75 5,0 10,-3 10,-7 0,-5 28,-21 63,-37 34,-16 70,-33 79,-37 10,-5 29,-9 43,-9 14,0 25,-4 25,-10 0,-5 20,-10 45,-10 25,0 45,-4 45,-10 0,-5 23,-10 50,-10 28,0 50,-4 50,-10 0,-6 30,-10 70,-10 49,0 70,4 70,13 0,8 4,7 11,-3 8,-11 12,-12 16,-2 3,7 24,12 54,12 27,0 49,5 49,10 0,6 18,10 40,10 22,0 40,5 40,10 0,6 9,10 20,10 11,0 20,4 20,9 0,5 14,13 32,16 57,13 104,50 163,130 16,22 38,47 47,56 10,9 18,24 18,33 0,9 5,16 10,16 6,0 10,11 10,25 0,14 4,25 8,25 13,0 32,145 32,239 0,78 -9,130 -31,173 -5,10 -9,27 -9,38 0,11 -4,20 -10,20 -5,0 -10,9 -10,20 0,11 -4,20 -10,20 -5,0 -10,9 -10,20 0,22 -6,31 -57,85 -18,19 -33,37 -33,40 0,13 -68,72 -98,86 -18,7 -32,17 -32,21 0,5 -9,8 -19,8 -11,0 -21,4 -23,8 -6,14 -157,82 -182,82 -14,0 -28,5 -31,10 -3,6 -28,10 -56,10 -27,0 -49,5 -49,10 0,6 -16,10 -35,10 -19,0 -35,5 -35,10 0,6 -47,10 -120,10 -73,0 -120,-4 -120,-10 z m 318,-410 c 2,-6 17,-10 33,-10 16,0 29,-4 29,-10 0,-5 8,-10 18,-10 22,0 102,-42 102,-54 0,-5 9,-16 20,-26 29,-25 61,-103 67,-165 8,-78 -29,-165 -71,-165 -9,0 -16,-3 -16,-7 0,-12 -50,-33 -105,-44 -53,-10 -175,5 -175,22 0,5 -11,9 -24,9 -14,0 -28,5 -31,10 -3,6 -17,10 -31,10 -13,0 -24,5 -24,10 0,6 -7,10 -16,10 -21,0 -70,53 -97,104 -29,55 -28,165 1,223 27,53 73,100 103,106 38,9 214,-3 217,-13 z"
         id="path12" />
      <path
         d="m 21173,4563 c -13,-2 -54,-35 -91,-73 -55,-55 -76,-69 -110,-75 -23,-4 -44,-11 -48,-16 -3,-5 -16,-9 -29,-9 -13,0 -27,-4 -30,-10 -3,-5 -19,-10 -36,-10 -16,0 -29,-4 -29,-10 0,-5 -9,-10 -20,-10 -11,0 -20,-4 -20,-10 0,-5 -15,-10 -34,-10 -19,0 -36,-4 -38,-9 -3,-10 -148,-61 -172,-61 -9,0 -16,-4 -16,-10 0,-5 -9,-10 -20,-10 -11,0 -20,-4 -20,-10 0,-5 -9,-10 -20,-10 -32,0 -140,-101 -140,-131 0,-11 -4,-19 -10,-19 -5,0 -10,-13 -10,-29 0,-17 5,-33 10,-36 6,-3 10,-13 10,-21 0,-8 10,-25 23,-38 12,-13 29,-33 37,-45 8,-12 21,-19 28,-16 7,3 21,-2 29,-11 12,-12 31,-15 82,-12 62,4 162,34 169,51 2,4 12,7 23,7 10,0 19,5 19,10 0,6 18,10 39,10 22,0 43,5 46,10 3,6 15,10 25,10 10,0 20,3 22,8 5,12 172,65 193,61 26,-5 43,-66 44,-151 1,-38 5,-68 11,-68 6,0 10,-50 10,-130 0,-80 4,-130 10,-130 6,0 10,-38 10,-95 0,-57 4,-95 10,-95 6,0 10,-6 10,-14 0,-7 10,-21 23,-29 12,-8 39,-31 60,-51 26,-25 46,-36 67,-36 17,0 30,5 30,10 0,6 18,10 40,10 32,0 40,4 40,18 0,9 9,23 20,30 11,7 20,17 20,23 0,13 25,39 38,39 31,0 11,466 -30,694 -11,67 -11,69 11,87 13,11 38,19 57,19 19,0 34,5 34,10 0,6 11,10 25,10 14,0 25,5 25,10 0,6 11,10 25,10 14,0 25,5 25,10 0,6 8,10 19,10 10,0 38,18 62,40 24,22 52,43 62,46 9,3 17,12 17,20 0,8 14,28 30,46 17,17 30,41 30,54 0,42 -41,112 -73,125 -38,16 -141,13 -242,-7 -135,-27 -213,-29 -254,-6 -39,22 -93,33 -128,25 z"
         id="path14" />
    </g>
  </g>
</svg>
