<?xml version="1.0" encoding="UTF-8" standalone="no"?>
<svg
   xmlns:dc="http://purl.org/dc/elements/1.1/"
   xmlns:cc="http://creativecommons.org/ns#"
   xmlns:rdf="http://www.w3.org/1999/02/22-rdf-syntax-ns#"
   xmlns:svg="http://www.w3.org/2000/svg"
   xmlns="http://www.w3.org/2000/svg"
   xmlns:sodipodi="http://sodipodi.sourceforge.net/DTD/sodipodi-0.dtd"
   xmlns:inkscape="http://www.inkscape.org/namespaces/inkscape"
   inkscape:version="1.0 (4035a4fb49, 2020-05-01)"
   sodipodi:docname="2nd-order.svg"
   id="svg12"
   preserveAspectRatio="xMidYMid meet"
   viewBox="0 0 2720 2720"
   height="2720pt"
   width="2720pt"
   version="1.0">
  <style
     id="style2"></style>
  <metadata
     id="metadata18">
    <rdf:RDF>
      <cc:Work
         rdf:about="">
        <dc:format>image/svg+xml</dc:format>
        <dc:type
           rdf:resource="http://purl.org/dc/dcmitype/StillImage" />
        <dc:title />
      </cc:Work>
    </rdf:RDF>
  </metadata>
  <defs
     id="defs16" />
  <sodipodi:namedview
     inkscape:current-layer="g845"
     inkscape:window-maximized="1"
     inkscape:window-y="-9"
     inkscape:window-x="-9"
     inkscape:cy="1281.7755"
     inkscape:cx="2574.1854"
     inkscape:zoom="0.11134771"
     showgrid="false"
     id="namedview14"
     inkscape:window-height="1051"
     inkscape:window-width="1920"
     inkscape:pageshadow="2"
     inkscape:pageopacity="0"
     guidetolerance="10"
     gridtolerance="10"
     objecttolerance="10"
     borderopacity="1"
     bordercolor="#666666"
     pagecolor="#ffffff"
     inkscape:document-rotation="0" />
  <g
     id="g845"
     transform="matrix(1.1122833,0,0,1.1122833,-7.2075111,-296.54175)">
    <circle
       cy="1542.363"
       cx="1158.1318"
       id="path847"
       style="fill:#d9bdbd;fill-opacity:0.40000001;stroke:#e6e6e6;stroke-width:0.895828;stroke-opacity:0.177165"
       r="1093.4935" />
    <g
       transform="matrix(0.10260425,0,0,-0.10260425,86.868658,3096.7534)"
       fill="#000000"
       stroke="none"
       id="g10">
      <g
         id="g879">
        <path
           id="path2"
           d="m 3210,26130 c 0,-5 -15,-10 -33,-10 -21,0 -38,-7 -47,-20 -17,-24 -69,-37 -80,-20 -6,9 -40,13 -113,14 l -104,1 -31,-32 c -16,-18 -33,-33 -37,-33 -10,0 -35,-27 -35,-39 0,-6 -3,-11 -8,-11 -4,0 -16,-16 -26,-35 -11,-19 -23,-35 -28,-35 -4,0 -8,-7 -8,-15 0,-8 -4,-23 -9,-33 -5,-9 -17,-36 -27,-59 -11,-24 -22,-43 -26,-43 -5,0 -8,-7 -8,-15 0,-8 -4,-15 -10,-15 -5,0 -10,-6 -10,-14 0,-8 -8,-29 -17,-48 -31,-62 -33,-68 -33,-93 0,-14 -4,-25 -10,-25 -5,0 -10,-18 -10,-40 0,-22 5,-40 10,-40 6,0 10,-9 10,-20 0,-11 5,-20 10,-20 6,0 10,-7 10,-15 0,-18 74,-92 101,-100 10,-4 19,-11 19,-16 0,-5 31,-9 69,-9 56,0 75,4 105,25 20,14 39,25 42,25 2,0 18,14 36,30 17,17 35,30 39,30 5,0 9,7 9,15 0,8 9,15 20,15 11,0 20,5 20,10 0,6 11,10 25,10 h 25 v -115 c 0,-63 4,-115 9,-115 5,0 11,-66 14,-147 7,-199 26,-397 37,-401 6,-2 10,-59 10,-133 0,-79 4,-129 10,-129 6,0 10,-34 10,-82 0,-46 4,-99 9,-118 5,-19 12,-65 16,-101 6,-63 5,-68 -19,-92 -14,-15 -26,-33 -26,-42 0,-8 -4,-15 -9,-15 -21,0 -61,-93 -61,-141 0,-27 4,-49 9,-49 5,0 11,-12 14,-27 3,-16 15,-38 26,-50 12,-12 21,-29 21,-38 0,-9 6,-22 13,-29 38,-41 57,-68 57,-86 0,-11 4,-20 8,-20 11,0 33,-111 38,-195 5,-72 11,-225 20,-472 3,-80 9,-143 15,-143 5,0 9,-53 9,-125 0,-69 4,-125 9,-125 5,0 9,-85 10,-188 1,-103 6,-237 12,-297 5,-61 12,-278 16,-482 3,-205 10,-373 14,-373 5,0 9,-99 9,-220 0,-121 4,-220 9,-220 4,0 12,-71 16,-157 5,-87 9,-176 11,-198 1,-22 4,-69 8,-105 3,-36 7,-131 7,-213 1,-81 5,-150 10,-153 5,-3 9,-108 9,-235 0,-136 4,-229 9,-229 6,0 12,-83 14,-197 2,-109 6,-234 10,-278 3,-44 8,-170 12,-280 4,-110 11,-204 16,-209 5,-6 9,-101 9,-213 0,-129 4,-203 10,-203 6,0 10,-70 10,-189 0,-103 4,-201 10,-217 11,-33 28,-339 36,-634 3,-107 10,-196 15,-198 5,-2 9,-91 9,-203 0,-109 4,-199 8,-199 10,0 33,-316 39,-537 2,-87 8,-153 13,-153 6,0 10,-73 10,-180 0,-113 4,-180 10,-180 6,0 10,-51 10,-132 0,-73 5,-151 10,-173 6,-22 13,-121 16,-220 4,-99 10,-184 15,-189 5,-6 9,-101 9,-212 0,-152 3,-204 13,-208 9,-5 9,-7 0,-12 -15,-7 -18,-104 -3,-104 6,0 10,-33 10,-80 0,-47 -4,-80 -10,-80 -5,0 -10,-13 -10,-30 0,-16 5,-30 10,-30 7,0 10,-193 10,-560 0,-441 -3,-560 -12,-560 -10,0 -10,-2 -1,-8 10,-6 13,-176 16,-727 3,-396 7,-819 9,-940 3,-121 8,-380 12,-575 4,-195 9,-391 13,-435 3,-44 7,-244 10,-445 2,-212 8,-366 14,-368 12,-5 12,-112 -1,-112 -5,0 -10,-16 -10,-35 0,-19 4,-35 10,-35 5,0 11,-93 14,-232 3,-128 10,-363 15,-523 18,-502 22,-699 16,-743 -5,-36 -10,-42 -31,-42 -13,0 -24,-4 -24,-9 0,-12 -638,-19 -1530,-18 -909,2 -974,1 -978,-11 -2,-7 -15,-12 -28,-12 -13,0 -24,-4 -24,-10 0,-5 -7,-10 -16,-10 -19,0 -74,-53 -74,-72 0,-8 -5,-19 -11,-25 -8,-8 -8,-13 0,-17 6,-4 11,-27 11,-52 0,-37 3,-44 20,-44 11,0 20,-4 20,-10 0,-5 11,-20 25,-34 14,-14 25,-30 25,-36 0,-5 11,-10 25,-10 14,0 25,-4 25,-10 0,-5 12,-10 28,-10 15,0 43,-5 62,-11 19,-5 85,-12 145,-14 61,-2 133,-9 162,-14 81,-16 1280,-15 1285,1 4,10 13,10 44,1 24,-7 94,-10 184,-8 80,2 255,7 389,10 197,5 246,4 252,-7 5,-7 7,-179 4,-383 -4,-225 -1,-433 5,-530 6,-88 14,-240 17,-338 3,-97 9,-177 14,-177 5,0 9,-109 9,-245 0,-157 4,-245 10,-245 6,0 10,-31 10,-72 1,-40 7,-100 15,-133 8,-33 15,-79 15,-102 0,-24 5,-43 10,-43 6,0 10,-25 10,-55 0,-30 5,-55 10,-55 6,0 10,-13 10,-29 0,-35 26,-100 49,-121 9,-8 21,-24 27,-35 6,-11 23,-21 38,-23 14,-2 26,-8 26,-14 0,-17 32,-36 52,-30 10,2 18,8 18,13 0,5 5,9 10,9 6,0 10,-7 10,-16 0,-23 24,-11 28,14 4,28 22,29 22,2 0,-11 5,-20 10,-20 6,0 10,5 10,10 0,6 9,10 21,10 22,0 49,22 49,39 0,6 4,11 9,11 5,0 17,20 28,45 10,25 21,45 26,45 4,0 7,9 7,20 0,11 -4,20 -10,20 -5,0 -10,22 -10,49 0,58 -29,191 -41,191 -5,0 -9,45 -9,100 0,55 -4,100 -9,100 -8,0 -11,25 -31,290 -6,80 -15,147 -21,151 -8,5 -8,12 0,27 14,26 15,292 1,292 -6,0 -10,63 -10,170 0,107 -4,170 -10,170 -6,0 -10,135 -10,385 0,250 4,385 10,385 15,0 12,67 -2,74 -10,5 -10,7 0,12 6,3 12,14 12,24 0,10 4,21 8,24 14,8 240,19 485,23 133,2 227,8 227,14 0,14 157,11 164,-3 5,-10 7,-10 12,0 4,9 75,12 305,12 167,0 299,4 299,9 0,5 127,12 283,16 155,4 314,8 352,10 39,2 210,6 380,9 190,4 311,10 313,16 5,13 142,13 142,0 0,-6 27,-10 60,-10 33,0 60,4 60,10 0,15 87,12 94,-2 5,-10 7,-10 12,0 4,9 109,12 475,12 306,0 469,3 469,10 0,15 47,12 53,-2 4,-9 8,-10 14,-2 5,8 140,13 423,19 228,4 442,8 475,10 73,4 949,15 1170,15 224,0 970,-10 1030,-14 28,-2 345,-7 705,-11 360,-4 656,-11 658,-16 5,-14 40,-11 46,4 5,10 7,10 12,0 4,-10 57,-13 215,-13 133,0 209,-4 209,-10 0,-15 87,-12 93,2 4,10 7,10 14,0 7,-9 63,-14 199,-19 104,-3 205,-5 224,-3 61,4 73,4 190,-4 63,-4 309,-10 545,-12 263,-3 431,-8 433,-14 5,-13 142,-13 142,0 0,6 16,10 35,10 19,0 35,-4 35,-10 0,-15 157,-13 164,3 5,9 7,9 12,0 4,-10 107,-13 465,-13 299,0 459,-3 459,-10 0,-6 45,-10 115,-10 70,0 115,4 115,10 0,6 11,10 25,10 14,0 25,-4 25,-10 0,-6 102,-10 285,-10 183,0 285,4 285,10 0,6 7,10 15,10 8,0 15,-4 15,-10 0,-15 67,-12 73,3 4,9 8,8 17,-3 9,-11 13,-12 17,-3 6,16 143,18 143,3 0,-5 11,-10 25,-10 14,0 25,5 25,10 0,6 25,10 55,10 30,0 55,-4 55,-10 0,-5 7,-10 15,-10 8,0 15,5 15,10 0,6 40,10 100,10 55,0 100,-4 100,-9 0,-5 166,-11 383,-14 210,-3 495,-13 632,-23 138,-9 370,-18 518,-21 163,-2 267,-7 267,-13 0,-6 35,-10 80,-10 47,0 80,4 80,10 0,6 9,10 20,10 11,0 20,-4 20,-10 0,-6 38,-10 94,-10 52,0 96,-4 98,-9 2,-4 159,-11 349,-14 193,-4 358,-11 373,-17 14,-5 102,-10 194,-9 106,0 168,-4 170,-11 5,-13 42,-13 42,0 0,6 11,10 25,10 14,0 25,-4 25,-10 0,-6 72,-10 195,-10 h 195 v -24 c 0,-14 -6,-31 -12,-38 -22,-23 -38,-57 -38,-78 0,-11 -4,-20 -10,-20 -5,0 -10,-7 -10,-15 0,-8 -4,-15 -8,-15 -5,0 -17,-18 -28,-40 -10,-22 -22,-40 -26,-40 -5,0 -8,-7 -8,-15 0,-8 -4,-15 -10,-15 -5,0 -10,-11 -10,-24 0,-14 -7,-31 -15,-40 -10,-10 -15,-35 -15,-79 0,-43 -4,-67 -13,-71 -9,-5 -9,-7 1,-12 6,-3 12,-13 12,-22 0,-8 26,-39 57,-69 59,-54 85,-63 125,-42 15,8 26,8 43,-1 13,-7 35,-10 48,-6 30,7 127,100 127,121 0,8 5,15 10,15 6,0 10,9 10,20 0,11 5,20 10,20 6,0 10,11 10,25 0,14 4,25 9,25 5,0 12,11 15,25 4,14 11,25 16,25 6,0 10,9 10,20 0,11 5,20 10,20 6,0 10,7 10,15 0,8 4,15 8,15 5,0 16,15 25,33 27,51 39,68 85,113 23,23 42,45 42,49 0,3 10,17 23,30 33,36 47,53 47,60 0,3 11,17 25,31 14,14 25,30 25,35 0,16 27,39 44,39 9,0 16,5 16,10 0,6 11,10 25,10 16,0 25,6 25,15 0,8 3,15 8,15 9,0 62,45 62,54 0,4 10,18 23,31 45,48 47,54 47,124 0,46 4,71 13,74 10,4 10,6 0,6 -7,1 -13,10 -13,22 0,26 -23,49 -49,49 -12,0 -21,6 -21,15 0,8 -4,15 -10,15 -5,0 -10,9 -10,20 0,17 -7,20 -50,20 -28,0 -59,6 -70,12 -16,10 -24,10 -40,0 -11,-6 -25,-12 -31,-12 -6,0 -30,-20 -55,-45 -24,-25 -48,-45 -53,-45 -5,0 -12,-6 -14,-12 -4,-10 -6,-10 -6,0 -1,6 -12,12 -26,12 -14,0 -25,5 -25,10 0,6 -6,10 -13,10 -7,0 -24,11 -39,25 -15,14 -34,25 -43,25 -8,0 -15,4 -15,8 0,4 -22,21 -50,37 -27,16 -50,33 -50,37 0,4 -9,8 -20,8 -11,0 -20,5 -20,10 0,6 -5,10 -11,10 -6,0 -17,6 -24,13 -35,30 -45,37 -59,37 -7,0 -16,6 -19,14 -3,8 -22,20 -41,27 -20,7 -36,17 -36,21 0,4 -11,8 -25,8 -14,0 -25,5 -25,10 0,6 -15,10 -32,10 -18,1 -51,7 -73,15 -52,19 -106,19 -131,0 -10,-8 -27,-15 -36,-15 -10,0 -18,-4 -18,-10 0,-5 -5,-10 -11,-10 -14,0 -39,-25 -39,-39 0,-6 -4,-11 -10,-11 -5,0 -10,-13 -10,-29 0,-16 -7,-34 -15,-41 -31,-26 7,-140 47,-140 4,0 8,-16 8,-35 0,-44 -20,-50 -144,-41 -50,4 -197,10 -326,12 -129,3 -236,10 -238,15 -2,5 -130,9 -302,9 -229,0 -300,3 -303,13 -4,9 -8,8 -16,-3 -8,-11 -13,-12 -18,-4 -6,8 -87,14 -253,18 -274,6 -364,11 -560,27 -74,7 -334,14 -577,16 -280,2 -443,7 -443,13 0,6 -9,10 -20,10 -11,0 -20,-4 -20,-10 0,-15 -97,-13 -103,3 -4,9 -6,9 -6,0 -1,-15 -71,-18 -71,-3 0,6 -88,10 -245,10 -157,0 -245,-4 -245,-10 0,-16 -717,-13 -723,3 -4,9 -8,8 -16,-3 -8,-11 -13,-12 -18,-4 -6,9 -181,14 -623,18 -338,4 -752,9 -920,12 -168,3 -472,8 -676,10 -205,2 -434,8 -510,14 -77,5 -185,10 -241,10 -62,0 -103,4 -103,10 0,6 -13,10 -30,10 -16,0 -30,-4 -30,-10 0,-5 -7,-10 -15,-10 -8,0 -15,4 -15,10 0,6 -140,11 -372,15 -205,3 -445,7 -533,9 -88,3 -410,8 -715,11 -305,4 -640,8 -745,10 -266,4 -342,3 -845,-1 -1266,-12 -1546,-16 -1558,-26 -8,-7 -26,-7 -59,3 -33,9 -48,9 -50,2 -3,-8 -167,-11 -541,-12 -335,-1 -538,-5 -540,-11 -5,-13 -92,-13 -92,0 0,6 -9,10 -20,10 -11,0 -20,-4 -20,-9 0,-5 -186,-12 -412,-15 -227,-4 -447,-8 -488,-10 -41,-1 -201,-6 -355,-10 -154,-5 -343,-10 -420,-13 -77,-2 -246,-6 -375,-9 -132,-3 -236,-9 -238,-15 -6,-14 -139,-11 -146,4 -5,10 -7,10 -12,0 -7,-15 -94,-18 -94,-3 0,13 -37,13 -42,0 -2,-7 -319,-14 -510,-10 h -28 v 90 c 0,53 -4,90 -10,90 -5,0 -10,11 -10,25 0,14 5,25 10,25 6,0 10,16 10,35 0,19 -4,35 -9,35 -5,0 -12,143 -16,318 -8,367 -11,460 -21,637 -11,204 -14,301 -20,590 -3,148 -9,272 -14,275 -4,3 -11,145 -14,315 -5,299 -22,908 -30,1145 -3,63 -8,508 -11,988 -4,498 -11,872 -16,872 -5,0 -9,9 -9,20 0,11 5,20 10,20 14,0 12,27 -2,34 -10,5 -10,7 0,12 15,7 18,434 2,434 -5,0 -10,11 -10,25 0,14 5,25 10,25 15,0 12,67 -2,74 -10,5 -10,7 0,12 14,7 16,54 2,54 -5,0 -10,11 -10,25 0,14 5,25 10,25 6,0 10,40 10,100 0,60 -4,100 -10,100 -6,0 -10,103 -10,290 0,187 -4,290 -10,290 -6,0 -10,60 -10,160 0,87 -5,181 -11,209 -13,61 -29,300 -35,524 -3,96 -9,167 -14,167 -6,0 -10,11 -10,25 0,14 6,25 13,25 9,0 9,2 0,8 -8,5 -13,52 -16,137 -14,386 -28,670 -37,746 -5,48 -10,150 -10,228 0,87 -4,141 -10,141 -6,0 -10,56 -10,149 0,97 -4,151 -11,153 -7,2 -7,12 0,31 7,18 8,35 2,45 -5,9 -12,71 -16,137 -4,66 -9,147 -11,180 -3,33 -7,139 -10,235 -3,96 -9,177 -15,178 -5,2 -9,94 -9,218 0,118 -4,214 -8,214 -5,0 -12,114 -17,253 -4,138 -9,281 -11,317 -10,176 -26,557 -30,743 -3,122 -9,207 -14,207 -6,0 -10,7 -10,15 0,8 5,15 10,15 6,0 10,9 10,20 0,11 -4,20 -10,20 -6,0 -10,30 -10,70 0,40 4,70 10,70 6,0 10,15 10,33 0,17 5,39 10,47 7,10 10,-12 10,-71 0,-47 7,-108 15,-135 8,-27 15,-66 15,-86 0,-21 5,-38 10,-38 6,0 10,-22 10,-50 0,-27 5,-50 10,-50 6,0 10,-26 10,-59 0,-33 5,-72 12,-88 12,-30 26,-107 35,-190 2,-29 9,-53 14,-53 5,0 9,-17 9,-39 0,-21 7,-55 15,-74 8,-20 15,-50 15,-66 0,-16 5,-33 10,-36 6,-3 10,-28 10,-56 0,-27 5,-49 10,-49 6,0 10,-25 10,-55 0,-30 5,-55 10,-55 6,0 10,-10 10,-22 0,-32 33,-162 43,-166 4,-2 7,-34 7,-72 0,-38 4,-70 9,-72 5,-1 17,-43 26,-93 10,-49 21,-98 26,-107 5,-10 9,-34 9,-53 0,-19 4,-35 9,-35 5,0 11,-19 14,-42 8,-61 28,-150 38,-170 5,-10 9,-36 9,-58 0,-22 5,-40 10,-40 6,0 10,-18 10,-40 0,-21 6,-54 14,-72 23,-55 36,-103 36,-131 0,-15 5,-27 10,-27 6,0 10,-20 10,-45 0,-25 4,-45 8,-45 5,0 17,-43 27,-95 11,-52 23,-95 27,-95 4,0 8,-25 8,-55 0,-30 4,-55 9,-55 5,0 11,-17 14,-37 11,-76 31,-153 39,-153 4,0 8,-16 8,-35 0,-19 5,-35 10,-35 6,0 10,-17 10,-37 0,-21 12,-69 25,-108 14,-38 25,-82 25,-97 0,-16 5,-28 10,-28 6,0 10,-16 10,-35 0,-19 5,-35 10,-35 6,0 10,-14 10,-30 0,-17 7,-47 15,-67 8,-19 15,-48 15,-64 0,-16 5,-29 10,-29 6,0 10,-16 10,-35 0,-19 4,-35 9,-35 5,0 11,-12 14,-27 9,-44 31,-103 39,-103 5,0 8,-20 8,-45 0,-25 5,-45 10,-45 6,0 10,-7 10,-16 0,-22 33,-118 43,-122 4,-2 7,-15 7,-28 0,-13 5,-24 10,-24 6,0 10,-16 10,-35 0,-19 5,-35 10,-35 6,0 10,-8 10,-18 0,-10 7,-27 15,-38 8,-10 15,-27 15,-36 0,-10 5,-18 10,-18 6,0 10,-16 10,-35 0,-19 5,-35 10,-35 6,0 10,-9 10,-21 0,-11 7,-27 15,-35 8,-9 15,-26 15,-40 0,-13 5,-24 10,-24 6,0 10,-16 10,-35 0,-19 5,-35 10,-35 6,0 10,-8 10,-17 0,-10 7,-27 15,-37 8,-11 15,-28 15,-38 0,-10 5,-18 10,-18 6,0 10,-16 10,-35 0,-19 5,-35 10,-35 6,0 10,-8 10,-19 0,-10 11,-44 25,-75 14,-31 25,-65 25,-76 0,-11 4,-20 9,-20 5,0 21,-29 36,-65 16,-36 32,-65 37,-65 4,0 8,-11 8,-25 0,-14 5,-25 10,-25 6,0 10,-11 10,-24 0,-13 7,-29 15,-36 8,-7 15,-19 15,-26 0,-8 5,-14 10,-14 6,0 10,-13 10,-30 0,-16 5,-30 10,-30 6,0 10,-9 10,-21 0,-11 7,-27 15,-35 8,-9 15,-24 15,-34 0,-10 5,-22 10,-25 6,-3 10,-15 10,-26 0,-10 5,-19 10,-19 6,0 10,-7 10,-15 0,-9 11,-33 25,-55 14,-22 25,-46 25,-55 0,-8 5,-15 10,-15 6,0 10,-11 10,-25 0,-14 4,-25 8,-25 4,0 13,-20 20,-44 6,-24 18,-51 27,-59 8,-9 15,-25 15,-36 0,-12 5,-21 10,-21 6,0 10,-9 10,-20 0,-11 4,-20 10,-20 5,0 12,-11 16,-25 3,-14 10,-25 15,-25 5,0 9,-9 9,-19 0,-11 3,-21 8,-23 4,-1 20,-29 37,-60 16,-32 33,-58 37,-58 4,0 8,-9 8,-20 0,-11 5,-20 10,-20 6,0 18,-16 27,-35 9,-19 20,-35 25,-35 4,0 8,-7 8,-15 0,-8 4,-15 9,-15 5,0 11,-10 15,-23 3,-13 15,-34 26,-47 11,-13 20,-29 20,-37 0,-7 5,-13 10,-13 6,0 10,-9 10,-20 0,-11 4,-20 8,-20 5,0 17,-16 28,-35 10,-19 22,-35 26,-35 5,0 8,-7 8,-15 0,-8 3,-15 8,-15 4,0 16,-18 26,-40 11,-22 23,-40 28,-40 4,0 8,-7 8,-15 0,-8 3,-15 8,-15 4,0 20,-24 36,-53 16,-28 38,-58 48,-65 10,-7 18,-20 18,-28 0,-8 4,-14 10,-14 5,0 12,-11 16,-25 3,-14 10,-25 15,-25 5,0 9,-7 9,-15 0,-9 11,-28 25,-43 14,-15 25,-32 25,-39 0,-7 5,-13 10,-13 6,0 10,-9 10,-20 0,-11 5,-20 10,-20 6,0 18,-17 28,-37 17,-37 35,-61 80,-107 12,-13 22,-28 22,-35 0,-6 4,-11 8,-11 5,0 17,-16 28,-35 10,-19 22,-35 26,-35 5,0 8,-7 8,-15 0,-8 5,-15 10,-15 6,0 10,-9 10,-20 0,-11 4,-20 9,-20 5,0 12,-9 16,-19 3,-11 15,-23 26,-26 10,-4 19,-15 19,-26 0,-10 5,-19 10,-19 6,0 10,-5 10,-10 0,-11 10,-25 48,-65 12,-13 22,-27 22,-30 0,-3 10,-17 23,-30 33,-35 58,-67 70,-92 5,-13 14,-23 19,-23 4,0 8,-6 8,-13 0,-7 9,-19 20,-27 11,-8 20,-19 20,-25 0,-5 20,-32 45,-60 25,-27 48,-57 51,-67 3,-10 10,-18 15,-18 5,0 9,-5 9,-11 0,-6 20,-30 45,-53 25,-24 45,-51 45,-60 0,-9 7,-16 15,-16 8,0 15,-4 15,-9 0,-4 14,-22 30,-39 17,-18 30,-35 30,-40 0,-4 16,-25 35,-45 19,-20 35,-39 35,-42 0,-7 16,-27 58,-70 17,-19 32,-37 32,-40 0,-4 17,-24 38,-44 20,-21 46,-51 57,-67 11,-15 73,-82 138,-147 64,-65 117,-123 117,-128 0,-4 45,-54 100,-109 55,-56 100,-106 100,-111 0,-5 7,-9 15,-9 8,0 15,-5 15,-11 0,-12 50,-59 63,-59 4,0 7,-9 7,-20 0,-11 6,-20 14,-20 8,0 23,-11 34,-25 11,-14 23,-25 26,-25 14,0 86,-79 86,-94 0,-8 10,-18 22,-22 28,-9 48,-28 48,-48 0,-8 9,-17 19,-21 10,-3 53,-39 96,-80 42,-41 85,-77 96,-80 10,-4 19,-15 19,-26 0,-10 6,-19 14,-19 8,0 40,-25 71,-55 32,-30 61,-55 66,-55 5,0 9,-7 9,-15 0,-8 5,-15 10,-15 6,0 22,-10 35,-22 62,-57 75,-68 80,-68 6,0 48,-38 93,-82 32,-33 62,-58 67,-58 3,0 25,-20 49,-45 25,-25 48,-45 53,-45 5,0 26,-16 46,-35 20,-19 39,-35 42,-35 7,0 25,-15 60,-47 13,-13 29,-23 35,-23 5,0 10,-4 10,-9 0,-5 8,-12 19,-16 10,-3 33,-19 50,-35 17,-17 35,-30 40,-30 5,0 25,-15 44,-33 38,-36 57,-49 105,-74 17,-9 32,-20 32,-25 0,-4 5,-8 10,-8 6,0 22,-11 36,-25 14,-14 30,-25 37,-25 7,0 19,-9 27,-20 8,-11 20,-20 27,-20 7,0 23,-11 37,-25 14,-14 32,-25 41,-25 8,0 15,-4 15,-10 0,-5 9,-10 19,-10 11,0 32,-11 47,-25 15,-14 33,-25 40,-25 7,0 14,-3 16,-7 2,-5 29,-21 61,-37 31,-15 57,-32 57,-37 0,-5 9,-9 20,-9 11,0 20,-3 20,-7 0,-5 20,-16 45,-26 25,-11 45,-23 45,-28 0,-5 11,-9 25,-9 14,0 25,-4 25,-10 0,-5 9,-10 19,-10 11,0 23,-4 26,-10 3,-5 14,-10 25,-10 10,0 20,-7 24,-15 3,-8 14,-15 25,-15 11,0 21,-3 23,-7 4,-10 110,-63 126,-63 6,0 12,-4 12,-10 0,-5 9,-10 20,-10 11,0 20,-4 20,-10 0,-5 6,-10 14,-10 7,0 34,-11 60,-25 26,-14 56,-25 67,-25 10,0 19,-4 19,-8 0,-4 23,-16 50,-26 28,-10 50,-22 50,-27 0,-5 11,-9 25,-9 14,0 25,-4 25,-10 0,-5 14,-10 30,-10 17,0 30,-4 30,-10 0,-5 6,-10 14,-10 18,0 76,-32 76,-42 0,-5 11,-8 25,-8 14,0 25,-4 25,-8 0,-4 20,-13 44,-20 24,-6 51,-18 59,-27 9,-8 25,-15 36,-15 12,0 21,-4 21,-10 0,-5 9,-10 20,-10 17,0 66,-18 112,-41 10,-5 25,-9 33,-9 8,0 15,-4 15,-10 0,-5 11,-10 24,-10 13,0 37,-7 52,-15 16,-8 37,-15 46,-15 9,0 20,-5 23,-10 3,-6 15,-10 26,-10 10,0 19,-4 19,-10 0,-5 11,-10 25,-10 14,0 25,-4 25,-10 0,-5 10,-10 23,-10 29,0 117,-32 117,-42 0,-4 18,-8 40,-8 22,0 40,-4 40,-10 0,-5 11,-10 25,-10 14,0 33,-4 43,-9 39,-19 122,-41 156,-41 20,0 36,-4 36,-10 0,-5 7,-10 15,-10 8,0 23,-4 33,-9 23,-12 99,-32 145,-38 20,-3 37,-9 37,-13 0,-4 17,-10 38,-13 74,-11 127,-24 149,-35 12,-7 35,-12 52,-12 17,0 31,-4 31,-10 0,-5 23,-10 50,-10 28,0 50,-4 50,-9 0,-9 10,-12 118,-32 34,-6 62,-16 62,-20 0,-5 23,-9 50,-9 28,0 50,-4 50,-10 0,-5 18,-10 39,-10 22,0 43,-4 46,-10 3,-5 25,-10 48,-10 23,-1 60,-7 82,-15 22,-8 59,-15 83,-15 23,0 42,-4 42,-10 0,-5 20,-10 45,-10 25,0 45,-4 45,-8 0,-8 131,-31 228,-39 28,-3 52,-9 52,-14 0,-5 19,-9 43,-9 24,0 47,-4 53,-9 5,-5 27,-11 49,-14 129,-16 190,-28 193,-37 2,-6 43,-10 93,-10 49,0 89,-4 89,-9 0,-4 28,-11 63,-14 34,-4 107,-14 162,-23 55,-9 133,-18 173,-21 39,-2 72,-9 72,-14 0,-5 36,-9 79,-9 47,0 81,-4 83,-11 4,-11 83,-25 201,-35 42,-4 77,-11 77,-15 0,-5 29,-9 65,-9 36,0 65,-4 65,-8 0,-5 47,-12 105,-15 57,-3 113,-11 124,-16 11,-6 47,-11 80,-11 34,0 61,-4 61,-10 0,-6 27,-10 60,-10 33,0 60,-4 60,-9 0,-5 33,-12 73,-15 166,-12 261,-24 265,-35 2,-7 37,-11 98,-11 56,0 94,-4 94,-10 0,-6 36,-10 89,-10 50,0 92,-4 95,-9 3,-5 54,-12 113,-16 60,-4 128,-10 153,-13 25,-2 120,-6 213,-9 93,-2 167,-8 167,-14 0,-5 72,-9 171,-9 94,0 178,-4 188,-9 10,-6 87,-13 172,-16 85,-4 192,-9 239,-12 47,-3 238,-7 425,-9 229,-2 341,-6 343,-13 6,-17 1268,-15 1276,2 5,9 7,9 12,0 8,-19 670,-19 677,0 4,9 8,8 17,-3 9,-11 13,-12 17,-2 6,16 63,16 63,0 0,-10 2,-10 8,0 6,9 53,14 158,18 82,3 157,10 166,15 11,6 25,6 36,0 12,-6 34,-6 62,0 29,7 74,6 138,-1 89,-11 267,-8 477,6 73,6 93,11 108,27 9,11 17,27 17,35 0,11 8,13 31,8 46,-9 119,33 119,69 0,8 7,18 15,21 17,7 21,44 5,44 -14,0 -12,28 3,33 12,4 -11,29 -78,85 l -28,23 -435,-1 c -240,0 -438,-4 -442,-9 -6,-10 -714,-23 -1235,-23 -541,0 -1320,14 -1323,23 -2,5 -89,9 -192,9 -104,0 -191,3 -194,8 -2,4 -82,9 -178,10 -95,1 -220,7 -278,12 -58,5 -178,12 -267,16 -90,4 -163,11 -163,15 0,5 -65,9 -145,9 -90,0 -145,4 -145,10 0,6 -39,10 -97,10 -54,1 -129,5 -168,11 -69,11 -233,25 -392,35 -46,3 -83,10 -83,15 0,5 -18,9 -39,9 -22,0 -75,7 -118,15 -43,8 -93,15 -110,15 -18,0 -33,5 -33,10 0,6 -37,10 -90,10 -49,0 -90,4 -90,9 0,5 -28,11 -62,14 -35,2 -112,14 -173,26 -60,11 -131,21 -157,21 -27,0 -48,5 -48,10 0,6 -33,10 -80,10 -47,0 -80,4 -80,10 0,6 -19,10 -43,10 -23,0 -74,7 -112,15 -39,8 -91,15 -117,15 -27,0 -48,5 -48,10 0,6 -35,10 -85,10 -50,0 -85,4 -85,10 0,6 -18,10 -41,10 -22,0 -49,5 -60,10 -10,6 -48,13 -84,17 -36,3 -65,10 -65,14 0,5 -31,9 -70,9 -40,0 -70,4 -70,10 0,6 -27,10 -60,10 -33,0 -68,4 -78,9 -23,12 -179,41 -219,41 -18,0 -33,4 -33,9 0,5 -28,11 -62,14 -35,3 -97,13 -138,22 -41,9 -96,19 -122,22 -27,3 -48,9 -48,14 0,5 -22,9 -50,9 -27,0 -50,5 -50,10 0,6 -15,10 -34,10 -42,0 -178,29 -190,41 -6,5 -32,9 -58,9 -26,0 -48,5 -48,10 0,6 -11,10 -23,10 -13,0 -59,10 -103,21 -43,12 -96,24 -116,26 -21,3 -38,9 -38,14 0,5 -22,9 -50,9 -27,0 -50,4 -50,9 0,5 -17,11 -37,14 -66,10 -143,31 -143,39 0,4 -22,8 -50,8 -27,0 -50,5 -50,10 0,6 -17,10 -38,10 -21,0 -47,7 -58,15 -10,8 -27,15 -36,15 -10,0 -18,5 -18,10 0,6 -22,10 -50,10 -27,0 -50,5 -50,10 0,6 -13,10 -30,10 -16,0 -30,5 -30,10 0,6 -10,10 -22,10 -13,0 -36,7 -52,15 -15,8 -37,15 -47,15 -11,0 -19,5 -19,10 0,6 -9,10 -20,10 -10,0 -29,4 -42,9 -13,5 -51,18 -85,28 -35,10 -63,21 -63,26 0,4 -16,7 -35,7 -19,0 -35,3 -35,8 0,4 -27,16 -60,26 -33,11 -60,23 -60,28 0,4 -9,8 -20,8 -11,0 -20,5 -20,10 0,6 -9,10 -20,10 -22,0 -93,31 -98,43 -2,4 -16,7 -32,7 -16,0 -30,3 -32,8 -4,9 -128,62 -145,62 -7,0 -13,5 -13,10 0,6 -10,10 -22,10 -26,0 -98,31 -98,42 0,4 -11,8 -25,8 -14,0 -25,5 -25,10 0,6 -9,10 -19,10 -11,0 -21,3 -23,8 -4,9 -110,62 -126,62 -6,0 -12,5 -12,10 0,6 -11,10 -25,10 -14,0 -25,4 -25,9 0,5 -20,17 -45,28 -25,10 -45,21 -45,26 0,4 -11,7 -24,7 -14,0 -28,5 -31,10 -3,5 -14,10 -24,10 -10,0 -24,7 -31,15 -7,8 -21,15 -31,15 -11,0 -19,5 -19,10 0,6 -11,10 -25,10 -14,0 -25,4 -25,9 0,5 -20,17 -45,28 -25,10 -45,21 -45,26 0,4 -9,7 -20,7 -11,0 -20,5 -20,10 0,6 -7,10 -15,10 -8,0 -15,4 -15,8 0,5 -20,17 -45,28 -25,10 -45,22 -45,26 0,4 -9,8 -20,8 -11,0 -20,5 -20,10 0,6 -7,10 -15,10 -8,0 -25,11 -39,25 -14,14 -34,25 -46,25 -11,0 -20,4 -20,8 0,5 -16,17 -35,28 -19,10 -35,22 -35,26 0,5 -9,8 -20,8 -11,0 -20,5 -20,10 0,6 -5,10 -10,10 -6,0 -23,11 -38,25 -15,14 -32,25 -39,25 -7,0 -13,3 -13,8 0,4 -20,21 -45,37 -24,17 -45,33 -45,38 0,4 -6,7 -13,7 -7,0 -24,11 -39,25 -15,14 -34,25 -43,25 -8,0 -15,5 -15,10 0,6 -5,10 -11,10 -6,0 -26,16 -45,35 -18,19 -39,35 -45,35 -6,0 -30,20 -55,45 -24,25 -48,45 -53,45 -5,0 -26,16 -45,35 -20,19 -41,35 -46,35 -6,0 -26,16 -44,35 -19,19 -37,35 -41,35 -4,0 -22,16 -41,35 -18,19 -39,35 -45,35 -14,0 -39,25 -39,39 0,6 -4,11 -9,11 -5,0 -35,25 -66,55 -31,30 -60,55 -66,55 -5,0 -35,25 -65,55 -31,30 -60,55 -65,55 -5,0 -9,7 -9,15 0,8 -7,15 -15,15 -8,0 -71,56 -140,125 -69,69 -128,125 -131,125 -8,0 -34,27 -34,36 0,7 -25,30 -65,60 -15,10 -33,25 -40,32 -8,6 -18,12 -24,12 -6,0 -11,9 -11,20 0,11 -4,20 -10,20 -5,0 -10,7 -10,15 0,8 -5,15 -10,15 -11,0 -60,45 -60,55 0,3 -53,60 -117,125 -138,140 -163,167 -163,176 0,3 -24,30 -54,59 -29,29 -66,70 -82,91 -16,20 -48,56 -71,80 -24,23 -43,45 -43,49 0,8 -13,22 -82,96 -32,34 -58,67 -58,74 0,8 -9,16 -19,20 -11,3 -23,15 -26,26 -4,10 -11,19 -16,19 -5,0 -9,5 -9,11 0,6 -20,30 -45,55 -25,24 -45,50 -45,59 0,8 -4,15 -8,15 -4,0 -16,15 -27,33 -10,17 -38,51 -62,74 -24,23 -43,47 -43,52 0,5 -16,26 -35,47 -19,20 -35,43 -35,50 0,8 -4,14 -10,14 -5,0 -10,5 -10,10 0,6 -11,22 -25,36 -14,14 -25,30 -25,37 0,7 -9,19 -20,27 -11,8 -20,18 -20,23 0,12 -27,37 -39,37 -6,0 -11,9 -11,20 0,11 -4,20 -10,20 -5,0 -10,5 -10,10 0,6 -11,23 -25,38 -14,15 -25,30 -25,34 0,5 -16,25 -35,45 -19,20 -35,41 -35,45 0,4 -16,25 -35,45 -19,20 -35,43 -35,50 0,7 -4,13 -10,13 -5,0 -10,9 -10,20 0,11 -4,20 -10,20 -5,0 -10,5 -10,10 0,6 -11,23 -25,38 -14,15 -25,32 -25,39 0,7 -4,13 -10,13 -5,0 -10,5 -10,11 0,6 -6,17 -12,24 -30,33 -38,45 -38,55 0,5 -4,10 -10,10 -5,0 -10,9 -10,20 0,11 -4,20 -8,20 -5,0 -17,16 -28,35 -10,19 -22,35 -26,35 -5,0 -8,9 -8,20 0,11 -4,20 -10,20 -5,0 -10,5 -10,11 0,6 -6,17 -12,24 -30,33 -38,45 -38,55 0,5 -4,10 -10,10 -5,0 -10,9 -10,20 0,11 -4,20 -8,20 -5,0 -17,16 -28,35 -10,19 -22,35 -26,35 -5,0 -8,8 -8,18 0,9 -11,30 -25,46 -14,16 -25,34 -25,40 0,7 -9,18 -20,26 -11,8 -20,20 -20,26 0,6 -7,17 -15,24 -8,7 -15,19 -15,28 0,8 -8,22 -18,31 -9,9 -26,34 -37,55 -35,68 -40,76 -47,76 -5,0 -8,8 -8,18 0,15 -11,32 -60,89 -5,7 -10,21 -10,33 0,11 -4,20 -9,20 -4,0 -16,20 -25,45 -10,25 -22,45 -27,45 -5,0 -9,11 -9,24 0,13 -3,26 -7,28 -12,5 -63,111 -63,131 0,10 -11,29 -25,43 -14,14 -25,36 -25,49 0,14 -4,25 -10,25 -5,0 -10,11 -10,25 0,14 -4,25 -10,25 -5,0 -10,11 -10,25 0,14 -4,25 -9,25 -5,0 -17,20 -28,45 -10,25 -21,45 -25,45 -5,0 -8,14 -8,30 0,17 -4,30 -10,30 -5,0 -10,11 -10,25 0,14 -4,25 -10,25 -5,0 -12,16 -16,35 -3,19 -10,35 -15,35 -5,0 -9,7 -9,15 0,8 -4,15 -10,15 -5,0 -10,9 -10,20 0,11 -4,20 -9,20 -5,0 -12,13 -16,30 -4,16 -11,32 -16,35 -5,4 -9,15 -9,26 0,10 -4,19 -10,19 -5,0 -10,11 -10,25 0,14 -4,25 -10,25 -5,0 -10,8 -10,17 0,25 -31,103 -41,103 -5,0 -9,20 -9,45 0,25 -4,45 -10,45 -5,0 -10,8 -10,18 0,9 -7,26 -15,36 -8,11 -15,30 -15,43 0,13 -4,23 -10,23 -5,0 -10,9 -10,20 0,11 -4,20 -10,20 -5,0 -10,9 -10,20 0,17 -18,66 -41,112 -5,10 -9,25 -9,33 0,8 -4,15 -8,15 -10,0 -32,60 -32,89 0,12 -7,29 -15,37 -8,9 -15,26 -15,40 0,13 -4,24 -10,24 -5,0 -10,16 -10,35 0,19 -4,35 -10,35 -5,0 -10,9 -10,20 0,17 -18,66 -41,112 -5,10 -9,29 -9,43 0,14 -4,25 -10,25 -5,0 -10,14 -10,30 0,17 -7,47 -15,67 -8,19 -15,44 -15,54 0,11 -4,19 -10,19 -5,0 -10,16 -10,35 0,19 -4,35 -10,35 -5,0 -10,17 -10,39 0,21 -9,59 -20,85 -12,25 -24,69 -27,96 -3,28 -10,50 -14,50 -5,0 -9,16 -9,35 0,19 -4,35 -9,35 -6,0 -13,20 -17,45 -3,25 -10,48 -15,51 -5,3 -9,23 -9,45 0,21 -4,39 -10,39 -5,0 -10,18 -10,40 0,22 -4,40 -10,40 -5,0 -10,16 -10,35 0,20 -7,52 -15,72 -8,19 -15,48 -15,64 0,16 -4,29 -10,29 -5,0 -10,16 -10,35 0,19 -4,35 -10,35 -5,0 -10,24 -10,53 0,30 -3,57 -7,61 -7,7 -13,33 -40,159 -3,15 -9,27 -14,27 -5,0 -9,24 -9,54 0,30 -4,57 -9,61 -6,3 -13,26 -17,50 -3,25 -10,45 -15,45 -5,0 -9,25 -9,55 0,30 -4,55 -10,55 -5,0 -10,18 -10,40 0,22 -4,40 -8,40 -5,0 -13,26 -19,58 -6,31 -18,84 -27,117 -8,33 -15,79 -16,103 0,23 -4,42 -10,42 -5,0 -10,11 -10,25 0,14 -7,42 -15,62 -8,19 -15,48 -15,64 0,16 -4,29 -10,29 -6,0 -10,27 -10,60 0,33 -4,60 -10,60 -6,0 -10,32 -10,75 0,41 -4,75 -8,75 -8,0 -28,77 -39,153 -3,20 -9,37 -14,37 -5,0 -9,20 -9,45 0,25 -4,45 -8,45 -8,0 -14,30 -38,193 -4,20 -10,37 -15,37 -5,0 -9,25 -9,55 0,30 -4,55 -9,55 -5,0 -12,24 -15,53 -13,122 -30,227 -38,227 -4,0 -8,32 -8,70 0,40 -4,70 -10,70 -6,0 -10,27 -10,60 0,35 -4,60 -10,60 -6,0 -10,15 -10,33 1,17 -4,61 -10,97 -6,36 -14,93 -17,128 -2,34 -9,62 -14,62 -5,0 -9,23 -9,50 0,28 -4,58 -9,68 -9,17 -31,134 -39,210 -2,23 -8,42 -13,42 -5,0 -9,32 -9,70 0,40 -4,70 -10,70 -5,0 -10,19 -10,43 0,39 -19,139 -41,213 -5,17 -9,54 -9,82 0,29 -4,52 -10,52 -6,0 -10,30 -10,71 0,38 -4,89 -9,112 -5,23 -17,125 -27,227 -10,102 -22,189 -28,193 -8,6 -7,10 2,14 14,6 16,43 2,43 -5,0 -10,19 -10,42 0,23 -4,55 -9,72 -22,74 -41,167 -41,200 0,20 -4,36 -10,36 -6,0 -10,30 -10,70 0,40 -4,70 -10,70 -5,0 -10,18 -10,39 0,22 -5,52 -11,68 -6,15 -13,59 -16,98 -2,38 -9,74 -14,79 -5,6 -9,32 -9,58 0,26 -4,48 -10,48 -5,0 -10,16 -10,35 0,19 -4,35 -9,35 -4,0 -11,29 -14,65 -4,36 -11,74 -17,84 -5,11 -10,33 -10,50 0,17 -4,31 -10,31 -5,0 -10,18 -10,40 0,22 -4,48 -9,58 -26,52 -41,96 -41,122 0,17 -4,30 -10,30 -5,0 -10,18 -10,40 0,22 -4,40 -10,40 -5,0 -10,24 -10,53 0,28 -7,93 -15,142 -8,50 -15,113 -15,142 0,31 -5,53 -12,56 -10,4 -9,8 2,17 11,9 12,13 3,17 -9,3 -13,32 -13,94 0,49 -4,89 -9,89 -5,0 -11,42 -14,93 -6,132 -29,327 -38,327 -4,0 -8,66 -8,148 -1,86 -5,148 -11,150 -6,2 -10,73 -10,179 0,161 1,174 18,170 86,-24 112,-32 112,-39 0,-4 7,-8 15,-8 8,0 15,5 15,10 0,6 11,10 25,10 14,0 25,-4 25,-10 0,-5 9,-10 20,-10 11,0 20,5 20,10 0,6 9,10 21,10 22,0 49,22 49,39 0,6 4,11 9,11 5,0 13,9 16,20 3,11 15,20 26,20 10,0 19,7 19,15 0,8 5,15 10,15 6,0 10,7 10,16 0,17 -15,35 -43,50 -16,9 -16,11 3,32 20,22 27,62 11,62 -5,0 -13,9 -16,20 -3,11 -13,20 -21,20 -18,0 -44,24 -44,39 0,6 -11,11 -25,11 -14,0 -25,4 -25,9 0,5 -20,17 -45,27 -25,9 -45,21 -45,25 0,5 -9,9 -20,9 -11,0 -20,5 -20,10 0,6 -11,10 -25,10 -14,0 -25,4 -25,9 0,5 -11,12 -25,15 -14,4 -25,11 -25,16 0,6 -9,10 -19,10 -25,0 -31,19 -31,96 0,36 -4,64 -10,64 -5,0 -10,9 -10,20 0,12 -10,31 -22,44 -13,13 -33,34 -45,47 -34,38 -51,49 -73,49 -11,0 -20,5 -20,10 0,6 -16,10 -35,10 -19,0 -35,-4 -35,-10 z m 616,-747 c -10,-10 -19,5 -10,18 6,11 8,11 12,0 2,-7 1,-15 -2,-18 z" />
        <path
           id="path4"
           d="m 2143,24762 c -24,-2 -43,-6 -43,-10 0,-4 -20,-14 -46,-21 -25,-7 -51,-20 -59,-27 -7,-8 -23,-14 -34,-14 -12,0 -21,-4 -21,-10 0,-5 -7,-10 -15,-10 -9,0 -28,-11 -43,-25 -15,-14 -31,-25 -35,-25 -17,0 -77,-75 -83,-102 -4,-16 -13,-28 -20,-28 -8,0 -20,-11 -26,-25 -6,-14 -15,-25 -20,-25 -4,0 -8,-9 -8,-20 0,-11 -4,-20 -10,-20 -5,0 -10,-7 -10,-15 0,-8 -4,-15 -10,-15 -5,0 -10,-6 -10,-14 0,-7 -7,-19 -15,-26 -10,-8 -15,-31 -15,-66 0,-30 -4,-54 -10,-54 -5,0 -10,-11 -10,-25 0,-14 -4,-25 -10,-25 -5,0 -10,-11 -10,-25 0,-14 5,-25 10,-25 6,0 10,-9 10,-20 0,-11 -4,-20 -10,-20 -5,0 -10,-25 -10,-55 0,-30 5,-55 10,-55 6,0 10,-18 10,-40 0,-22 4,-40 9,-40 5,0 11,-13 14,-30 4,-16 16,-39 27,-50 11,-11 20,-31 20,-44 0,-16 7,-27 20,-31 11,-3 20,-10 20,-15 0,-12 68,-80 80,-80 6,0 24,-13 40,-29 17,-16 46,-32 65,-35 19,-4 35,-11 35,-16 0,-6 18,-10 40,-10 22,0 40,-4 40,-10 0,-16 207,-13 214,3 5,10 7,10 12,0 7,-15 74,-18 74,-3 0,6 20,10 45,10 25,0 45,5 45,10 0,6 9,10 20,10 22,0 93,31 98,43 2,4 10,7 18,7 12,0 49,33 92,84 6,8 12,29 12,46 0,16 5,30 10,30 13,0 13,106 0,131 -15,27 -87,99 -100,99 -5,0 -10,3 -10,8 0,22 -142,43 -155,22 -3,-5 -17,-10 -31,-10 -13,0 -24,-4 -24,-10 0,-5 -8,-10 -18,-10 -10,0 -24,-9 -32,-20 -16,-22 -64,-50 -87,-50 -7,0 -13,-4 -13,-10 0,-5 -11,-10 -25,-10 -14,0 -25,5 -25,10 0,6 -9,10 -20,10 -24,0 -50,19 -87,64 -18,21 -17,137 2,162 8,10 15,27 15,37 0,9 5,17 10,17 6,0 10,7 10,15 0,8 19,33 41,56 38,39 47,43 92,43 32,1 52,-4 54,-11 3,-7 13,-13 23,-13 10,0 20,-5 22,-10 5,-16 171,-17 176,-2 2,7 8,12 13,12 11,0 28,13 62,47 42,42 47,52 47,93 0,22 5,40 10,40 6,0 10,11 10,25 0,14 -4,25 -10,25 -5,0 -10,9 -10,20 0,12 -5,26 -10,33 -44,52 -60,73 -60,80 0,4 -7,7 -15,7 -8,0 -15,5 -15,10 0,6 -9,10 -20,10 -11,0 -20,3 -20,8 0,9 -58,42 -75,42 -7,0 -15,4 -17,9 -3,9 -148,18 -215,13 z" />
        <path
           id="path6"
           d="m 2730,6670 c 0,-5 -17,-10 -37,-10 -21,0 -51,-7 -67,-15 -15,-8 -35,-15 -42,-15 -8,0 -14,-4 -14,-10 0,-5 -7,-10 -15,-10 -8,0 -15,-3 -15,-8 0,-4 -16,-16 -35,-26 -19,-11 -35,-23 -35,-28 0,-4 -7,-8 -16,-8 -16,0 -74,-57 -74,-74 0,-5 -8,-16 -19,-25 -10,-9 -21,-26 -25,-38 -4,-13 -12,-23 -17,-23 -5,0 -9,-10 -9,-23 0,-12 -9,-29 -20,-37 -12,-9 -20,-26 -20,-45 -1,-16 -7,-41 -15,-55 -8,-14 -14,-43 -15,-65 0,-23 -5,-46 -11,-52 -7,-7 -9,-29 -6,-55 16,-121 31,-198 39,-198 4,0 8,-16 8,-35 0,-19 5,-35 10,-35 6,0 10,-9 10,-20 0,-21 6,-31 48,-75 12,-13 22,-33 22,-45 0,-11 7,-20 15,-20 8,0 15,-4 15,-10 0,-5 9,-10 20,-10 11,0 20,-5 20,-10 0,-12 45,-60 55,-60 4,0 13,-6 20,-12 33,-30 45,-38 55,-38 5,0 10,-4 10,-10 0,-5 7,-10 16,-10 8,0 22,-6 29,-14 35,-34 351,-48 446,-20 33,10 59,21 59,26 0,4 7,8 15,8 8,0 15,5 15,10 0,6 7,10 15,10 13,0 42,24 117,97 51,50 68,73 68,93 0,11 3,20 8,20 10,0 42,58 42,76 0,8 5,14 10,14 6,0 10,16 10,35 0,19 3,35 8,35 11,0 29,49 37,98 4,23 11,42 16,42 16,0 10,185 -8,245 -9,30 -21,55 -25,55 -4,0 -8,7 -8,15 0,8 -4,15 -10,15 -5,0 -10,9 -10,20 0,11 -4,20 -10,20 -5,0 -10,8 -10,19 0,10 -7,24 -15,31 -8,7 -15,17 -15,22 0,15 -22,33 -59,48 -18,7 -44,24 -57,37 -13,13 -26,23 -29,23 -3,0 -18,11 -33,25 -15,14 -37,25 -49,25 -13,0 -23,5 -23,10 0,6 -11,10 -25,10 -14,0 -25,5 -25,10 0,6 -17,10 -37,10 -21,0 -56,7 -78,15 -22,8 -57,14 -77,15 -21,0 -38,5 -38,10 0,6 -25,10 -55,10 -30,0 -55,-4 -55,-10 z m 251,-406 c 60,-37 96,-72 109,-105 7,-16 16,-29 21,-29 5,0 9,-20 9,-45 0,-25 5,-45 10,-45 6,0 10,-7 10,-15 0,-8 -4,-15 -10,-15 -5,0 -10,-22 -10,-50 0,-50 -2,-55 -59,-115 -40,-43 -69,-65 -86,-65 -8,0 -15,-4 -15,-10 0,-6 -38,-10 -95,-10 -57,0 -95,4 -95,10 0,6 -7,10 -15,10 -9,0 -28,11 -43,25 -15,14 -32,25 -39,25 -7,0 -13,9 -13,20 0,11 -4,20 -8,20 -12,0 -42,56 -42,79 0,12 -4,21 -10,21 -5,0 -10,25 -10,55 0,30 5,55 10,55 6,0 10,11 10,23 0,13 11,37 25,53 14,16 25,37 25,47 0,9 7,17 15,17 8,0 15,3 15,8 0,4 18,16 40,26 22,11 40,23 40,28 0,4 38,8 85,8 74,0 91,-3 126,-26 z" />
        <path
           id="path8"
           d="m 20898,6673 c -4,-10 -100,-43 -122,-43 -9,0 -16,-4 -16,-10 0,-5 -11,-10 -25,-10 -14,0 -25,-4 -25,-10 0,-5 -16,-10 -36,-10 -43,0 -164,-31 -164,-42 0,-4 -16,-8 -35,-8 -19,0 -35,-4 -35,-10 0,-5 -13,-10 -29,-10 -16,0 -48,-9 -73,-20 -24,-10 -63,-22 -86,-26 -23,-4 -42,-10 -42,-15 0,-5 -16,-9 -35,-9 -19,0 -35,-4 -35,-9 0,-4 -20,-16 -45,-25 -25,-10 -45,-22 -45,-27 0,-5 -11,-9 -24,-9 -13,0 -27,-6 -29,-12 -4,-10 -8,-9 -17,2 -9,11 -13,12 -17,3 -2,-7 -13,-13 -23,-13 -22,0 -93,-31 -98,-42 -2,-5 -12,-8 -23,-8 -10,0 -19,-4 -19,-10 0,-5 -7,-10 -15,-10 -8,0 -15,-5 -15,-11 0,-7 -8,-19 -18,-28 -23,-21 -41,-66 -44,-111 -2,-37 21,-110 34,-110 4,0 8,-7 8,-16 0,-18 58,-74 78,-74 6,0 12,-4 12,-10 0,-6 33,-10 80,-10 47,0 80,4 80,10 0,6 6,10 14,10 8,0 29,8 48,17 61,31 68,33 88,33 11,0 20,4 20,8 0,13 47,32 76,32 50,0 54,-14 54,-209 0,-114 -4,-181 -10,-181 -6,0 -10,-37 -10,-90 0,-53 -4,-90 -10,-90 -6,0 -10,-26 -10,-58 0,-46 4,-60 20,-72 11,-8 20,-24 20,-37 0,-12 11,-33 25,-47 14,-14 25,-28 25,-31 0,-10 28,-35 39,-35 6,0 11,-4 11,-10 0,-6 32,-10 75,-10 43,0 75,4 75,10 0,6 7,10 15,10 8,0 15,7 15,15 0,8 9,15 20,15 11,0 20,5 20,10 0,6 7,10 15,10 8,0 15,9 15,20 0,11 5,20 10,20 6,0 10,11 10,24 0,13 5,26 12,28 20,7 36,262 37,567 1,267 2,274 23,292 11,11 32,19 45,19 12,0 23,5 23,10 0,6 20,10 45,10 25,0 45,5 45,10 0,6 17,10 38,10 52,0 148,48 164,83 7,15 16,27 20,27 5,0 8,7 8,15 0,8 6,15 13,15 17,0 42,45 33,59 -4,6 -16,11 -27,11 -23,0 -25,13 -3,31 12,10 15,24 11,53 -3,22 -11,42 -16,44 -6,2 -11,14 -11,27 0,18 -6,24 -27,27 -17,2 -32,12 -38,26 -9,20 -16,22 -87,22 -42,0 -78,-3 -80,-7 z" />
      </g>
    </g>
  </g>
</svg>
