<?xml version="1.0" encoding="UTF-8" standalone="no"?>
<svg
   xmlns:dc="http://purl.org/dc/elements/1.1/"
   xmlns:cc="http://creativecommons.org/ns#"
   xmlns:rdf="http://www.w3.org/1999/02/22-rdf-syntax-ns#"
   xmlns:svg="http://www.w3.org/2000/svg"
   xmlns="http://www.w3.org/2000/svg"
   xmlns:sodipodi="http://sodipodi.sourceforge.net/DTD/sodipodi-0.dtd"
   xmlns:inkscape="http://www.inkscape.org/namespaces/inkscape"
   version="1.0"
   width="2720pt"
   height="2720pt"
   viewBox="0 0 2720 2720"
   preserveAspectRatio="xMidYMid meet"
   id="svg22"
   sodipodi:docname="3rd-order.svg"
   inkscape:version="1.0 (4035a4fb49, 2020-05-01)">
  <style
     id="style853"></style>
  <metadata
     id="metadata28">
    <rdf:RDF>
      <cc:Work
         rdf:about="">
        <dc:format>image/svg+xml</dc:format>
        <dc:type
           rdf:resource="http://purl.org/dc/dcmitype/StillImage" />
        <dc:title />
      </cc:Work>
    </rdf:RDF>
  </metadata>
  <defs
     id="defs26" />
  <sodipodi:namedview
     inkscape:document-rotation="0"
     pagecolor="#ffffff"
     bordercolor="#666666"
     borderopacity="1"
     objecttolerance="10"
     gridtolerance="10"
     guidetolerance="10"
     inkscape:pageopacity="0"
     inkscape:pageshadow="2"
     inkscape:window-width="1920"
     inkscape:window-height="1051"
     id="namedview24"
     showgrid="false"
     inkscape:zoom="0.15968072"
     inkscape:cx="1568.7234"
     inkscape:cy="1986.6266"
     inkscape:window-x="-9"
     inkscape:window-y="-9"
     inkscape:window-maximized="1"
     inkscape:current-layer="g884" />
  <g
     id="g884"
     transform="matrix(0.98914503,0,0,0.98914503,91.38224,-25.685434)">
    <circle
       r="1266.5983"
       style="fill:#d9bdbd;fill-opacity:0.40000001;stroke:#e6e6e6;stroke-width:1.03764;stroke-opacity:0.177165"
       id="path847"
       cx="1206.1804"
       cy="1482.0048" />
    <g
       id="g20"
       stroke="none"
       fill="#000000"
       transform="matrix(0.1,0,0,-0.1,0,2932)">
      <g
         transform="matrix(1.0728197,0,0,1.0728197,-797.73148,-4370.6887)"
         id="g870">
        <path
           d="m 3865,29063 c -55,-23 -145,-116 -161,-165 -4,-10 -10,-18 -15,-18 -5,0 -9,-10 -9,-23 0,-13 -7,-32 -15,-43 -8,-10 -15,-27 -15,-36 0,-10 -4,-18 -10,-18 -5,0 -10,-7 -10,-16 0,-24 -33,-114 -42,-114 -5,0 -8,-9 -8,-20 0,-11 -4,-20 -10,-20 -5,0 -10,-11 -10,-24 0,-13 -7,-29 -15,-36 -8,-7 -15,-19 -15,-26 0,-8 -4,-14 -10,-14 -5,0 -10,-11 -10,-25 0,-16 -6,-25 -15,-25 -8,0 -15,-9 -15,-20 0,-11 -4,-20 -10,-20 -5,0 -10,-8 -10,-18 0,-9 -11,-29 -25,-44 -14,-15 -25,-30 -25,-33 0,-4 -6,-13 -12,-20 -30,-33 -38,-45 -38,-55 0,-5 -4,-10 -9,-10 -5,0 -12,-8 -16,-19 -3,-10 -41,-55 -85,-99 -48,-49 -80,-90 -80,-102 0,-11 -7,-23 -15,-26 -11,-5 -15,-21 -15,-60 0,-30 4,-54 9,-54 5,0 12,-11 15,-24 3,-14 15,-27 26,-31 10,-3 22,-15 25,-25 3,-10 15,-22 26,-25 10,-4 19,-11 19,-16 0,-5 39,-9 88,-9 79,0 90,2 114,25 15,14 30,25 33,25 4,0 13,6 20,13 31,27 44,37 51,37 4,0 50,45 104,99 94,96 97,99 113,80 14,-16 17,-44 17,-169 0,-83 4,-150 8,-150 5,0 12,-59 15,-132 4,-72 11,-136 17,-142 6,-6 10,-66 10,-143 0,-73 4,-133 9,-133 4,0 11,-48 14,-107 3,-60 11,-124 17,-143 5,-19 10,-68 10,-107 0,-40 4,-73 9,-73 5,0 11,-37 14,-82 3,-46 10,-105 16,-133 5,-27 10,-111 10,-187 1,-76 5,-138 10,-140 6,-2 12,-99 15,-223 3,-121 10,-258 15,-305 5,-47 10,-118 10,-157 1,-42 5,-73 11,-73 6,0 10,-48 10,-124 0,-90 3,-126 13,-129 10,-4 10,-6 0,-6 -15,-1 -18,-78 -4,-83 11,-3 30,-508 37,-963 4,-226 8,-311 17,-317 9,-6 9,-8 0,-8 -7,0 -13,-7 -13,-15 0,-8 4,-15 9,-15 4,0 11,-91 15,-203 4,-111 11,-245 16,-297 5,-52 10,-177 10,-277 0,-113 4,-183 10,-185 6,-2 12,-85 16,-213 3,-116 7,-226 10,-245 2,-19 7,-141 10,-270 4,-129 10,-236 15,-238 13,-5 11,-30 -3,-35 -10,-4 -10,-7 -1,-14 9,-7 13,-60 13,-199 1,-104 8,-254 16,-334 7,-80 14,-191 14,-247 0,-62 4,-103 10,-103 6,0 10,-88 10,-244 0,-139 4,-246 9,-248 5,-1 13,-85 17,-185 4,-101 10,-183 14,-183 4,0 8,-107 9,-237 1,-131 5,-240 10,-243 4,-3 11,-86 15,-184 4,-99 11,-187 17,-197 5,-10 9,-90 9,-178 0,-101 4,-161 10,-161 6,0 10,-46 10,-117 0,-65 7,-163 15,-218 8,-55 15,-150 15,-212 0,-79 4,-113 13,-116 10,-4 10,-6 0,-6 -15,-1 -18,-51 -3,-51 6,0 10,-80 10,-219 0,-140 4,-222 10,-226 6,-4 10,-21 9,-38 -4,-87 15,-612 22,-615 5,-2 9,-129 9,-282 0,-158 4,-280 9,-282 5,-2 12,-193 16,-438 5,-298 11,-439 19,-449 8,-11 8,-15 -1,-18 -17,-6 -19,-1503 -3,-1519 7,-7 7,-20 2,-35 -4,-13 -7,-49 -5,-79 2,-30 3,-71 2,-90 -1,-19 0,-42 1,-50 1,-8 4,-256 6,-550 4,-406 7,-536 17,-543 9,-7 9,-10 0,-14 -15,-5 -18,-59 -4,-65 4,-2 12,-181 16,-398 5,-217 9,-440 11,-495 14,-534 18,-635 25,-635 5,0 9,-18 9,-40 0,-22 -4,-40 -10,-40 -15,0 -12,-67 3,-74 10,-5 10,-7 0,-12 -15,-7 -17,-31 -4,-36 5,-1 11,-176 15,-388 3,-212 9,-435 12,-496 5,-76 3,-121 -5,-147 l -13,-37 -116,-1 c -64,-1 -137,-3 -162,-4 -222,-14 -436,-17 -1319,-19 -785,-1 -1015,-4 -1019,-14 -2,-7 -14,-12 -27,-12 -25,0 -85,-30 -85,-42 0,-5 -7,-8 -15,-8 -8,0 -15,-9 -15,-20 0,-11 -4,-20 -10,-20 -5,0 -10,-20 -10,-45 0,-25 5,-45 10,-45 6,0 10,-13 10,-29 0,-22 6,-30 25,-35 14,-4 25,-11 25,-16 0,-6 6,-10 13,-10 8,0 20,-11 27,-25 7,-14 19,-25 27,-25 7,0 13,-4 13,-10 0,-5 9,-10 20,-10 10,0 45,-7 77,-15 34,-9 102,-15 170,-15 62,0 113,-4 113,-9 0,-6 494,-23 650,-22 599,4 1166,16 1172,25 6,8 8,7 8,-1 0,-7 11,-13 25,-13 14,0 25,5 25,10 0,6 11,10 25,10 14,0 25,-4 25,-10 0,-5 18,-10 40,-10 22,0 40,5 40,10 0,6 46,10 118,10 101,0 119,-2 128,-17 8,-13 9,-69 3,-183 -13,-299 11,-1190 33,-1190 4,0 8,-141 8,-314 0,-184 4,-317 9,-321 5,-3 13,-41 17,-85 3,-44 11,-80 15,-80 5,0 9,-36 9,-80 0,-44 4,-80 9,-80 4,0 11,-30 14,-67 4,-38 11,-69 17,-71 5,-2 10,-21 10,-43 0,-21 3,-39 8,-39 10,0 42,-58 42,-76 0,-8 7,-14 15,-14 8,0 29,-15 48,-33 57,-55 84,-64 142,-50 27,7 51,17 53,23 7,21 34,40 58,40 13,0 24,5 24,10 0,6 -4,10 -10,10 -5,0 -10,11 -10,25 0,26 15,34 23,13 3,-9 11,-6 24,10 16,18 21,37 21,96 1,49 -3,79 -13,92 -8,11 -15,38 -15,62 0,23 -4,42 -10,42 -6,0 -10,28 -10,64 0,35 -4,66 -9,68 -14,5 -32,164 -38,316 -2,73 -8,132 -14,132 -5,0 -9,14 -9,30 0,17 5,30 10,30 6,0 10,27 10,60 0,33 -4,60 -9,60 -4,0 -11,80 -15,178 -5,97 -10,202 -12,232 -3,30 -7,153 -10,273 -3,126 -9,217 -15,217 -5,0 -9,7 -9,15 0,8 5,15 10,15 6,0 10,11 10,25 0,14 -4,25 -10,25 -6,0 -10,43 -10,110 0,67 4,110 10,110 6,0 10,66 10,179 v 179 l 103,8 c 172,12 195,13 427,19 136,3 226,9 228,15 5,15 169,13 175,-2 4,-10 8,-10 14,-2 6,8 125,14 398,18 215,4 413,8 440,10 28,2 203,7 390,11 187,4 342,11 343,16 2,5 189,9 418,9 269,0 414,3 414,10 0,6 38,10 95,10 57,0 95,-4 95,-10 0,-13 47,-13 52,1 2,7 118,12 343,16 208,4 343,10 346,16 4,5 19,7 35,3 60,-15 95,-18 107,-9 14,10 75,10 160,-1 38,-5 57,-4 57,3 0,8 116,11 380,11 247,0 380,4 380,10 0,6 37,10 90,10 53,0 90,-4 90,-10 0,-13 57,-13 62,0 2,7 302,10 867,11 708,0 866,-2 873,-13 7,-10 11,-10 15,0 6,14 30,16 35,3 2,-6 187,-12 458,-14 735,-8 1555,-27 1558,-38 2,-5 75,-9 168,-9 103,0 164,-4 164,-10 0,-5 16,-10 35,-10 19,0 35,5 35,10 0,13 27,13 32,0 2,-6 199,-11 518,-13 309,-2 523,-7 535,-13 12,-6 259,-11 635,-13 352,-2 616,-7 618,-12 5,-12 32,-11 32,1 0,6 52,10 135,10 83,0 135,-4 135,-10 0,-6 43,-10 110,-10 67,0 110,4 110,10 0,6 9,10 20,10 11,0 20,-4 20,-10 0,-5 18,-10 40,-10 22,0 40,5 40,10 0,6 11,10 25,10 14,0 25,-4 25,-10 0,-16 487,-13 494,3 5,9 7,9 12,0 8,-19 540,-19 547,0 4,9 7,9 14,0 7,-10 98,-13 385,-13 207,-1 379,-4 383,-8 4,-4 43,-8 88,-9 213,-4 442,-16 447,-23 3,-5 124,-11 270,-14 146,-4 288,-8 315,-10 28,-2 148,-7 268,-11 119,-4 217,-12 217,-16 0,-5 136,-9 303,-9 167,0 307,-4 313,-9 5,-5 110,-11 234,-14 144,-4 226,-10 228,-16 5,-14 192,-15 192,-1 0,6 7,10 15,10 8,0 15,-4 15,-10 0,-6 92,-10 255,-10 163,0 255,4 255,10 0,6 11,10 25,10 14,0 25,-4 25,-10 0,-5 11,-10 25,-10 14,0 25,5 25,10 0,6 20,10 45,10 24,0 61,8 81,18 28,13 38,14 41,5 5,-15 53,-18 53,-3 0,6 7,10 15,10 8,0 15,5 15,10 0,6 20,10 45,10 25,0 45,-4 45,-10 0,-5 11,-10 25,-10 14,0 25,-4 25,-9 0,-4 16,-11 35,-14 41,-7 68,-30 63,-55 -2,-9 -13,-18 -26,-20 -12,-2 -22,-8 -22,-13 0,-11 -25,-39 -35,-39 -9,0 -155,-151 -155,-161 0,-14 -50,-59 -65,-59 -8,0 -15,-5 -15,-11 0,-6 -6,-17 -12,-24 -28,-31 -38,-44 -38,-50 0,-10 -28,-35 -39,-35 -6,0 -11,-7 -11,-15 0,-8 -4,-15 -9,-15 -5,0 -12,-9 -16,-19 -3,-11 -15,-23 -26,-26 -10,-4 -19,-15 -19,-26 0,-10 -5,-19 -11,-19 -14,0 -39,-25 -39,-39 0,-6 -4,-11 -9,-11 -5,0 -12,-11 -15,-25 -4,-14 -11,-25 -16,-25 -6,0 -10,-11 -10,-25 0,-14 -3,-25 -7,-25 -12,0 -43,-59 -43,-81 0,-10 -4,-19 -10,-19 -5,0 -10,-11 -10,-24 0,-13 -5,-26 -12,-28 -7,-3 -13,-37 -16,-91 -4,-69 -1,-92 12,-112 9,-13 16,-33 16,-45 0,-11 5,-20 10,-20 6,0 10,-7 10,-16 0,-26 33,-74 51,-74 9,0 25,-11 35,-25 10,-14 24,-25 31,-25 7,0 13,-4 13,-8 0,-15 82,-31 107,-21 14,5 37,9 51,9 16,0 34,8 42,20 8,11 20,20 27,20 7,0 13,11 13,24 0,15 7,26 20,29 12,3 20,14 20,25 0,11 7,27 15,36 17,16 20,36 6,36 -5,0 -11,24 -14,53 -3,28 -8,66 -12,84 -5,24 -2,36 14,52 12,12 21,25 21,30 0,5 7,14 15,21 8,7 15,21 15,31 0,11 5,19 10,19 6,0 10,7 10,15 0,8 5,15 11,15 17,0 39,27 39,49 0,12 5,21 10,21 13,0 26,11 90,73 28,26 50,53 50,58 0,11 25,39 35,39 6,0 16,8 47,37 23,22 38,42 38,53 0,5 5,10 10,10 11,0 31,15 53,38 7,7 18,18 25,25 7,7 24,22 37,34 13,13 29,23 35,23 5,0 10,7 10,15 0,8 5,15 11,15 6,0 17,6 25,14 8,8 14,19 14,25 0,6 7,11 15,11 8,0 15,5 15,10 0,6 7,10 16,10 9,0 27,11 40,25 13,14 28,25 34,25 11,0 80,67 80,79 0,4 10,18 22,31 20,22 23,35 23,111 -1,80 -3,88 -28,113 -15,15 -27,32 -27,38 0,14 -35,44 -71,60 -16,7 -29,16 -29,20 0,5 -7,8 -16,8 -8,0 -22,7 -30,15 -9,8 -29,15 -45,15 -16,0 -29,5 -29,10 0,6 -9,10 -20,10 -22,0 -93,31 -98,43 -2,4 -17,7 -34,7 -16,0 -36,7 -44,15 -9,8 -26,15 -40,15 -13,0 -24,5 -24,10 0,6 -7,10 -15,10 -8,0 -15,4 -15,9 0,5 -9,12 -19,16 -11,3 -23,16 -27,28 -11,34 -30,47 -68,47 -29,0 -36,4 -36,19 0,23 -19,31 -71,31 -21,0 -39,5 -39,10 0,6 -5,10 -11,10 -7,0 -22,11 -35,25 -13,14 -28,25 -34,25 -11,0 -100,89 -100,101 0,3 -20,27 -45,53 -25,27 -45,52 -45,57 0,5 -7,9 -15,9 -8,0 -15,7 -15,15 0,8 -11,25 -25,39 -14,14 -25,30 -25,36 0,5 -4,10 -10,10 -5,0 -10,7 -10,15 0,8 -11,25 -25,39 -14,14 -25,29 -25,34 0,23 -76,82 -105,82 -8,0 -15,5 -15,10 0,6 -25,10 -55,10 -30,0 -55,-4 -55,-9 0,-5 -12,-11 -27,-14 -34,-7 -78,-44 -87,-74 -4,-13 -12,-23 -17,-23 -5,0 -9,-11 -9,-25 0,-14 -4,-25 -10,-25 -5,0 -10,-22 -10,-50 0,-27 5,-50 10,-50 6,0 10,-11 10,-25 0,-14 5,-25 10,-25 6,0 10,-9 10,-20 0,-11 7,-23 15,-26 8,-4 15,-13 15,-21 0,-9 16,-30 35,-49 19,-18 35,-40 35,-50 0,-9 11,-27 25,-40 14,-13 25,-30 25,-39 0,-8 5,-15 11,-15 12,0 39,-25 39,-36 0,-3 16,-21 35,-40 64,-60 41,-94 -64,-94 -41,0 -71,4 -71,10 0,6 -11,10 -25,10 -14,0 -25,-4 -25,-10 0,-5 -16,-10 -35,-10 -19,0 -35,5 -35,10 0,6 -22,10 -50,10 -27,0 -50,-4 -50,-10 0,-6 -27,-10 -60,-10 -33,0 -60,4 -60,10 0,6 -105,10 -294,10 -176,0 -296,4 -298,9 -2,6 -99,13 -218,17 -118,4 -244,8 -280,11 -36,2 -161,6 -277,9 -126,3 -213,9 -213,14 0,6 -103,10 -267,10 -148,1 -335,7 -418,14 -82,8 -247,14 -365,15 -126,1 -216,6 -218,11 -5,13 -32,13 -32,0 0,-14 -27,-12 -34,3 -5,9 -7,9 -12,0 -7,-15 -34,-17 -34,-3 0,16 -1777,14 -1783,-2 -4,-10 -8,-10 -14,-1 -6,8 -120,12 -421,14 -228,2 -415,6 -418,10 -2,4 -79,8 -172,8 -658,4 -1117,13 -1120,21 -5,13 -52,13 -52,0 0,-15 -97,-13 -103,3 -4,9 -8,8 -17,-3 -9,-11 -13,-12 -17,-2 -6,16 -30,16 -37,0 -5,-10 -7,-10 -12,0 -7,14 -34,16 -34,2 0,-5 -7,-10 -15,-10 -8,0 -15,5 -15,10 0,15 -67,12 -74,-2 -5,-10 -7,-10 -12,0 -4,9 -81,12 -335,12 -187,0 -329,4 -329,9 0,5 -10,9 -22,8 -98,-2 -548,18 -548,24 0,5 -13,9 -30,9 -16,0 -30,-4 -30,-10 0,-6 -40,-10 -100,-10 -60,0 -100,4 -100,10 0,15 -117,13 -124,-2 -5,-10 -7,-10 -12,0 -4,9 -146,12 -660,12 -429,0 -654,3 -654,10 0,6 -9,10 -20,10 -11,0 -20,-4 -20,-10 0,-5 -11,-10 -25,-10 -14,0 -25,5 -25,10 0,15 -77,12 -84,-2 -5,-10 -7,-10 -12,0 -7,14 -104,17 -104,2 0,-5 -11,-10 -25,-10 -14,0 -25,5 -25,10 0,6 -9,10 -20,10 -11,0 -20,-4 -20,-10 0,-5 -18,-10 -40,-10 -22,0 -40,5 -40,10 0,16 -217,13 -223,-2 -4,-10 -8,-9 -17,2 -9,11 -13,12 -17,3 -6,-15 -83,-18 -83,-3 0,16 -557,13 -564,-2 -5,-10 -7,-10 -12,0 -7,15 -124,17 -124,2 0,-7 -188,-10 -544,-10 -426,0 -545,-3 -549,-12 -4,-10 -6,-10 -6,0 -1,15 -251,18 -251,2 0,-5 -18,-10 -40,-10 -25,0 -40,5 -40,13 0,8 -2,9 -8,1 -7,-12 -454,-23 -969,-25 -145,0 -263,-4 -263,-9 0,-4 -219,-9 -487,-9 -368,-2 -489,-5 -496,-14 -7,-9 -10,-9 -14,1 -5,13 -69,17 -75,3 -1,-4 -151,-12 -333,-16 -181,-4 -375,-9 -430,-10 -55,-2 -259,-6 -452,-10 -194,-4 -353,-11 -353,-16 0,-5 -11,-9 -25,-9 -14,0 -25,5 -25,10 0,6 -16,10 -35,10 -19,0 -35,-4 -35,-10 0,-6 -66,-10 -179,-10 -154,0 -180,2 -185,16 -3,9 -6,114 -6,235 0,139 -4,219 -10,219 -14,0 -12,37 3,43 8,4 9,8 1,14 -7,5 -13,119 -17,347 -4,187 -11,342 -16,345 -5,3 -9,151 -10,331 -1,197 -6,326 -11,328 -6,2 -10,106 -10,260 -1,142 -7,340 -14,442 -7,102 -14,298 -15,435 -1,142 -6,251 -12,253 -5,2 -9,254 -9,628 0,409 -3,624 -10,624 -5,0 -10,23 -10,50 0,28 5,50 10,50 6,0 10,11 10,25 0,14 -4,25 -10,25 -6,0 -10,92 -10,255 0,163 4,255 10,255 15,0 13,147 -2,154 -10,5 -10,7 0,12 15,7 18,424 2,424 -5,0 -10,9 -10,20 0,11 5,20 10,20 14,0 13,47 -2,52 -8,3 -12,82 -15,274 -2,148 -7,301 -12,339 -5,39 -10,178 -11,310 0,141 -5,241 -11,243 -5,2 -9,89 -9,210 -1,114 -5,266 -11,337 -5,72 -12,270 -15,440 -4,171 -10,312 -15,315 -4,3 -10,93 -13,200 -3,107 -8,260 -10,340 -4,114 -2,139 7,118 6,-16 14,-28 19,-28 4,0 8,-19 8,-43 0,-23 4,-58 10,-77 5,-19 13,-70 16,-112 4,-43 10,-78 14,-78 5,0 10,-19 13,-42 14,-107 29,-183 38,-186 5,-2 9,-35 9,-73 0,-38 4,-69 8,-69 9,0 30,-85 39,-157 3,-24 8,-43 13,-43 4,0 10,-35 13,-79 3,-43 10,-88 16,-99 6,-11 11,-39 11,-61 0,-23 4,-41 9,-41 5,0 11,-19 14,-42 8,-70 31,-168 39,-168 5,0 8,-17 8,-37 0,-21 7,-60 15,-87 8,-27 15,-64 15,-83 0,-18 5,-33 10,-33 6,0 10,-20 10,-45 0,-25 5,-45 10,-45 6,0 10,-15 10,-32 0,-18 7,-46 15,-62 8,-15 15,-41 15,-57 0,-16 4,-29 10,-29 5,0 12,-27 16,-60 4,-33 11,-60 15,-60 5,0 9,-16 9,-35 0,-19 5,-35 10,-35 6,0 10,-17 10,-37 1,-21 7,-49 15,-63 8,-14 14,-40 15,-57 0,-18 5,-33 10,-33 6,0 10,-11 10,-24 0,-14 4,-27 9,-31 6,-3 13,-26 17,-50 3,-25 10,-45 15,-45 5,0 9,-18 9,-40 0,-22 4,-40 9,-40 4,0 11,-27 15,-60 4,-33 11,-60 16,-60 6,0 10,-16 10,-35 0,-19 5,-35 10,-35 6,0 10,-15 10,-32 0,-18 7,-42 15,-52 8,-11 15,-37 15,-58 0,-21 5,-38 10,-38 6,0 10,-14 10,-31 0,-17 7,-37 15,-45 8,-9 15,-26 15,-40 0,-13 5,-24 10,-24 6,0 10,-16 10,-35 0,-19 4,-35 9,-35 5,0 12,-11 15,-25 4,-14 11,-25 16,-25 6,0 10,-18 10,-40 0,-22 5,-40 10,-40 6,0 10,-11 10,-24 0,-14 7,-31 15,-40 8,-8 15,-28 15,-45 0,-17 5,-31 10,-31 6,0 10,-18 10,-39 0,-22 7,-46 15,-55 8,-8 15,-28 15,-45 0,-17 5,-31 10,-31 6,0 10,-16 10,-36 0,-19 7,-42 15,-50 8,-9 15,-31 15,-50 0,-19 5,-34 10,-34 6,0 10,-18 10,-40 0,-22 4,-40 10,-40 5,0 12,-11 16,-25 3,-14 10,-25 15,-25 5,0 9,-16 9,-35 0,-19 5,-35 10,-35 6,0 10,-11 10,-24 0,-14 7,-31 15,-40 8,-8 15,-24 15,-35 0,-12 5,-21 10,-21 6,0 10,-11 10,-25 0,-16 6,-25 15,-25 9,0 15,-9 15,-25 0,-14 5,-25 10,-25 6,0 10,-10 10,-23 0,-13 7,-32 15,-43 8,-10 15,-27 15,-36 0,-10 5,-18 10,-18 6,0 10,-7 10,-15 0,-8 4,-15 9,-15 4,0 16,-20 25,-45 10,-25 21,-45 26,-45 4,0 11,-11 14,-25 4,-14 11,-25 16,-25 6,0 10,-7 10,-15 0,-8 5,-15 10,-15 6,0 10,-9 10,-20 0,-11 7,-23 15,-26 8,-4 15,-15 15,-26 0,-10 11,-30 25,-44 14,-14 25,-31 25,-39 0,-8 5,-15 10,-15 6,0 10,-9 10,-20 0,-11 4,-20 9,-20 5,0 12,-11 15,-25 4,-14 11,-25 16,-25 6,0 10,-7 10,-15 0,-8 4,-15 9,-15 5,0 13,-10 17,-22 4,-13 15,-30 24,-38 9,-8 20,-25 24,-37 4,-13 12,-23 17,-23 5,0 9,-7 9,-15 0,-8 5,-15 10,-15 6,0 10,-6 10,-13 0,-8 27,-41 59,-74 32,-34 62,-70 66,-82 3,-12 11,-21 16,-21 5,0 9,-5 9,-11 0,-6 16,-26 35,-45 19,-18 35,-38 35,-44 0,-6 11,-21 25,-34 14,-13 25,-26 25,-30 0,-4 10,-18 23,-31 12,-13 27,-30 34,-37 7,-7 18,-18 25,-25 20,-18 38,-41 38,-48 0,-4 6,-12 13,-20 6,-7 23,-27 37,-45 14,-18 31,-38 38,-45 6,-8 12,-18 12,-24 0,-6 38,-49 85,-95 47,-47 85,-88 85,-91 0,-10 28,-35 39,-35 6,0 11,-5 11,-10 0,-6 11,-23 25,-38 14,-15 25,-32 25,-39 0,-7 5,-13 11,-13 11,0 39,-24 39,-34 0,-7 299,-306 306,-306 3,0 12,-6 19,-12 33,-30 45,-38 55,-38 5,0 10,-5 10,-11 0,-11 25,-39 35,-39 3,0 18,-11 33,-25 15,-14 31,-25 35,-25 5,0 18,-11 29,-25 11,-14 26,-25 35,-25 9,0 26,-11 39,-25 13,-14 28,-25 34,-25 5,0 10,-4 10,-10 0,-5 9,-10 20,-10 11,0 20,-4 20,-9 0,-5 11,-12 25,-15 14,-4 25,-11 25,-16 0,-6 5,-10 11,-10 14,0 39,-25 39,-39 0,-6 7,-11 15,-11 9,0 26,-11 39,-25 13,-14 28,-25 35,-25 6,0 11,-4 11,-8 0,-5 16,-17 35,-28 19,-10 35,-22 35,-26 0,-5 5,-8 11,-8 6,0 17,-6 24,-12 32,-29 45,-38 52,-38 5,0 17,-11 27,-25 10,-14 26,-25 34,-25 8,0 25,-11 38,-25 13,-14 28,-25 34,-25 6,0 21,-11 34,-25 13,-14 28,-25 35,-25 6,0 11,-4 11,-10 0,-5 7,-10 15,-10 9,0 26,-11 39,-25 13,-14 31,-25 40,-25 9,0 16,-4 16,-10 0,-5 7,-10 15,-10 8,0 15,-4 15,-10 0,-5 11,-12 25,-16 14,-3 25,-9 25,-13 0,-4 15,-15 33,-26 17,-10 34,-21 37,-25 3,-3 25,-14 50,-25 25,-11 54,-28 64,-37 11,-10 23,-18 28,-18 4,0 8,-7 8,-15 0,-9 9,-15 25,-15 14,0 25,-4 25,-9 0,-5 11,-12 25,-15 14,-4 25,-11 25,-16 0,-6 11,-10 25,-10 14,0 25,-4 25,-10 0,-5 7,-10 15,-10 9,0 26,-11 39,-25 13,-14 32,-25 43,-25 10,0 28,-7 39,-15 10,-8 27,-15 37,-15 9,0 17,-4 17,-10 0,-5 8,-10 17,-10 25,0 103,-31 103,-41 0,-5 11,-9 25,-9 14,0 25,-4 25,-10 0,-5 11,-10 24,-10 14,0 31,-7 40,-15 8,-8 26,-15 40,-15 14,0 26,-4 26,-10 0,-5 10,-10 23,-10 12,-1 33,-7 47,-15 14,-8 42,-14 63,-15 20,0 37,-4 37,-10 0,-5 20,-10 44,-10 30,0 46,-5 50,-15 3,-8 15,-15 26,-15 11,0 20,-4 20,-10 0,-5 16,-10 35,-10 19,0 35,-4 35,-10 0,-5 18,-13 40,-16 22,-4 40,-10 40,-15 0,-5 16,-9 35,-9 19,0 35,-4 35,-9 0,-5 23,-12 50,-16 28,-4 50,-11 50,-16 0,-5 11,-9 25,-9 14,0 25,-4 25,-10 0,-5 15,-10 33,-10 17,0 41,-7 51,-15 11,-8 30,-15 43,-15 13,0 23,-4 23,-10 0,-5 20,-10 44,-10 24,0 57,-7 72,-15 16,-8 39,-15 52,-15 12,0 22,-4 22,-10 0,-5 18,-10 40,-10 22,0 40,-4 40,-9 0,-5 16,-12 35,-15 19,-4 35,-11 35,-16 0,-6 16,-10 35,-10 19,0 35,-4 35,-10 0,-5 21,-10 48,-10 26,-1 58,-7 72,-15 14,-8 42,-14 63,-15 20,0 37,-4 37,-10 0,-5 14,-10 30,-10 17,0 47,-7 67,-15 19,-8 51,-15 69,-15 19,0 34,-4 34,-9 0,-5 17,-11 38,-14 86,-13 162,-31 162,-39 0,-4 31,-8 69,-8 38,0 71,-3 73,-8 5,-12 112,-42 151,-42 21,0 37,-4 37,-10 0,-5 10,-10 23,-10 13,0 32,-7 43,-15 10,-8 38,-15 62,-15 23,0 42,-4 42,-10 0,-5 17,-10 38,-10 21,0 47,-7 58,-15 10,-8 38,-15 62,-15 23,0 42,-4 42,-9 0,-5 19,-11 43,-14 58,-8 137,-30 137,-39 0,-5 29,-8 65,-8 36,0 65,-4 65,-9 0,-4 28,-11 63,-15 34,-3 63,-11 65,-16 2,-6 37,-10 78,-10 43,0 74,-4 74,-10 0,-6 26,-10 59,-10 33,0 61,-4 63,-10 2,-5 40,-12 86,-16 45,-4 82,-10 82,-14 0,-4 40,-10 89,-13 49,-4 101,-11 115,-17 15,-5 52,-10 82,-10 30,0 54,-4 54,-9 0,-4 42,-11 93,-15 50,-4 106,-10 122,-12 17,-2 56,-7 88,-10 31,-4 57,-10 57,-15 0,-14 38,-11 43,4 4,10 6,10 6,0 1,-9 23,-13 76,-13 43,0 75,-4 75,-10 0,-6 29,-10 68,-10 37,0 94,-7 125,-15 32,-8 92,-15 132,-15 41,0 75,-4 75,-8 0,-10 234,-32 413,-39 64,-3 117,-9 117,-14 0,-5 51,-9 113,-10 185,-2 397,-23 397,-40 0,-15 110,-11 110,4 0,6 5,4 11,-6 7,-13 17,-16 32,-11 40,13 60,46 35,58 -10,5 -10,7 0,12 6,3 12,12 12,20 0,8 6,14 14,14 8,0 17,6 19,13 4,9 8,8 16,-3 5,-8 13,-11 18,-7 4,5 1,12 -7,17 -13,8 -12,11 2,22 18,13 15,58 -3,58 -5,0 -9,5 -9,10 0,6 16,10 35,10 29,0 35,4 35,21 0,19 -21,49 -35,49 -4,0 -13,6 -20,12 -33,30 -45,38 -55,38 -5,0 -10,9 -10,21 0,44 -60,69 -187,76 -40,3 -73,8 -73,12 0,4 -60,11 -132,15 -73,4 -149,9 -168,12 -19,2 -109,6 -200,10 -91,3 -166,10 -168,15 -2,5 -41,9 -87,9 -46,0 -85,4 -87,10 -1,5 -45,13 -95,16 -51,4 -93,11 -93,15 0,5 -27,9 -61,9 -33,0 -69,5 -79,10 -10,6 -66,13 -124,17 -59,3 -106,10 -106,15 0,4 -61,8 -135,8 -74,0 -135,4 -135,9 0,4 -36,11 -80,15 -44,3 -91,11 -106,16 -14,6 -59,10 -100,10 -43,0 -74,4 -74,10 0,6 -23,10 -51,10 -28,0 -59,5 -70,10 -10,6 -48,13 -84,17 -36,3 -65,10 -65,14 0,5 -31,9 -68,9 -37,0 -94,7 -125,15 -32,8 -69,15 -82,15 -14,0 -25,5 -25,10 0,6 -27,10 -60,10 -33,0 -60,4 -60,9 0,4 -21,11 -47,14 -26,3 -49,10 -51,16 -2,7 -31,11 -73,11 -38,0 -69,4 -69,9 0,4 -27,11 -60,15 -33,4 -60,11 -60,16 0,6 -18,10 -40,10 -22,0 -40,5 -40,10 0,6 -17,10 -37,10 -21,1 -49,7 -63,15 -14,8 -37,14 -52,15 -16,0 -28,4 -28,9 0,5 -21,11 -47,14 -61,7 -143,29 -143,39 0,5 -31,8 -69,8 -52,0 -70,4 -75,15 -3,8 -15,15 -26,15 -11,0 -20,5 -20,10 0,6 -22,10 -50,10 -27,0 -50,5 -50,10 0,6 -15,10 -32,10 -18,0 -42,7 -52,15 -12,9 -42,15 -78,15 -32,0 -58,4 -58,8 0,9 -103,30 -187,38 -29,3 -53,10 -53,15 0,5 -11,9 -25,9 -14,0 -25,4 -25,10 0,5 -18,13 -40,16 -22,4 -40,10 -40,15 0,5 -22,9 -50,9 -27,0 -50,5 -50,10 0,6 -12,10 -27,10 -16,0 -37,7 -47,15 -11,8 -37,15 -57,15 -21,0 -39,3 -41,8 -4,9 -100,42 -122,42 -9,0 -16,4 -16,9 0,5 -17,11 -37,14 -58,9 -133,31 -133,39 0,5 -15,8 -32,8 -18,0 -42,7 -52,15 -11,8 -30,15 -43,15 -13,0 -23,5 -23,10 0,6 -11,10 -25,10 -14,0 -25,4 -25,9 0,5 -16,12 -35,15 -19,4 -35,11 -35,16 0,6 -18,10 -40,10 -22,0 -40,5 -40,10 0,6 -10,10 -22,10 -13,1 -34,7 -48,15 -14,8 -42,14 -62,15 -21,0 -38,5 -38,10 0,6 -14,10 -31,10 -17,0 -37,7 -45,15 -9,8 -26,15 -40,15 -13,0 -24,5 -24,10 0,6 -13,10 -29,10 -16,0 -34,7 -41,15 -7,8 -21,15 -31,15 -11,0 -19,5 -19,10 0,6 -13,10 -30,10 -16,0 -30,5 -30,10 0,6 -9,10 -19,10 -11,0 -26,7 -35,15 -8,8 -24,15 -35,15 -12,0 -21,4 -21,9 0,5 -10,11 -23,15 -12,3 -32,14 -44,26 -12,11 -31,20 -43,20 -11,0 -20,4 -20,10 0,5 -11,12 -25,16 -14,3 -25,9 -25,13 0,4 -16,13 -35,21 -19,8 -35,20 -35,27 0,7 -9,13 -21,13 -22,0 -49,22 -49,39 0,6 -7,11 -15,11 -8,0 -15,5 -15,10 0,6 -7,10 -15,10 -14,0 -61,25 -75,40 -3,3 -22,14 -42,24 -21,11 -38,23 -38,28 0,4 -8,8 -17,8 -22,1 -53,23 -53,39 0,6 -5,11 -11,11 -6,0 -17,6 -24,13 -30,26 -44,37 -50,37 -3,0 -18,11 -33,25 -15,14 -31,25 -36,25 -5,0 -23,16 -42,35 -18,19 -40,35 -49,35 -9,0 -26,11 -39,25 -13,14 -28,25 -35,25 -6,0 -26,15 -44,34 -18,18 -43,36 -55,40 -12,4 -22,12 -22,17 0,5 -7,9 -15,9 -8,0 -15,5 -15,10 0,6 -7,10 -15,10 -9,0 -26,11 -39,25 -13,14 -31,25 -40,25 -9,0 -19,7 -22,15 -4,8 -11,15 -18,15 -6,0 -18,9 -26,20 -8,11 -20,20 -27,20 -7,0 -23,11 -37,25 -14,14 -28,25 -31,25 -4,0 -13,6 -20,13 -33,29 -45,37 -55,37 -5,0 -10,5 -10,11 0,11 -25,39 -35,39 -4,0 -13,6 -20,13 -33,29 -45,37 -55,37 -5,0 -10,5 -10,11 0,11 -24,39 -34,39 -10,0 -86,80 -86,90 0,6 -5,10 -11,10 -11,0 -39,25 -39,35 0,8 -16,27 -62,75 -21,21 -38,41 -38,45 0,3 -33,39 -72,80 -88,89 -98,101 -98,115 0,5 -5,10 -11,10 -12,0 -39,25 -39,35 0,4 -27,33 -59,65 -33,32 -61,66 -63,76 -2,11 -13,20 -26,22 -12,2 -22,10 -22,18 0,8 -8,22 -17,32 -25,27 -45,52 -67,87 -11,17 -28,37 -38,46 -10,9 -18,21 -18,28 0,6 -7,11 -15,11 -8,0 -15,6 -15,13 0,15 -47,67 -60,67 -6,0 -10,9 -10,20 0,11 -7,20 -15,20 -8,0 -15,7 -15,15 0,8 -4,15 -10,15 -5,0 -10,8 -10,17 0,10 -10,27 -23,38 -13,11 -32,35 -42,53 -11,17 -23,32 -27,32 -4,0 -8,7 -8,15 0,8 -4,15 -10,15 -5,0 -12,11 -16,25 -3,14 -10,25 -15,25 -5,0 -9,9 -9,20 0,11 -4,20 -8,20 -5,0 -17,17 -28,38 -10,20 -21,39 -24,42 -15,14 -40,61 -40,75 0,8 -4,15 -10,15 -5,0 -10,5 -10,10 0,10 -8,22 -37,55 -7,7 -13,20 -13,28 0,8 -7,20 -15,27 -8,7 -15,19 -15,26 0,8 -4,14 -10,14 -5,0 -10,9 -10,20 0,11 -4,20 -9,20 -5,0 -12,11 -15,25 -4,14 -11,25 -16,25 -6,0 -10,11 -10,25 0,14 -4,25 -10,25 -5,0 -10,9 -10,20 0,11 -7,23 -15,26 -8,4 -15,17 -15,30 0,13 -4,24 -10,24 -5,0 -10,6 -10,14 0,17 -32,80 -42,84 -5,2 -8,17 -8,33 0,16 -4,29 -9,29 -5,0 -12,14 -16,30 -4,17 -11,30 -16,30 -5,0 -9,20 -9,45 0,25 -4,45 -9,45 -5,0 -11,18 -15,40 -3,22 -11,40 -16,40 -6,0 -10,16 -10,35 0,19 -4,35 -10,35 -5,0 -10,10 -10,23 -1,12 -7,33 -15,47 -8,14 -14,37 -15,53 0,15 -4,27 -9,27 -5,0 -11,17 -14,38 -9,57 -31,132 -39,132 -5,0 -8,16 -8,35 0,19 -4,35 -10,35 -5,0 -12,11 -16,25 -3,14 -10,25 -15,25 -5,0 -9,11 -9,25 0,14 -4,25 -10,25 -5,0 -10,10 -10,23 0,13 -7,32 -15,43 -8,10 -15,34 -15,52 0,17 -4,32 -10,32 -5,0 -10,15 -10,33 0,18 -7,42 -15,53 -8,10 -15,27 -15,37 0,9 -4,17 -9,17 -5,0 -11,24 -14,53 -6,63 -29,147 -39,147 -5,0 -8,16 -8,35 0,19 -4,35 -9,35 -4,0 -11,27 -15,60 -4,33 -11,60 -16,60 -6,0 -10,23 -10,50 0,28 -4,50 -10,50 -5,0 -13,18 -16,40 -4,22 -11,43 -15,46 -5,3 -9,23 -9,45 0,21 -4,39 -10,39 -5,0 -10,11 -10,24 0,13 -5,26 -12,28 -6,2 -13,30 -16,61 -2,31 -8,57 -13,57 -5,0 -9,23 -9,50 0,28 -4,50 -9,50 -5,0 -12,20 -15,45 -4,25 -11,45 -17,45 -5,0 -9,23 -9,50 0,28 -4,50 -8,50 -12,0 -32,69 -25,86 3,8 0,14 -6,14 -7,0 -11,20 -11,50 0,28 -4,50 -9,50 -5,0 -12,29 -16,65 -3,36 -11,67 -16,70 -5,4 -9,28 -9,56 0,27 -4,49 -10,49 -5,0 -10,21 -10,48 0,26 -7,56 -15,66 -9,11 -15,41 -15,68 0,26 -4,48 -9,48 -4,0 -11,28 -15,63 -8,67 -25,127 -38,127 -4,0 -8,38 -8,85 0,47 -4,85 -8,85 -10,0 -31,115 -39,208 -2,34 -8,62 -12,62 -5,0 -11,31 -14,69 -3,39 -11,79 -16,90 -6,11 -11,45 -11,75 0,31 -4,56 -10,56 -5,0 -10,20 -10,44 0,24 -7,60 -15,79 -8,20 -15,64 -15,97 0,33 -4,60 -10,60 -5,0 -10,24 -10,53 -1,28 -7,79 -15,112 -8,33 -15,79 -15,103 0,23 -4,42 -10,42 -6,0 -10,35 -10,84 0,46 -4,86 -10,88 -9,3 -24,92 -37,216 -2,28 -8,52 -12,52 -5,0 -11,51 -14,113 -3,61 -10,125 -16,140 -6,16 -11,64 -11,108 0,43 -4,79 -8,79 -9,0 -30,249 -38,453 -3,64 -9,117 -15,117 -5,0 -9,49 -9,113 0,62 -4,117 -10,123 -5,5 -12,77 -15,159 -4,83 -11,152 -16,153 -5,2 -9,87 -9,198 0,123 -4,194 -10,194 -5,0 -10,7 -10,15 0,8 5,15 10,15 13,0 13,37 0,42 -5,2 -13,78 -16,176 -4,94 -11,172 -16,172 -4,0 -8,65 -8,145 0,90 -4,145 -10,145 -5,0 -10,24 -10,53 0,28 -5,70 -10,92 -5,22 -13,86 -16,143 -4,56 -11,102 -16,102 -13,0 -9,48 5,54 10,5 10,7 0,12 -9,4 -13,28 -13,69 0,35 -7,90 -15,122 -8,31 -15,92 -15,135 0,43 -4,78 -9,78 -5,0 -12,37 -15,83 -3,45 -9,105 -12,132 -3,28 -8,83 -11,123 -3,39 -9,72 -14,72 -5,0 -9,34 -9,75 0,41 -4,75 -9,75 -8,0 -27,144 -37,290 -3,41 -9,77 -14,80 -10,7 -31,181 -37,315 -2,60 -8,112 -13,115 -5,3 -12,110 -16,238 -4,127 -11,232 -15,232 -5,0 -9,9 -9,21 0,11 -16,35 -35,53 -19,19 -35,40 -35,49 0,8 -7,17 -14,20 -16,6 -19,52 -32,462 -3,93 -9,172 -14,175 -4,3 -9,84 -11,180 -1,96 -5,180 -8,185 -3,6 -7,37 -9,70 -2,33 -5,107 -8,165 -4,58 -10,107 -14,110 -5,3 -10,43 -13,90 -3,47 -10,103 -16,125 -6,22 -11,66 -11,98 0,31 -4,57 -10,57 -6,0 -10,50 -10,130 0,72 -4,130 -9,130 -4,0 -11,51 -15,113 -4,61 -11,114 -17,115 -12,5 -12,42 1,42 6,0 10,7 10,15 0,8 -4,15 -10,15 -6,0 -10,73 -10,199 0,110 -4,201 -9,203 -5,2 -11,76 -14,166 l -4,162 h 23 c 14,0 25,-8 29,-20 3,-11 11,-20 16,-20 5,0 9,-5 9,-10 0,-11 176,-190 186,-190 3,0 12,-6 19,-12 35,-32 45,-38 60,-38 9,0 26,-11 39,-25 15,-16 34,-25 55,-25 17,0 31,-4 31,-10 0,-6 27,-10 60,-10 33,0 60,4 60,10 0,6 11,10 25,10 14,0 25,4 25,9 0,5 10,13 22,17 25,7 36,17 61,54 19,27 24,140 7,140 -5,0 -10,18 -10,39 0,22 -7,46 -15,55 -8,8 -15,19 -15,24 0,5 -11,15 -25,22 -14,7 -25,17 -25,22 0,4 -7,8 -15,8 -9,0 -26,11 -39,25 -13,14 -33,25 -45,25 -11,0 -21,6 -21,13 0,8 -11,20 -25,27 -14,7 -25,17 -25,22 0,11 -13,26 -62,78 -21,21 -38,41 -38,45 0,10 -28,35 -39,35 -6,0 -11,5 -11,10 0,10 -22,37 -55,69 -64,62 -97,91 -105,91 -5,0 -10,11 -10,25 0,18 -5,25 -19,25 -11,0 -22,9 -26,19 -3,11 -16,23 -27,27 -12,3 -32,17 -45,30 -13,13 -30,24 -38,24 -8,0 -15,4 -15,8 0,5 -16,17 -35,28 -19,10 -35,22 -35,26 0,5 -11,8 -24,8 -13,0 -26,5 -28,11 -2,6 -39,13 -83,15 -61,3 -90,0 -120,-13 z"
           id="path2" />
        <path
           d="m 2846,27211 c -3,-5 -37,-12 -76,-16 -38,-4 -70,-11 -70,-16 0,-5 -16,-9 -35,-9 -19,0 -35,-4 -35,-10 0,-5 -16,-12 -35,-16 -19,-3 -38,-10 -41,-15 -3,-5 -14,-9 -24,-9 -10,0 -20,-3 -22,-7 -4,-10 -66,-43 -80,-43 -6,0 -25,-16 -44,-35 -18,-19 -36,-35 -39,-35 -10,0 -35,-28 -35,-39 0,-6 -7,-11 -15,-11 -8,0 -15,-3 -15,-7 0,-5 -11,-21 -25,-37 -13,-15 -30,-41 -37,-57 -7,-16 -16,-29 -20,-29 -5,0 -8,-9 -8,-20 0,-11 -4,-20 -10,-20 -5,0 -10,-6 -10,-14 0,-8 -6,-21 -14,-28 -22,-23 -47,-301 -27,-321 6,-6 11,-30 11,-54 0,-24 5,-43 10,-43 6,0 10,-7 10,-15 0,-8 4,-15 10,-15 5,0 12,-11 16,-25 3,-14 10,-25 15,-25 5,0 9,-6 9,-13 0,-7 11,-24 25,-39 14,-15 25,-30 25,-33 0,-10 28,-35 39,-35 6,0 11,-5 11,-11 0,-14 25,-39 39,-39 6,0 11,-4 11,-10 0,-5 6,-10 13,-10 7,0 24,-11 39,-25 15,-14 32,-25 38,-25 5,0 10,-4 10,-10 0,-5 11,-12 25,-16 14,-3 25,-10 25,-15 0,-5 9,-9 19,-9 11,0 22,-4 25,-9 3,-5 22,-12 41,-15 19,-4 35,-11 35,-16 0,-6 27,-10 60,-10 33,0 60,-4 60,-10 0,-6 35,-10 85,-10 50,0 85,4 85,10 0,6 7,10 15,10 8,0 15,-4 15,-10 0,-5 9,-10 20,-10 11,0 20,5 20,10 0,6 23,10 50,10 28,0 50,4 50,9 0,5 23,12 50,16 28,4 50,11 50,16 0,5 16,9 35,9 19,0 35,4 35,9 0,5 11,12 25,15 14,4 25,11 25,16 0,6 5,10 10,10 14,0 90,75 90,89 0,6 5,11 10,11 6,0 10,37 10,90 v 89 l -54,56 c -30,30 -61,55 -70,55 -9,0 -16,5 -16,10 0,6 -32,10 -75,10 -41,0 -75,-4 -75,-8 0,-4 -22,-16 -50,-27 -27,-11 -50,-23 -50,-27 0,-4 -11,-8 -24,-8 -13,0 -26,-6 -28,-12 -4,-10 -36,-13 -118,-13 -82,0 -114,3 -117,13 -3,6 -16,12 -29,12 -13,0 -24,4 -24,9 0,5 -8,12 -18,15 -27,9 -102,82 -102,100 0,8 -4,18 -10,21 -5,3 -10,19 -10,35 0,16 5,32 10,35 6,3 10,19 10,35 0,20 13,41 46,74 25,25 52,46 60,46 8,0 14,5 14,10 0,6 11,10 25,10 14,0 25,4 25,8 0,5 25,13 57,19 58,11 125,2 131,-16 2,-7 44,-11 108,-11 h 105 l 44,47 c 25,26 45,53 45,60 0,7 4,13 8,13 5,0 15,18 22,39 14,43 7,102 -14,124 -7,7 -17,23 -20,35 -4,12 -12,22 -17,22 -5,0 -9,5 -9,11 0,11 -25,39 -35,39 -4,0 -13,6 -20,13 -37,33 -47,37 -80,37 -19,0 -35,5 -35,10 0,6 -14,10 -30,10 -17,0 -47,7 -67,15 -40,17 -89,20 -97,6 z"
           id="path4" />
        <path
           d="m 15923,10603 c -40,-2 -73,-8 -73,-13 0,-6 -9,-10 -20,-10 -20,0 -80,-52 -80,-70 0,-5 -4,-10 -10,-10 -5,0 -12,-11 -16,-25 -3,-14 -10,-25 -15,-25 -5,0 -9,-27 -9,-60 0,-33 3,-60 8,-60 9,0 42,-58 42,-74 0,-7 16,-21 35,-32 19,-10 35,-22 35,-26 0,-5 11,-8 24,-8 13,0 26,-5 28,-12 3,-8 45,-13 136,-16 73,-3 132,-8 132,-13 0,-5 95,-9 210,-9 133,0 210,-4 210,-10 0,-5 9,-10 20,-10 11,0 20,5 20,10 0,6 60,10 159,10 132,0 160,3 165,15 3,9 18,15 36,15 16,0 30,5 30,10 0,6 12,10 28,10 29,0 60,34 42,45 -18,11 -11,21 25,38 23,11 35,24 35,37 0,11 5,20 10,20 6,0 10,23 10,50 0,28 -4,50 -10,50 -5,0 -10,7 -10,15 0,18 -69,85 -89,85 -5,0 -11,5 -13,12 -3,9 -79,13 -296,16 -161,3 -292,8 -292,13 0,5 -60,9 -134,9 -74,0 -136,4 -138,9 -4,10 -140,19 -235,14 z"
           id="path6" />
        <path
           d="m 17510,10523 c 0,-5 -21,-17 -48,-27 -51,-21 -115,-79 -126,-114 -4,-12 -12,-22 -17,-22 -16,0 -11,-147 6,-164 8,-8 15,-17 15,-21 0,-13 79,-85 94,-85 9,0 16,-4 16,-9 0,-8 138,-28 268,-38 34,-2 62,-9 62,-14 0,-14 48,-11 53,4 4,9 8,9 15,-2 21,-30 422,-30 422,0 0,5 15,9 34,9 35,0 48,9 76,49 12,17 22,21 45,17 23,-5 34,-1 45,14 8,11 20,20 27,20 7,0 13,5 13,10 0,6 11,22 25,36 21,21 25,34 25,82 -1,52 -16,92 -34,92 -11,0 -36,27 -36,39 0,6 -6,11 -14,11 -8,0 -16,4 -18,9 -1,5 -95,12 -208,15 -243,6 -444,22 -448,36 -2,6 -17,10 -34,10 -33,0 -131,30 -136,43 -2,4 -30,7 -63,7 -32,0 -59,-3 -59,-7 z"
           id="path8" />
        <path
           d="m 19020,10351 c 0,-5 -11,-12 -25,-15 -14,-4 -25,-11 -25,-16 0,-6 -9,-10 -20,-10 -11,0 -20,-4 -20,-10 0,-5 -7,-10 -15,-10 -8,0 -15,-7 -15,-15 0,-8 -3,-15 -7,-15 -14,0 -43,-61 -43,-90 0,-16 -6,-31 -12,-34 -10,-5 -10,-7 0,-12 6,-3 12,-20 12,-38 0,-24 7,-39 25,-52 14,-10 25,-29 25,-41 0,-17 6,-23 21,-23 11,0 27,-7 35,-15 9,-8 26,-15 40,-15 13,0 24,-4 24,-10 0,-6 40,-10 100,-10 60,0 100,4 100,10 0,6 30,10 70,10 40,0 70,-4 70,-10 0,-5 7,-10 15,-10 8,0 15,5 15,10 0,6 7,10 15,10 8,0 15,-4 15,-10 0,-6 63,-10 169,-10 126,0 171,-3 175,-12 5,-10 7,-10 12,0 7,14 54,16 54,2 0,-15 97,-12 104,3 5,10 7,10 12,0 7,-15 74,-18 74,-3 0,6 28,10 65,10 36,0 65,4 65,9 0,5 9,13 20,16 11,3 20,15 20,25 0,11 10,20 25,24 14,4 44,25 66,47 39,39 39,41 36,101 -2,36 -9,64 -15,66 -7,2 -12,10 -12,18 0,8 -4,14 -10,14 -5,0 -10,7 -10,15 0,24 -37,55 -66,55 -14,0 -33,4 -43,9 -9,5 -143,13 -296,17 -154,3 -281,10 -283,15 -5,12 -42,11 -42,-1 0,-6 -32,-10 -75,-10 -43,0 -75,4 -75,10 0,6 -68,10 -185,10 -102,0 -185,-4 -185,-9 z"
           id="path10" />
        <path
           d="m 20660,10351 c 0,-5 -11,-12 -25,-15 -14,-4 -25,-11 -25,-16 0,-6 -5,-10 -11,-10 -14,0 -39,-25 -39,-39 0,-6 -3,-11 -8,-11 -4,0 -16,-16 -26,-35 -14,-26 -17,-45 -12,-77 9,-54 28,-108 38,-108 4,0 8,-7 8,-15 0,-9 11,-21 25,-27 14,-6 25,-15 25,-20 0,-4 7,-8 15,-8 8,0 15,-4 15,-9 0,-5 20,-12 45,-15 25,-4 45,-11 45,-17 0,-5 13,-9 29,-9 16,0 31,-4 33,-9 3,-7 292,-26 358,-23 14,0 223,2 464,4 333,3 441,7 444,16 2,7 15,12 28,12 14,0 35,11 48,25 13,14 30,25 39,25 9,0 19,9 22,20 3,11 11,20 16,20 5,0 9,8 9,18 0,9 11,29 25,44 31,33 33,68 5,68 -22,0 -27,15 -7,24 9,3 7,9 -5,19 -10,8 -18,19 -18,26 0,25 -41,50 -111,67 -41,11 -76,22 -79,25 -3,4 -59,10 -125,13 -66,3 -164,9 -217,12 -71,4 -98,3 -98,-6 0,-10 -98,-10 -492,0 -16,0 -52,-1 -80,-3 -29,-2 -58,1 -64,5 -7,5 -41,11 -78,15 -36,3 -66,10 -66,14 0,5 -34,9 -75,9 -41,0 -75,-4 -75,-9 z"
           id="path12" />
        <path
           d="m 15430,10251 c 0,-9 24,-21 41,-21 5,0 9,7 9,15 0,9 -9,15 -25,15 -14,0 -25,-4 -25,-9 z"
           id="path14" />
        <path
           d="m 22490,8760 c 0,-5 -9,-10 -20,-10 -22,0 -93,-31 -98,-42 -2,-5 -15,-8 -28,-8 -13,0 -24,-4 -24,-10 0,-5 -11,-12 -25,-16 -14,-3 -25,-10 -25,-15 0,-5 -16,-9 -35,-9 -19,0 -35,-4 -35,-10 0,-5 -11,-10 -25,-10 -14,0 -25,5 -25,10 0,6 -32,10 -75,10 -43,0 -75,-4 -75,-10 0,-5 -7,-10 -16,-10 -22,0 -104,-87 -104,-111 0,-10 -4,-19 -9,-19 -5,0 -11,-10 -13,-22 -2,-15 -11,-24 -25,-26 -13,-2 -23,-8 -23,-13 0,-5 -10,-9 -21,-9 -12,0 -32,-11 -45,-25 -13,-14 -30,-25 -39,-25 -9,0 -23,-6 -30,-12 -36,-32 -46,-38 -65,-38 -11,0 -20,-4 -20,-10 0,-5 -11,-10 -24,-10 -13,0 -26,-7 -30,-15 -3,-8 -15,-15 -26,-15 -11,0 -20,-4 -20,-10 0,-5 -5,-10 -11,-10 -6,0 -17,-6 -24,-12 -35,-32 -45,-38 -60,-38 -9,0 -26,-11 -39,-25 -13,-14 -31,-25 -40,-25 -9,0 -16,-4 -16,-10 0,-5 -7,-10 -15,-10 -8,0 -15,-5 -15,-11 0,-14 -25,-39 -39,-39 -6,0 -11,-5 -11,-10 0,-6 -11,-22 -25,-36 -14,-14 -25,-36 -25,-49 0,-14 -4,-25 -10,-25 -11,0 -14,-97 -2,-102 10,-4 42,-67 42,-84 0,-8 9,-14 19,-14 11,0 21,-3 23,-7 4,-11 67,-43 84,-43 8,0 14,-4 14,-10 0,-5 16,-10 35,-10 19,0 35,5 35,10 0,6 12,10 26,10 14,0 32,6 39,13 30,26 44,37 50,37 3,0 18,11 33,25 15,14 32,25 39,25 7,0 13,4 13,10 0,5 11,12 25,16 14,3 25,10 25,15 0,5 7,9 15,9 8,0 15,5 15,10 0,6 7,10 15,10 9,0 26,11 39,25 15,16 34,25 54,25 27,0 30,-3 36,-42 3,-24 4,-197 1,-385 -3,-284 -2,-349 10,-378 8,-19 15,-63 15,-99 0,-56 3,-66 20,-71 11,-3 20,-11 20,-16 0,-5 7,-9 15,-9 8,0 15,-5 15,-11 0,-11 24,-39 34,-39 3,0 15,-8 26,-17 12,-10 32,-16 49,-15 16,2 32,-1 36,-7 9,-16 45,-13 51,4 4,8 15,15 25,15 10,0 19,5 19,10 0,6 5,10 11,10 14,0 49,39 49,53 0,5 8,17 18,26 25,23 43,59 33,65 -5,3 -9,256 -10,562 -1,508 0,558 16,585 13,21 25,29 46,29 16,0 39,11 55,25 15,14 32,25 39,25 7,0 13,4 13,9 0,5 10,11 23,15 12,3 32,14 44,26 12,11 27,20 34,20 20,0 119,107 119,129 0,12 4,21 9,21 5,0 13,10 17,23 4,12 10,24 14,27 9,6 14,47 12,112 -2,39 -6,48 -24,54 -23,7 -48,28 -48,39 0,4 -6,13 -14,21 -17,16 -136,20 -136,4 z m -510,-1830 c 0,-5 -4,-10 -10,-10 -5,0 -10,5 -10,10 0,6 5,10 10,10 6,0 10,-4 10,-10 z m 90,-15 c 0,-14 -4,-25 -10,-25 -5,0 -10,7 -10,15 0,8 -4,15 -10,15 -5,0 -10,5 -10,10 0,6 9,10 20,10 15,0 20,-7 20,-25 z"
           id="path16" />
        <path
           d="m 3410,8710 c 0,-5 -17,-10 -37,-10 -21,-1 -49,-7 -63,-15 -14,-8 -35,-14 -47,-15 -13,0 -23,-4 -23,-10 0,-5 -11,-10 -25,-10 -14,0 -25,-4 -25,-9 0,-5 -11,-12 -25,-15 -14,-4 -25,-11 -25,-16 0,-6 -11,-10 -25,-10 -14,0 -25,-4 -25,-9 0,-5 -10,-13 -22,-17 -13,-4 -30,-15 -39,-25 -9,-11 -26,-19 -38,-19 -12,0 -21,-6 -21,-15 0,-8 -5,-15 -10,-15 -14,0 -60,-46 -60,-60 0,-5 -5,-10 -11,-10 -14,0 -39,-25 -39,-39 0,-6 -5,-11 -11,-11 -14,0 -39,-25 -39,-39 0,-6 -4,-11 -10,-11 -5,0 -12,-11 -16,-25 -3,-14 -10,-25 -15,-25 -5,0 -9,-9 -9,-19 0,-10 -7,-21 -15,-25 -8,-3 -15,-15 -15,-26 0,-11 -4,-20 -10,-20 -5,0 -10,-11 -10,-24 0,-13 -3,-26 -7,-28 -18,-8 -43,-83 -43,-128 0,-28 -4,-50 -10,-50 -6,0 -10,-43 -10,-110 0,-67 4,-110 10,-110 6,0 10,-19 10,-43 0,-24 5,-48 10,-53 6,-6 13,-34 17,-62 3,-29 10,-52 14,-52 5,0 9,-7 9,-15 0,-8 4,-15 9,-15 5,0 12,-11 15,-25 4,-14 11,-25 16,-25 6,0 10,-9 10,-20 0,-12 11,-33 25,-48 14,-15 25,-31 25,-35 0,-5 27,-36 60,-69 33,-33 60,-63 60,-67 0,-4 11,-14 25,-21 14,-7 25,-17 25,-22 0,-4 5,-8 11,-8 14,0 39,-25 39,-39 0,-6 11,-11 25,-11 14,0 25,-4 25,-9 0,-5 16,-12 35,-15 19,-4 35,-11 35,-16 0,-6 22,-10 49,-10 28,0 51,-5 53,-11 5,-14 311,-13 316,1 2,6 19,10 38,10 19,0 34,4 34,10 0,5 11,12 25,16 14,3 25,10 25,15 0,5 9,9 21,9 11,0 27,6 34,13 33,29 45,37 55,37 5,0 10,5 10,10 0,6 6,10 14,10 7,0 31,16 52,35 21,19 42,35 46,35 4,0 8,7 8,15 0,8 7,15 15,15 8,0 15,5 15,10 0,6 11,22 25,36 14,14 25,30 25,36 0,6 8,18 18,27 21,20 52,77 52,97 0,8 4,14 8,14 11,0 42,90 42,123 0,15 5,27 10,27 13,0 14,267 1,272 -5,2 -11,32 -12,68 -2,60 -23,120 -41,120 -4,0 -8,11 -8,25 0,14 -4,25 -9,25 -5,0 -12,11 -15,25 -4,14 -11,25 -16,25 -6,0 -10,9 -10,21 0,22 -22,49 -39,49 -6,0 -11,7 -11,15 0,8 -5,15 -10,15 -6,0 -22,10 -35,23 -13,12 -30,27 -37,34 -23,22 -38,42 -38,53 0,5 -11,10 -25,10 -22,0 -25,4 -25,35 0,19 -4,35 -9,35 -5,0 -12,11 -15,25 -4,14 -11,25 -16,25 -6,0 -10,9 -10,21 0,24 -66,93 -98,103 -12,4 -22,12 -22,17 0,5 -22,9 -50,9 -27,0 -50,5 -50,10 0,6 -27,10 -60,10 -33,0 -60,-4 -60,-10 z m -34,-525 c 13,-14 30,-25 39,-25 8,0 15,-4 15,-8 0,-4 23,-16 50,-27 28,-11 50,-23 50,-27 0,-4 7,-8 15,-8 8,0 15,-4 15,-9 0,-5 10,-13 22,-17 26,-8 48,-28 48,-43 0,-6 3,-11 8,-11 10,0 42,-58 42,-76 0,-8 5,-14 10,-14 6,0 10,-40 10,-100 0,-60 -4,-100 -10,-100 -5,0 -10,-16 -10,-35 0,-19 -4,-35 -9,-35 -5,0 -13,-10 -17,-22 -4,-13 -15,-30 -25,-39 -11,-9 -19,-21 -19,-28 0,-6 -5,-11 -10,-11 -6,0 -23,-11 -38,-25 -15,-14 -32,-25 -39,-25 -7,0 -13,-4 -13,-9 0,-5 -25,-15 -56,-21 -65,-14 -157,-5 -178,16 -8,8 -17,14 -20,14 -7,0 -66,58 -66,65 0,6 -11,20 -37,50 -7,7 -13,18 -13,24 0,6 -4,11 -10,11 -5,0 -12,11 -16,25 -3,14 -10,25 -15,25 -5,0 -9,16 -9,35 0,19 -4,35 -10,35 -6,0 -10,35 -10,85 0,50 4,85 10,85 6,0 10,11 10,25 0,14 4,25 9,25 5,0 12,11 15,25 4,14 11,25 16,25 6,0 10,5 10,10 0,10 8,22 38,55 6,7 12,18 12,24 0,6 5,11 10,11 6,0 22,11 36,25 14,14 36,25 49,25 14,0 25,5 25,10 0,19 43,10 66,-15 z"
           id="path18" />
      </g>
    </g>
  </g>
</svg>
