<?xml version="1.0" encoding="UTF-8" standalone="no"?>
<svg
   xmlns:dc="http://purl.org/dc/elements/1.1/"
   xmlns:cc="http://creativecommons.org/ns#"
   xmlns:rdf="http://www.w3.org/1999/02/22-rdf-syntax-ns#"
   xmlns:svg="http://www.w3.org/2000/svg"
   xmlns="http://www.w3.org/2000/svg"
   xmlns:sodipodi="http://sodipodi.sourceforge.net/DTD/sodipodi-0.dtd"
   xmlns:inkscape="http://www.inkscape.org/namespaces/inkscape"
   inkscape:version="1.0 (4035a4fb49, 2020-05-01)"
   sodipodi:docname="chemkinetics.svg"
   id="svg24"
   preserveAspectRatio="xMidYMid meet"
   viewBox="0 0 464.000000 495.000000"
   height="495.000000pt"
   width="464.000000pt"
   version="1.0">
  <style
     id="style855"></style>
  <metadata
     id="metadata30">
    <rdf:RDF>
      <cc:Work
         rdf:about="">
        <dc:format>image/svg+xml</dc:format>
        <dc:type
           rdf:resource="http://purl.org/dc/dcmitype/StillImage" />
      </cc:Work>
    </rdf:RDF>
  </metadata>
  <defs
     id="defs28" />
  <sodipodi:namedview
     inkscape:current-layer="svg24"
     inkscape:window-maximized="1"
     inkscape:window-y="-9"
     inkscape:window-x="-9"
     inkscape:cy="330"
     inkscape:cx="309.33333"
     inkscape:zoom="1.3606061"
     showgrid="false"
     id="namedview26"
     inkscape:window-height="1051"
     inkscape:window-width="1920"
     inkscape:pageshadow="2"
     inkscape:pageopacity="0"
     guidetolerance="10"
     gridtolerance="10"
     objecttolerance="10"
     borderopacity="1"
     bordercolor="#666666"
     pagecolor="#ffffff" />
  <path
     d="m 34.2,70.2 c -0.6,0.7 -2.1,3.8 -3.4,6.8 -1.4,3 -3.7,7 -5.2,8.7 -3,3.5 -3.1,6 -0.4,7.6 1.2,0.8 2.4,0.5 5.3,-1.7 2,-1.5 3.8,-2.6 3.9,-2.5 0.1,0.2 1,8.5 1.9,18.4 1.7,18.1 2,24.5 5.7,98 1.1,22 2.2,42.2 2.5,45 1.3,12.5 2.6,47.8 3,77.5 0.2,17.9 0.7,46.5 1.1,63.6 l 0.7,31.1 -7.4,0.6 c -4.1,0.4 -14.4,0.7 -22.9,0.7 -8.5,-0.1 -16.3,0 -17.2,0 -2.4,0 -2.5,5.5 -0.2,6.4 0.9,0.3 11.9,0.6 24.5,0.6 H 49 v 7.7 c 0,13.5 1.9,36.4 3.3,39.2 1.4,3 4.8,3.9 6.6,1.7 1,-1.2 1,-2.7 0.2,-6.4 -0.5,-2.7 -1.3,-13.3 -1.7,-23.4 l -0.7,-18.5 5.4,-0.6 c 17.3,-2 136.6,-2.9 185.4,-1.5 13.8,0.4 37.6,0.9 53,0.9 15.4,0.1 34.3,0.6 42,1 7.7,0.5 23.7,1 35.5,1.3 11.8,0.2 21.6,0.8 21.7,1.2 0,0.5 -1.8,3.1 -4,5.8 -7.2,8.3 -8.5,12.7 -4.8,16 3,2.7 5.5,1.7 6.2,-2.7 0.6,-3.5 2.6,-6.6 7.4,-11 1.1,-1 3.5,-3.2 5.3,-4.9 5.1,-4.6 4.2,-6.5 -5.2,-11.3 -5.3,-2.7 -9.2,-5.6 -12,-8.9 -4.4,-5 -6.9,-5.7 -9,-2.4 -0.8,1.4 -0.4,2.7 2.3,6.4 l 3.3,4.7 -16.4,-0.6 c -74.4,-2.8 -231.4,-4.1 -286,-2.4 l -25.7,0.8 -0.7,-2.7 c -1,-3.8 0.3,-28 2.1,-39.9 3.4,-22.6 11.7,-43.9 28.1,-72.2 1.1,-1.8 2.1,-3.3 2.4,-3.3 0.3,0 2.3,2.6 4.5,5.8 2.2,3.1 9.6,11.3 16.5,18.2 24,24.1 57.9,43.1 105.2,59 27.9,9.4 71.7,16.8 111.3,19 10.5,0.5 22.3,1.2 26.3,1.5 7.7,0.5 11.2,-0.6 11.2,-3.6 0,-3.7 -2,-4 -37.5,-5.5 -15.4,-0.6 -54,-5.3 -70.5,-8.5 C 204.9,380.1 147.7,352.8 118.9,323.3 109.7,314 98,299.8 98,298 c 0,-2 19.4,-26.1 26.6,-33.2 27.3,-26.7 58.2,-43.4 100.9,-54.8 31.1,-8.3 64.9,-11.8 97,-10 21.4,1.2 41.9,2.8 45.8,3.6 3.1,0.7 5.7,-1 5.7,-3.6 0,-4.2 -1.5,-4.5 -37.2,-6.6 -55.7,-3.2 -92.7,1.6 -140.8,18.3 -11.8,4.1 -24,9.9 -38,18.1 -23.5,13.9 -39.8,28.5 -57.8,52 l -7.1,9.2 -1.9,-2.7 C 87.9,283.5 77.2,263.7 74.6,257.5 71.1,249.1 60.7,215 55.5,194.9 53.6,187.8 52.6,186 50.1,186 c -1.6,0 -1.9,-3 -3,-31.3 -0.6,-17.1 -1.8,-37.3 -2.6,-44.7 -0.7,-7.4 -1.6,-16.9 -2,-21 l -0.7,-7.5 3.4,3.1 c 4.1,3.8 6.4,4.7 8.9,3.4 3.2,-1.8 2.2,-3.9 -5.6,-11.6 C 42.7,70.6 40.4,69 38.1,69 c -1.6,0 -3.3,0.6 -3.9,1.2 z M 53.5,217 c 10.2,36 16.2,50.7 29.8,73.2 l 4.7,7.7 -7.6,13.3 c -11,19 -16,31.1 -24,57.7 -0.3,0.8 -0.6,1.2 -0.9,1 -0.2,-0.3 -0.5,-14 -0.6,-30.4 -0.3,-33.7 -2.5,-86.7 -5.4,-127.5 -0.7,-9.2 0.3,-7.9 4,5 z"
     id="path2"
     style="fill:#000000;stroke:none;stroke-width:0.1" />
  <path
     d="m 11.5,104.8 c -12.6,6 -8.2,22.4 5.9,22.4 8.1,0 13.3,-4.7 9.1,-8.2 -1.3,-1.1 -2.3,-1.1 -5.5,0 -3.4,1.1 -4.2,1.1 -6.5,-0.4 -1.4,-0.9 -2.5,-2.3 -2.5,-3.1 0,-2.3 4.4,-4.7 7.4,-3.9 3,0.7 5.6,-0.9 5.6,-3.6 0,-4.3 -7.4,-6.1 -13.5,-3.2 z"
     id="path4"
     style="fill:#000000;stroke:none;stroke-width:0.1" />
  <g
     style="stroke-width:0.99974998;stroke-miterlimit:4;stroke-dasharray:none;fill:#fe3735;fill-opacity:1"
     id="g870">
    <path
       style="fill:#fe3735;stroke:none;stroke-width:0.99974998;stroke-miterlimit:4;stroke-dasharray:none;fill-opacity:1"
       id="path6"
       d="m 395.6,166.5 c -1.1,1.2 -1.5,2.7 -1.1,4.8 1.5,8.5 2.2,26.1 1.7,44.2 -0.4,17 -0.2,20.3 1.1,21.3 1,0.9 2.2,1 3.9,0.3 1.4,-0.5 5.2,-0.7 8.4,-0.4 4.7,0.4 6.2,0.2 7.3,-1.1 1.1,-1.4 0.9,-1.7 -1.4,-2.6 -1.6,-0.6 -5.4,-1.3 -8.7,-1.7 l -5.8,-0.6 0.6,-19.6 c 0.3,-11.6 0.2,-23.7 -0.5,-29.5 -0.5,-5.5 -0.8,-10.3 -0.6,-10.6 0.6,-0.9 10.3,1.3 13.4,3 2.7,1.4 4.5,0.2 3.9,-2.6 -0.4,-2.2 -7.6,-4.9 -15.5,-6 -3.9,-0.5 -5.3,-0.3 -6.7,1.1 z" />
    <path
       style="fill:#fe3735;stroke:none;stroke-width:0.99974998;stroke-miterlimit:4;stroke-dasharray:none;fill-opacity:1"
       id="path8"
       d="m 444.5,166.4 c -6,0.9 -7,1.4 -7,3.1 0,1.7 0.7,2 4.5,2 2.5,-0.1 6.3,-0.3 8.4,-0.5 l 3.9,-0.5 0.2,26 c 0.1,14.3 0.5,26.8 1,27.8 0.7,1.6 0,1.7 -8.4,1.5 -6.1,-0.2 -9.5,0.2 -10.3,1 -2,2 0.5,3.5 6.4,3.7 2.9,0.1 7.8,0.5 10.9,1 7.1,0.9 7.8,-0.1 6.7,-8.8 -0.6,-5 -0.9,-31.7 -0.5,-50.1 0.1,-2.9 -0.5,-4.3 -2.2,-5.7 -2.6,-2.1 -3.6,-2.1 -13.6,-0.5 z" />
    <path
       style="fill:#fe3735;stroke:none;stroke-width:0.99974998;stroke-miterlimit:4;stroke-dasharray:none;fill-opacity:1"
       id="path10"
       d="m 429,174.8 c -3.5,0.4 -9.8,3.2 -10.3,4.6 -0.2,0.6 0,7.8 0.5,16.1 0.5,8.2 0.6,16.8 0.3,19.1 -0.7,5.2 1.3,7.4 4,4.4 1.5,-1.6 1.7,-3.6 1.6,-11.5 L 425,198 h 2.5 c 3.7,0 10,-3.5 12.4,-6.9 2.6,-3.6 2.8,-10 0.4,-13 -1.9,-2.3 -7.2,-3.9 -11.3,-3.3 z m 5.8,5.8 c 2.6,1.8 2.7,3.4 0.7,7.4 -0.9,1.7 -2.8,3.3 -5,4 -5.3,1.8 -6.5,0.9 -6.5,-4.9 0,-4 0.4,-5.3 2.2,-6.5 1.2,-0.9 3.2,-1.6 4.3,-1.6 1.1,0 3.1,0.7 4.3,1.6 z" />
  </g>
  <g
     style="fill:#3f8881;fill-opacity:1"
     id="g875">
    <path
       style="fill:#3f8881;fill-opacity:1;stroke:none;stroke-width:0.1"
       id="path12"
       d="m 369.9,355.1 c -0.5,8.2 0.1,54.3 0.7,54.9 1.6,1.4 8.8,-0.4 9.2,-2.3 0.3,-1.2 -0.3,-1.7 -2.2,-1.7 -1.4,0 -2.6,-0.3 -2.6,-0.8 0,-0.4 -0.1,-11.1 -0.2,-23.7 l -0.1,-23 7.1,0.1 c 4.9,0 7.3,-0.4 7.6,-1.3 0.8,-1.9 -0.7,-2.3 -10.4,-3 -7.2,-0.4 -9,-0.3 -9.1,0.8 z" />
    <path
       style="fill:#3f8881;fill-opacity:1;stroke:none;stroke-width:0.1"
       id="path14"
       d="m 419.8,355.7 c -4.7,0.5 -6.8,2.7 -4,4.2 1.4,0.8 2.9,0.7 5.2,0 1.7,-0.6 3.3,-1 3.5,-0.8 0.7,0.8 0.8,41.5 0.1,42.7 -0.4,0.7 -1.6,1.2 -2.7,1.2 -1.4,0 -1.9,0.5 -1.7,1.7 0.5,2.3 7.6,2.3 9.3,0 0.8,-1.1 1,-8.5 0.8,-24.4 -0.2,-12.5 -0.5,-23.4 -0.8,-24.1 -0.4,-1.2 -2.2,-1.3 -9.7,-0.5 z" />
    <path
       style="fill:#3f8881;fill-opacity:1;stroke:none;stroke-width:0.1"
       id="path16"
       d="m 391,360.7 c -4.1,0.8 -4.8,2.1 -5.5,10.1 -0.4,4.2 -1.4,8.8 -2.2,10.1 -1,1.6 -1.2,2.6 -0.4,3.4 0.7,0.7 0.8,4.3 0.4,10.3 -0.5,8.3 -0.4,9.4 1.1,10 2.7,1 3.4,-0.6 3.8,-7.9 0.1,-3.8 0.6,-7.3 0.9,-7.9 0.4,-0.6 2.7,1.5 5.4,5 6.6,8.5 12.4,10.2 17,5.2 1,-1.1 1.5,-2.6 1.1,-3.6 -0.6,-1.5 -0.8,-1.5 -3.1,0 -4.1,2.7 -6.2,2 -10.5,-3.5 -2.2,-2.8 -4,-5.5 -4,-5.9 0,-0.5 2.5,-2 5.6,-3.4 3.1,-1.4 6.9,-4 8.5,-5.7 8.5,-9.1 -2.6,-19 -18.1,-16.2 z m 11.9,5.3 c 5.1,2.6 5.6,4.4 2.3,8 -2.8,3.1 -14.2,8.4 -15.4,7.2 -0.4,-0.4 -0.3,-3.6 0.1,-7.1 1.2,-9.7 5.1,-12.2 13,-8.1 z" />
  </g>
  <path
     d="m 376.6,443.2 c -1.1,0.6 -3.2,1.1 -4.8,1 -1.6,0 -3.3,0.7 -4.1,1.8 -0.7,1 -3.7,3.2 -6.7,5 -3,1.8 -5.8,3.7 -6.2,4.4 -1.4,2.1 -0.8,4.5 1.3,5.6 1.7,1 2.8,0.7 6,-1.4 3.4,-2.3 3.9,-2.4 3.9,-0.9 0.5,17.1 0.9,18.6 5.5,18.1 1.9,-0.3 2,-1.2 2.3,-12 l 0.3,-11.8 2.9,-1.5 c 4.1,-2.1 6.2,-5.3 4.9,-7.7 -1.1,-2.1 -2.5,-2.2 -5.3,-0.6 z"
     id="path18"
     style="fill:#000000;stroke:none;stroke-width:0.1" />
  <path
     d="m 23.5,444.7 c -10.4,5.4 -13.1,15.6 -6.5,24 2.9,3.7 5.8,5.2 10,5.3 7.3,0 14,-6.9 14,-14.7 0,-4 -1.7,-6.9 -8.5,-14.6 -1.9,-2.1 -5,-2.1 -9,0 z m 6.9,10.4 c 2.9,2.3 3.3,5.4 1,8.7 -3.1,4.5 -9.7,1.3 -9.7,-4.8 0,-5.8 4,-7.6 8.7,-3.9 z"
     id="path20"
     style="fill:#000000;stroke:none;stroke-width:0.1" />
</svg>
