<?xml version="1.0" encoding="UTF-8" standalone="no"?>
<svg
   xmlns:dc="http://purl.org/dc/elements/1.1/"
   xmlns:cc="http://creativecommons.org/ns#"
   xmlns:rdf="http://www.w3.org/1999/02/22-rdf-syntax-ns#"
   xmlns:svg="http://www.w3.org/2000/svg"
   xmlns="http://www.w3.org/2000/svg"
   xmlns:sodipodi="http://sodipodi.sourceforge.net/DTD/sodipodi-0.dtd"
   xmlns:inkscape="http://www.inkscape.org/namespaces/inkscape"
   sodipodi:docname="flask.svg"
   inkscape:version="1.0 (4035a4fb49, 2020-05-01)"
   id="svg8"
   version="1.1"
   viewBox="0 0 300 300"
   height="300mm"
   width="300mm">
  <style
     id="style833"></style>
  <defs
     id="defs2" />
  <sodipodi:namedview
     inkscape:window-maximized="1"
     inkscape:window-y="-9"
     inkscape:window-x="-9"
     inkscape:window-height="1051"
     inkscape:window-width="1920"
     showgrid="false"
     inkscape:document-rotation="0"
     inkscape:current-layer="layer1"
     inkscape:document-units="mm"
     inkscape:cy="857.5312"
     inkscape:cx="644.47637"
     inkscape:zoom="0.35934568"
     inkscape:pageshadow="2"
     inkscape:pageopacity="0.0"
     borderopacity="1.0"
     bordercolor="#666666"
     pagecolor="#ffffff"
     id="base" />
  <metadata
     id="metadata5">
    <rdf:RDF>
      <cc:Work
         rdf:about="">
        <dc:format>image/svg+xml</dc:format>
        <dc:type
           rdf:resource="http://purl.org/dc/dcmitype/StillImage" />
        <dc:title></dc:title>
      </cc:Work>
    </rdf:RDF>
  </metadata>
  <g
     id="layer1"
     inkscape:groupmode="layer"
     inkscape:label="Layer 1">
    <path
       id="path881"
       d="m 115.68986,285.79157 c -34.471877,-2.9307 -48.592612,-9.35661 -55.57018,-25.28822 -5.571644,-12.72148 1.638312,-31.13922 28.802153,-73.57474 18.249677,-28.50977 23.690647,-38.71843 28.307237,-53.11171 4.24639,-13.2391 4.23778,-13.14696 4.80855,-51.508631 0.28539,-19.18041 0.81772,-38.932011 1.18296,-43.892445 0.66372,-9.014229 0.66336,-9.019482 -0.68085,-9.920902 -7.09822,-4.760066 -7.97051,-10.092947 -2.02244,-12.364536 2.82726,-1.079737 12.17857,-0.967224 24.33401,0.292766 2.48021,0.257099 7.89161,0.210736 12.02532,-0.102992 19.69386,-1.494779 26.6997,0.851116 25.28089,8.465246 -0.5785,3.104492 -0.97127,3.555115 -4.01096,4.601829 -2.33003,0.802333 -2.33003,0.802333 -2.36138,40.991464 -0.0387,49.617111 -0.47402,47.390901 13.91368,71.154341 2.90323,4.79509 8.20664,14.34514 11.7854,21.22231 3.57874,6.87716 9.12614,16.61768 12.32754,21.64559 22.66127,35.59021 32.0509,58.00979 30.54349,72.92851 -1.27535,12.62218 -14.27732,21.17494 -39.62187,26.06343 -11.63908,2.24496 -71.79199,3.86542 -89.04355,2.39873 z m 73.65491,-3.6007 c 24.54191,-1.82254 45.12202,-9.6877 50.03072,-19.12041 1.84896,-3.55303 2.25453,-10.64033 1.11478,-19.48047 -0.88407,-6.85704 -16.80821,-38.23556 -28.86339,-56.87531 -3.01942,-4.66864 -8.54773,-14.39389 -12.2851,-21.61168 -3.73739,-7.21778 -8.91736,-16.62369 -11.51104,-20.90201 -13.29272,-21.92649 -14.54891,-26.96135 -15.19985,-60.922131 -0.87097,-45.439114 -0.26297,-56.241304 3.18563,-56.59844 5.09411,-0.527573 6.26385,-3.216331 2.70284,-6.212734 -2.47944,-2.086291 -4.72069,-2.302089 -21.64274,-2.083733 -8.10207,0.104547 -18.80226,-0.05201 -23.77821,-0.347804 -6.76138,-0.401997 -9.60981,-0.352211 -11.27403,0.197032 -5.78497,1.909217 -1.47594,8.673216 5.51686,8.659927 1.85916,-0.0035 2.56857,0.108867 1.57648,0.249634 -2.99055,0.424513 -4.55174,3.415178 -2.76176,5.290474 0.32311,0.33849 0.33565,3.755759 0.0308,8.387673 -0.28295,4.299041 -0.80453,21.035111 -1.15907,37.191231 -0.35456,16.15613 -0.87308,29.819901 -1.15228,30.363961 -0.2792,0.54404 -0.67035,3.96544 -0.86921,7.6031 -0.98601,18.03634 -8.79539,35.94669 -30.650747,70.2956 -27.573508,43.33591 -35.669452,63.47765 -29.864521,74.29929 7.886401,14.70191 19.669311,19.445 55.904628,22.50381 4.89492,0.41321 63.26782,-0.31656 70.94922,-0.88701 z m -85.07898,-6.36 C 66.166366,271.48789 58.345648,258.4098 76.630705,229.61852 c 1.890209,-2.97627 7.564288,-12.06961 12.609088,-20.20741 5.04482,-8.13781 12.401897,-19.77232 16.349087,-25.85446 15.75327,-24.27394 19.10819,-31.51972 21.24596,-45.88582 1.82746,-12.2809 3.15759,-15.77624 5.81191,-15.27246 0.8168,0.155 1.15459,0.9389 1.38173,3.20629 0.57506,5.74054 3.84178,4.05407 4.5339,-2.34064 0.86846,-8.02403 5.253,-8.50829 12.05609,-1.33157 5.6736,5.98522 8.9101,6.63042 13.7933,2.74972 5.80849,-4.61599 8.62974,-0.91318 18.8484,24.73801 13.50965,33.91231 19.01848,44.18086 37.41391,69.73993 14.73566,20.47411 16.87789,32.87627 7.30831,42.31066 -6.48965,6.39799 -22.70794,9.73598 -56.97602,11.72662 -6.28322,0.365 -15.61788,0.94563 -20.74369,1.29027 -5.12579,0.34464 -12.83705,0.86295 -17.13609,1.1518 -7.49844,0.50377 -25.09658,0.62049 -28.8608,0.19141 z m 22.84813,-2.01725 c 83.90225,-4.07331 101.23755,-7.87892 103.47705,-22.71633 1.30915,-8.67363 -1.59368,-14.96572 -16.83049,-36.48128 -14.67259,-20.7188 -19.90199,-30.78813 -32.95868,-63.46275 -6.89333,-17.25063 -10.86119,-25.25319 -12.52118,-25.25319 -0.29669,0 -1.81938,0.81172 -3.38373,1.80381 -5.67438,3.59857 -9.16283,2.82912 -14.97042,-3.30205 -6.74385,-7.11956 -8.9123,-7.04496 -9.68346,0.3331 -0.45045,4.30957 -2.06505,6.57654 -4.68403,6.57654 -1.82897,0 -3.93556,-1.93104 -3.93556,-3.60759 0,-1.61853 -1.09434,-1.52653 -1.78772,0.15034 -0.30768,0.74408 -0.99488,4.94372 -1.52711,9.33255 -1.65171,13.61991 -6.2071,23.90659 -20.16394,45.533 -4.69523,7.27533 -12.195377,19.18041 -16.667037,26.45572 -4.47163,7.27533 -9.98394,16.14226 -12.249564,19.70431 -18.871056,29.66925 -9.365006,43.48471 31.050411,45.12658 2.31487,0.094 4.47943,0.21395 4.81013,0.26645 0.33069,0.0525 5.7421,-0.15414 12.02533,-0.45918 z m 24.30505,-171.91795 c -3.92468,-3.924671 -1.31185,-11.470301 3.97182,-11.470301 2.48364,0 5.48749,2.79349 6.01236,5.59136 1.09889,5.857531 -5.89022,9.972901 -9.98418,5.878941 z m 6.66018,-1.85005 c 1.62505,-1.625061 1.51427,-3.951791 -0.27331,-5.739351 -1.88935,-1.88938 -3.03356,-1.8623 -4.86617,0.11509 -3.74997,4.04629 1.24801,9.515691 5.13948,5.624231 z m -21.1156,-14.131621 c -3.48393,-1.8933 -4.53723,-7.43472 -1.98884,-10.4633 4.20334,-4.99541 12.92229,-3.09663 13.83738,3.01342 0.79934,5.33737 -6.86648,10.15734 -11.84854,7.44988 z m 6.52651,-2.45229 c 6.09664,-3.94306 1.46485,-9.92801 -5.73969,-7.41649 -3.14287,1.09561 -3.27811,5.40659 -0.24445,7.79287 1.69838,1.33596 3.51305,1.22182 5.98414,-0.37638 z m 8.20853,-14.06869 c -4.99433,-2.01793 -5.37277,-11.20403 -0.55576,-13.489857 4.42107,-2.097938 7.63984,0.221933 7.72044,5.564357 0.0895,5.93933 -3.16634,9.541 -7.16468,7.9255 z m 3.74298,-3.33854 c 1.17834,-1.79836 1.31553,-5.89066 0.24089,-7.18552 -1.97059,-2.374424 -6.62231,0.36376 -6.62231,3.89815 0,3.89781 4.472,6.20154 6.38142,3.28737 z"
       style="fill:#9a9a9a;fill-opacity:1;stroke-width:0.601266" />
    <path
       d=""
       id="path855"
       style="fill:#000000;stroke-width:0.347945" />
    <path
       d=""
       id="path853"
       style="fill:#000000;stroke-width:0.347945" />
  </g>
</svg>
