<svg width="820" height="648" viewBox="0 0 820 648" fill="none" xmlns="http://www.w3.org/2000/svg">
<path d="M261 0H820V648H261V0Z" fill="#E3EBE7"/>
<rect opacity="0.4" y="291" width="268" height="249" fill="#E3EBE7"/>
<path d="M96 423.5H193M193 423.5C193 423.5 185.906 406.13 181.36 395M193 423.5L181.36 452" stroke="black" stroke-width="1.7" stroke-linecap="round"/>
<path d="M504.775 639.266C504.775 641.089 503.864 642 502.041 642H301.064C299.469 642 298.672 641.089 298.672 639.266V632.771C298.672 630.949 303.457 629.923 313.027 629.695C322.826 629.467 334.674 625.936 348.574 619.1C362.702 612.036 369.766 601.44 369.766 587.312V214.754C369.766 189.005 346.979 174.764 301.406 172.029C299.583 172.029 298.672 171.118 298.672 169.295V162.801C298.672 160.978 299.469 160.066 301.064 160.066H502.041C503.864 160.066 504.775 160.978 504.775 162.801V169.295C504.775 170.662 499.99 171.346 490.42 171.346C481.077 171.346 470.71 174.08 459.316 179.549C444.049 186.84 436.416 198.803 436.416 215.438V366.17C436.416 386.222 438.353 396.248 442.227 396.248C452.025 396.248 464.443 390.096 479.482 377.791C494.521 365.258 507.852 352.384 519.473 339.168C531.094 325.952 542.715 310.343 554.336 292.342C566.185 274.113 574.388 261.694 578.945 255.086C596.035 230.932 604.58 212.817 604.58 200.74C604.58 188.436 599.339 180.232 588.857 176.131C582.021 173.396 572.223 172.029 559.463 172.029H556.045C554.222 172.029 553.311 171.118 553.311 169.295V162.801C553.311 160.978 554.222 160.066 556.045 160.066H753.604C755.426 160.066 756.338 160.978 756.338 162.801V169.295C756.338 172.029 754.971 173.396 752.236 173.396C723.07 174.308 701.764 178.182 688.32 185.018C674.876 191.626 664.053 198.917 655.85 206.893C647.874 214.868 639.102 226.945 629.531 243.123C600.365 292.57 571.312 332.104 542.373 361.727C530.068 374.259 523.688 382.007 523.232 384.969C524.372 387.247 533.714 396.362 551.26 412.312C595.01 452.417 640.924 506.762 689.004 575.35C707.005 601.554 730.589 617.732 759.756 623.885C779.124 628.442 791.315 630.721 796.328 630.721C801.569 630.721 804.189 631.632 804.189 633.455V639.266C804.189 641.089 803.278 642 801.455 642H577.92C576.097 642 575.186 641.089 575.186 639.266V632.771C575.186 630.949 579.059 629.695 586.807 629.012C612.555 626.733 625.43 619.214 625.43 606.453C623.835 593.693 600.934 562.133 556.729 511.775C548.753 502.889 540.436 492.977 531.777 482.039C497.142 439.428 468.659 418.123 446.328 418.123H439.834C437.555 418.123 436.416 419.718 436.416 422.908V582.869C436.416 614.77 458.291 630.721 502.041 630.721C503.864 630.721 504.775 631.632 504.775 633.455V639.266Z" fill="#444A4A"/>
</svg>
