<?xml version="1.0" encoding="UTF-8" standalone="no"?>
<svg
   xmlns:dc="http://purl.org/dc/elements/1.1/"
   xmlns:cc="http://creativecommons.org/ns#"
   xmlns:rdf="http://www.w3.org/1999/02/22-rdf-syntax-ns#"
   xmlns:svg="http://www.w3.org/2000/svg"
   xmlns="http://www.w3.org/2000/svg"
   xmlns:sodipodi="http://sodipodi.sourceforge.net/DTD/sodipodi-0.dtd"
   xmlns:inkscape="http://www.inkscape.org/namespaces/inkscape"
   sodipodi:docname="titration.svg"
   inkscape:version="1.0 (4035a4fb49, 2020-05-01)"
   id="svg840"
   version="1.1"
   viewBox="0 0 1014.73 1671.32"
   height="14in"
   width="8.5in">
  <style
     id="style1403"></style>
  <defs
     id="defs834" />
  <sodipodi:namedview
     inkscape:window-maximized="1"
     inkscape:window-y="-9"
     inkscape:window-x="-9"
     inkscape:window-height="1051"
     inkscape:window-width="1920"
     units="mm"
     scale-x="1e-05"
     showgrid="false"
     inkscape:document-rotation="0"
     inkscape:current-layer="g843"
     inkscape:document-units="mm"
     inkscape:cy="535.43553"
     inkscape:cx="-73.03447"
     inkscape:zoom="0.42014062"
     inkscape:pageshadow="2"
     inkscape:pageopacity="0.0"
     borderopacity="1.0"
     bordercolor="#666666"
     pagecolor="#ffffff"
     id="base" />
  <metadata
     id="metadata837">
    <rdf:RDF>
      <cc:Work
         rdf:about="">
        <dc:format>image/svg+xml</dc:format>
        <dc:type
           rdf:resource="http://purl.org/dc/dcmitype/StillImage" />
        <dc:title />
      </cc:Work>
    </rdf:RDF>
  </metadata>
  <g
     id="layer1"
     inkscape:groupmode="layer"
     inkscape:label="Layer 1">
    <g
       transform="matrix(1.753316,0,0,1.753316,-856.26065,349.92233)"
       id="g1453">
      <path
         style="fill:#000000;fill-opacity:1;stroke-width:1.0083"
         d="m 825.34149,663.87408 c -57.8078,-4.91461 -81.48764,-15.69059 -93.18871,-42.40718 -9.3434,-21.33334 2.74737,-52.21906 48.29991,-123.38151 30.60391,-47.80959 39.72816,-64.92905 47.46999,-89.06592 7.12099,-22.20138 7.10656,-22.04686 8.06371,-86.37765 0.47858,-32.16467 1.37128,-65.28721 1.98378,-73.60563 1.11301,-15.11646 1.11241,-15.12528 -1.14176,-16.6369 -11.90339,-7.98242 -13.36619,-16.92542 -3.39155,-20.73477 4.74119,-1.81068 20.42292,-1.62199 40.80705,0.49096 4.15919,0.43113 13.23387,0.35339 20.16591,-0.17273 33.02571,-2.50668 44.77414,1.4273 42.39491,14.19585 -0.97013,5.20608 -1.62878,5.96176 -6.7262,7.71706 -3.90736,1.34546 -3.90736,1.34546 -3.95993,68.74082 -0.0648,83.20564 -0.79491,79.47239 23.33209,119.3226 4.86823,8.04115 13.76171,24.05616 19.76318,35.58885 6.00127,11.5327 15.30391,27.8671 20.67258,36.29868 38.00145,59.68317 53.74745,97.27979 51.21955,122.2978 -2.1387,21.16682 -23.9424,35.50941 -66.44356,43.70717 -19.51808,3.76472 -120.39088,6.48216 -149.32095,4.02259 z m 123.51543,-6.03819 c 41.15503,-3.05629 75.66648,-16.24583 83.89828,-32.06406 3.1007,-5.95827 3.7808,-17.84336 1.8694,-32.66787 -1.4825,-11.49894 -28.1867,-64.1193 -48.40222,-95.37732 -5.06337,-7.82909 -14.33394,-24.1379 -20.60128,-36.2418 -6.26747,-12.1039 -14.95377,-27.87718 -19.30303,-35.05172 -22.29089,-36.76973 -24.39746,-45.21297 -25.48906,-102.16366 -1.46057,-76.19932 -0.44099,-94.31412 5.34216,-94.91302 8.54259,-0.8847 10.50419,-5.39364 4.53254,-10.41847 -4.1579,-3.49861 -7.91638,-3.8605 -36.29389,-3.49432 -13.5868,0.17531 -31.53054,-0.0872 -39.87498,-0.58327 -11.33853,-0.67412 -16.11522,-0.59063 -18.90604,0.33043 -9.70113,3.20167 -2.47509,14.54459 9.25152,14.5223 3.11774,-0.007 4.30739,0.18257 2.64369,0.41863 -5.01501,0.71189 -7.63307,5.72709 -4.63134,8.87188 0.54184,0.56764 0.56287,6.29824 0.0516,14.06575 -0.4745,7.2093 -1.34916,35.27493 -1.9437,62.368 -0.59459,27.09311 -1.46412,50.00662 -1.93233,50.91899 -0.4682,0.91233 -1.12414,6.64986 -1.45763,12.75005 -1.65349,30.24613 -14.74947,60.28098 -51.39991,117.88254 -46.23956,72.67236 -59.8161,106.44914 -50.08149,124.59655 13.22514,24.65443 32.98457,32.60838 93.74957,37.73788 8.20855,0.69293 106.09726,-0.53089 118.97804,-1.48749 z M 806.18383,647.17046 c -63.89104,-7.28298 -77.00604,-29.21435 -46.3428,-77.49602 3.1698,-4.99107 12.68496,-20.24018 21.14488,-33.88691 8.45994,-13.64674 20.79743,-33.15729 27.4167,-43.35675 26.41751,-40.70631 32.04355,-52.85715 35.6285,-76.94845 3.06457,-20.59451 5.29513,-26.45604 9.74632,-25.61122 1.36973,0.25993 1.93619,1.57449 2.31709,5.3768 0.96435,9.62662 6.4425,6.79849 7.60314,-3.92515 1.45638,-13.45593 8.80905,-14.26801 20.21753,-2.23297 9.51437,10.03694 14.94183,11.11891 23.13074,4.61114 9.74057,-7.7408 14.47168,-1.53135 31.60791,41.48452 22.65406,56.86942 31.89223,74.08931 62.73986,116.95071 24.7111,34.33416 28.3035,55.13201 12.2557,70.95307 -10.8828,10.72913 -38.07966,16.32679 -95.54464,19.665 -10.53667,0.61209 -26.19047,1.58578 -34.78622,2.16373 -8.59572,0.57794 -21.52715,1.44713 -28.73645,1.93151 -12.57455,0.84481 -42.08583,1.04053 -48.39826,0.32099 z m 38.31529,-3.38284 c 140.69926,-6.83075 169.76918,-13.21259 173.52478,-38.09425 2.1954,-14.54528 -2.6727,-25.09684 -28.22355,-61.17746 -24.60515,-34.74448 -33.37452,-51.6303 -55.26909,-106.42415 -11.55981,-28.92854 -18.21372,-42.34846 -20.99745,-42.34846 -0.49754,0 -3.05102,1.36121 -5.67436,3.02491 -9.51568,6.03463 -15.36565,4.74431 -25.10472,-5.5374 -11.30913,-11.93917 -14.94552,-11.81408 -16.23872,0.5586 -0.75539,7.22696 -3.46299,11.02855 -7.85491,11.02855 -3.0671,0 -6.59976,-3.23826 -6.59976,-6.04975 0,-2.71421 -1.83515,-2.55992 -2.99793,0.2521 -0.51595,1.2478 -1.66836,8.29041 -2.56089,15.65027 -2.76984,22.83997 -10.40902,40.09028 -33.81401,76.35679 -7.87369,12.20039 -20.45111,32.16467 -27.94988,44.36504 -7.49872,12.20039 -16.74262,27.06983 -20.54196,33.04323 -31.64593,49.75398 -15.70473,72.92189 52.07014,75.67523 3.88194,0.15764 7.51181,0.35878 8.06637,0.44683 0.55456,0.0881 9.62925,-0.25849 20.16594,-0.77002 z M 885.25758,355.489 c -6.5815,-6.58149 -2.19991,-19.23516 6.66056,-19.23516 4.16496,0 9.20228,4.68455 10.08246,9.37645 1.84279,9.82281 -9.87762,16.72411 -16.74302,9.85871 z m 11.16882,-3.10244 c 2.72514,-2.72516 2.53936,-6.62697 -0.45832,-9.62463 -3.16836,-3.1684 -5.08714,-3.123 -8.16035,0.19299 -6.28853,6.78546 2.09285,15.95739 8.61867,9.43159 z m -35.4099,-23.69808 c -5.84239,-3.17499 -7.60873,-12.4677 -3.33519,-17.5465 7.04881,-8.37707 21.6701,-5.1929 23.20466,5.05338 1.34046,8.95053 -11.51478,17.0334 -19.86947,12.49312 z m 10.94466,-4.11239 c 10.22379,-6.61233 2.4565,-16.64881 -9.6252,-12.43712 -5.27045,1.83729 -5.49724,9.0666 -0.40993,13.06829 2.84811,2.24035 5.89123,2.04893 10.03513,-0.63117 z m 13.76534,-23.59255 c -8.37527,-3.38398 -9.0099,-18.78866 -0.93199,-22.62189 7.41394,-3.51814 12.81166,0.37219 12.94684,9.33119 0.15007,9.95997 -5.30983,15.99981 -12.01485,13.2907 z m 6.2768,-5.59858 c 1.97602,-3.01577 2.20609,-9.87837 0.40396,-12.0498 -3.30459,-3.9818 -11.10531,0.61001 -11.10531,6.53703 0,6.53645 7.49934,10.3997 10.70135,5.51277 z"
         id="path881" />
      <g
         id="g843"
         transform="matrix(0.35277777,0,0,0.35277777,494.78593,-165.40518)">
        <g
           id="g6"
           stroke="none"
           fill="#000000"
           transform="matrix(0.1124727,0,0,-0.1124727,-75.286753,1317.6094)">
          <path
             id="path2"
             d="m 8802,9760 c -76,-29 -115,-55 -185,-122 -23,-22 -71,-59 -107,-83 -36,-23 -105,-77 -153,-119 -49,-42 -92,-76 -95,-76 -4,0 -19,-11 -34,-25 -14,-13 -102,-66 -195,-116 -92,-51 -220,-125 -283,-164 -63,-40 -151,-93 -195,-119 -44,-25 -132,-82 -195,-125 -177,-122 -403,-274 -649,-435 -196,-130 -312,-211 -560,-394 -150,-109 -353,-246 -611,-411 -80,-51 -165,-107 -190,-124 -136,-94 -261,-176 -305,-201 -159,-92 -682,-443 -877,-589 -84,-63 -187,-136 -228,-163 -161,-107 -227,-154 -378,-274 -31,-25 -69,-53 -83,-62 -14,-9 -75,-63 -135,-120 -60,-57 -143,-130 -184,-163 -41,-32 -106,-88 -144,-124 -37,-36 -73,-70 -80,-76 -6,-5 -43,-37 -81,-71 -39,-33 -83,-71 -99,-85 -37,-30 -39,-32 -165,-170 -103,-112 -193,-206 -456,-473 -116,-118 -225,-250 -225,-273 0,-4 -10,-19 -23,-33 -30,-33 -82,-106 -154,-215 -33,-49 -76,-108 -96,-130 -20,-22 -37,-45 -37,-52 0,-6 -4,-13 -9,-15 -5,-1 -45,-52 -89,-111 -75,-100 -160,-258 -295,-547 -71,-150 -107,-303 -101,-420 15,-278 110,-471 319,-647 105,-89 127,-102 217,-129 100,-30 402,-64 588,-67 185,-2 568,124 835,276 22,13 67,38 100,56 33,19 112,68 175,109 63,41 131,85 150,97 140,86 326,208 436,285 58,41 169,118 245,171 77,53 147,103 157,111 22,19 207,128 217,128 4,0 72,42 151,92 80,51 179,113 222,138 152,89 503,331 567,391 11,11 45,37 75,59 30,22 66,49 80,60 14,10 54,42 89,70 36,28 97,72 135,97 202,132 296,196 296,203 0,5 26,25 59,44 32,20 64,43 72,52 7,9 37,31 66,50 30,19 104,73 166,120 216,165 373,281 479,355 59,41 131,91 160,112 89,64 113,80 188,130 39,27 126,90 193,141 67,51 194,141 282,200 88,60 171,118 185,131 14,13 39,31 56,41 17,11 48,33 69,49 21,17 64,50 96,75 99,78 190,147 304,231 155,114 163,120 215,160 25,20 55,41 66,47 20,10 152,116 254,202 44,37 269,221 339,277 19,16 80,69 135,118 55,50 152,134 215,189 64,54 171,151 237,215 67,64 156,147 198,184 107,96 109,102 102,262 -3,72 -8,140 -12,151 -7,23 -23,63 -34,84 -4,9 -11,31 -15,50 -4,19 -11,40 -15,45 -4,6 -13,28 -20,50 -27,88 -166,359 -207,403 -7,7 -13,19 -13,26 0,7 -9,24 -19,37 -10,14 -31,47 -46,74 -16,27 -69,104 -119,170 -50,66 -104,140 -121,165 -44,65 -277,302 -370,375 -44,34 -109,78 -145,97 -36,19 -87,49 -114,66 -66,42 -138,43 -244,2 z m 348,-384 c 89,-77 243,-232 278,-281 20,-27 39,-52 42,-55 3,-3 34,-45 70,-94 36,-48 77,-102 91,-120 14,-17 38,-53 53,-81 16,-27 39,-64 52,-82 13,-17 45,-71 70,-120 26,-48 55,-99 64,-113 9,-14 25,-47 34,-75 10,-27 31,-77 46,-110 51,-112 85,-240 71,-264 -5,-8 -36,-15 -74,-18 -58,-5 -71,-3 -109,20 -42,25 -134,113 -199,192 -18,22 -55,63 -81,91 -96,105 -220,321 -317,557 -22,54 -47,107 -56,120 -8,12 -15,31 -15,42 0,11 -12,43 -25,70 -53,105 -111,355 -89,378 9,8 42,-12 94,-57 z m -375,-28 c 13,-111 85,-323 165,-493 16,-33 32,-72 35,-88 4,-15 11,-30 16,-33 5,-3 9,-12 9,-21 0,-24 156,-339 199,-403 20,-30 40,-62 43,-70 8,-21 128,-173 145,-183 7,-4 23,-23 36,-41 38,-56 149,-176 163,-176 7,0 17,-6 21,-13 12,-21 102,-86 139,-102 19,-8 34,-18 34,-23 0,-19 -153,-162 -309,-288 -13,-10 -31,-26 -40,-34 -80,-74 -75,-71 -107,-55 -40,19 -72,20 -179,6 -56,-7 -190,-11 -355,-9 -175,2 -324,-2 -440,-12 -251,-22 -1039,-18 -1195,6 -60,9 -117,16 -125,16 -8,0 -51,4 -95,9 -44,5 -179,11 -300,14 -121,2 -245,9 -275,15 -65,12 -369,39 -455,40 -33,0 -67,5 -75,10 -16,10 -4,22 66,65 38,23 173,116 254,174 30,22 78,56 105,75 28,19 88,62 135,96 47,33 101,71 120,85 19,14 80,56 135,95 103,73 176,122 325,218 104,67 427,283 533,357 42,30 132,87 200,126 67,39 163,97 212,129 50,31 135,81 190,110 94,50 215,121 239,141 6,5 30,22 53,37 23,15 56,41 75,57 65,60 271,212 290,214 3,1 9,-23 13,-51 z M 5534,7191 c 34,-11 148,-31 193,-35 71,-7 195,-16 263,-20 210,-13 268,-19 295,-27 17,-5 104,-11 195,-14 203,-6 468,-23 575,-36 177,-23 296,-29 652,-32 389,-3 403,-5 403,-47 0,-10 44,-65 98,-123 54,-57 121,-137 148,-177 27,-39 55,-80 62,-90 15,-21 45,4 -348,-298 -218,-166 -471,-342 -493,-342 -8,0 -36,28 -63,63 -48,62 -68,89 -172,242 -67,99 -95,125 -132,125 -44,0 -62,-33 -49,-88 9,-42 106,-200 154,-252 13,-14 48,-62 79,-108 l 56,-84 -68,-52 c -37,-28 -89,-67 -117,-86 -27,-18 -52,-37 -55,-40 -3,-4 -32,-24 -65,-45 -33,-20 -78,-52 -100,-70 -22,-17 -98,-71 -170,-120 -71,-48 -179,-124 -239,-168 l -109,-81 -31,35 c -90,102 -115,137 -206,289 -81,135 -98,157 -137,181 -30,19 -34,19 -49,5 -8,-9 -20,-16 -26,-16 -17,0 -2,-92 20,-131 96,-168 149,-250 235,-364 l 69,-90 -34,-28 c -18,-16 -55,-44 -83,-62 -27,-19 -59,-42 -70,-52 -11,-10 -55,-43 -97,-72 -43,-29 -78,-57 -78,-61 0,-4 -12,-12 -26,-19 -15,-6 -52,-32 -84,-56 -32,-25 -62,-45 -66,-45 -3,0 -29,-16 -55,-35 -27,-19 -52,-35 -55,-35 -4,0 -52,-34 -89,-63 -37,-29 -151,-107 -157,-107 -4,0 -14,13 -22,29 -16,29 -34,41 -65,41 -20,0 -50,31 -160,163 -143,172 -166,189 -215,152 -11,-8 -16,-15 -11,-15 5,0 4,-5 -3,-12 -28,-28 -12,-63 79,-173 150,-182 180,-216 223,-247 23,-16 41,-34 41,-40 0,-17 -147,-128 -350,-265 -104,-70 -199,-133 -210,-139 -64,-35 -176,-106 -224,-141 -33,-24 -220,-133 -299,-175 l -64,-33 -31,36 c -18,19 -52,49 -77,66 -81,56 -167,142 -211,210 -65,104 -99,123 -146,84 -37,-31 -30,-72 28,-167 53,-86 108,-143 221,-229 79,-60 97,-84 76,-99 -8,-6 -28,-21 -44,-34 -16,-12 -57,-41 -91,-65 -34,-23 -128,-89 -210,-147 -81,-58 -155,-109 -165,-115 -9,-5 -43,-25 -75,-44 -32,-19 -84,-52 -115,-73 -31,-21 -60,-38 -64,-38 -3,0 -34,-20 -68,-44 -82,-58 -257,-166 -271,-166 -10,0 -82,98 -156,213 -17,26 -53,71 -79,98 -39,41 -53,50 -76,47 -20,-2 -33,-12 -42,-31 -12,-25 -12,-35 4,-75 17,-45 102,-179 171,-270 18,-24 33,-48 33,-53 0,-17 -236,-120 -360,-158 -177,-53 -437,-57 -674,-10 -107,21 -140,41 -269,159 -97,88 -157,244 -157,407 0,56 34,191 60,235 6,10 10,23 10,30 0,7 10,33 23,58 24,46 78,153 128,251 16,31 29,63 29,70 0,8 29,52 65,99 36,47 84,112 107,145 23,33 63,86 90,118 26,32 55,72 64,90 9,18 23,39 31,47 13,14 58,77 182,255 27,39 119,142 205,230 86,88 228,234 314,324 233,244 298,308 402,396 51,44 110,96 131,117 20,20 58,53 84,73 72,54 164,135 204,179 69,74 392,324 559,431 98,64 147,98 294,211 137,105 434,306 691,469 83,53 202,129 332,213 83,54 98,58 149,43 z m 3492,-144 c 7,-7 -85,-94 -117,-112 -10,-6 -36,-27 -57,-46 -60,-58 -293,-230 -302,-224 -5,3 -39,48 -75,100 -36,52 -99,130 -140,172 -41,43 -75,80 -75,84 0,3 35,12 78,18 42,7 84,14 92,16 29,5 590,-2 596,-8 z" />
          <path
             id="path4"
             d="m 10312,7204 c -30,-21 -28,-56 6,-106 15,-22 30,-46 34,-52 19,-28 48,-107 48,-128 0,-66 -43,-174 -109,-278 -61,-94 -111,-196 -163,-325 -89,-225 -126,-387 -135,-595 -5,-135 -4,-152 20,-241 44,-164 116,-260 237,-317 119,-57 262,-52 390,13 57,29 182,159 209,217 101,222 64,490 -128,926 -23,51 -41,101 -41,111 0,9 -4,21 -8,27 -14,15 -50,124 -68,204 -9,41 -25,104 -35,139 -10,35 -24,91 -30,125 -26,139 -66,216 -143,274 -35,26 -54,28 -84,6 z m 163,-631 c 3,-21 20,-72 37,-113 16,-41 36,-93 43,-115 7,-22 28,-74 45,-115 36,-85 124,-331 134,-372 6,-29 11,-65 21,-171 16,-167 -66,-327 -201,-393 -104,-51 -235,-32 -310,45 -44,45 -82,119 -94,182 -32,165 5,457 82,659 79,206 206,448 228,435 4,-3 11,-22 15,-42 z" />
        </g>
        <path
           transform="scale(0.75)"
           id="path843"
           d="m 196.76171,1378.9024 c -18.77206,-1.9405 -32.84463,-4.9592 -41.04769,-8.805 -8.37119,-3.9248 -24.6712,-17.2281 -31.18379,-25.451 -5.86064,-7.3996 -12.78003,-22.6673 -14.98018,-33.0539 -5.35923,-25.3 -0.2491,-45.6488 22.85757,-91.0197 6.82171,-13.3947 12.40311,-25.016 12.40311,-25.825 0,-1.4384 17.2689,-25.5629 36.6197,-51.1574 5.334,-7.0551 18.2616,-24.9493 28.72799,-39.765 10.46639,-14.8156 22.05405,-30.4009 25.75035,-34.634 3.69631,-4.233 29.76437,-31.5011 57.92904,-60.5956 48.27196,-49.86576 74.19206,-74.52345 105.9008,-100.74305 7.48823,-6.19194 18.56447,-16.01573 24.61387,-21.83063 18.72854,-18.00257 53.46325,-44.94481 86.03921,-66.73695 9.52435,-6.37145 27.12996,-18.91095 39.12358,-27.86558 11.99362,-8.95462 31.90816,-23.22466 44.25454,-31.71119 32.60044,-22.40858 120.47509,-78.77491 125.57451,-80.54854 3.43884,-1.19606 5.73363,-1.14852 10.90329,0.22591 11.44953,3.04401 31.30886,5.41817 62.9883,7.53017 16.93217,1.12884 37.13533,2.86811 44.89591,3.86506 7.76058,0.99694 28.25235,2.42864 45.53728,3.18155 36.99627,1.61151 60.27297,3.29412 81.454,5.88809 9.42799,1.15462 39.501,2.42214 77.6058,3.27094 34.2171,0.7622 64.3164,1.91134 66.8873,2.55364 3.3241,0.83045 4.8932,2.03918 5.4315,4.18412 0.4164,1.65896 5.2397,8.09037 10.7185,14.29202 15.726,17.80097 24.6363,28.81031 30.8075,38.06487 l 5.7206,8.57892 -4.837,4.24849 c -22.7164,19.95241 -116.567,88.26797 -121.2609,88.26797 -2.4418,0 -10.5335,-10.10127 -27.566,-34.41208 -16.64047,-23.75119 -22.32865,-29.72493 -28.30411,-29.72493 -4.41925,0 -8.14812,4.35704 -8.14812,9.52078 0,5.69029 8.14376,21.49512 17.89727,34.73376 4.15823,5.64406 11.64226,16.13127 16.63116,23.30493 l 9.0707,13.04299 -16.57291,12.28194 c -9.11507,6.75507 -22.24396,16.2314 -29.17529,21.05853 -43.00593,29.9502 -73.07764,51.21846 -87.39506,61.81027 l -4.24192,3.13811 -4.43024,-5.10548 c -9.675,-11.14966 -19.65551,-25.12879 -29.2881,-41.02222 -11.86964,-19.58446 -17.48303,-26.86923 -22.83855,-29.63867 -3.60897,-1.86628 -4.23557,-1.84257 -8.23561,0.3116 -4.78843,2.57873 -5.2168,4.68093 -2.95429,14.49789 1.99997,8.67782 21.36809,40.29208 39.26376,64.08962 4.45786,5.92801 8.09841,11.12311 8.09008,11.54466 -0.008,0.42153 -10.2013,8.27049 -22.65109,17.44209 -12.44979,9.1716 -24.70919,18.4385 -27.24312,20.5931 -2.53391,2.1547 -14.13147,10.1525 -25.77234,17.773 -11.64087,7.6205 -23.47415,15.5161 -26.29617,17.5459 -12.53501,9.0157 -27.53788,19.193 -29.27752,19.8606 -1.21766,0.4673 -2.74018,-0.6949 -4.24267,-3.2384 -1.62266,-2.7469 -3.92019,-4.3917 -7.46961,-5.3475 -5.74519,-1.547 -8.11014,-3.8325 -26.25441,-25.3722 -6.89254,-8.1823 -14.93139,-17.0416 -17.86413,-19.6873 -8.15609,-7.3577 -14.786,-6.2779 -18.12004,2.9511 -1.41166,3.9076 -1.34302,5.1392 0.48326,8.6708 3.65542,7.0688 27.75535,36.2751 39.6815,48.0894 11.30988,11.2037 11.37696,11.3079 9.00889,13.9891 -5.9405,6.726 -55.20257,41.2708 -83.83985,58.7923 -9.52434,5.8274 -22.22347,13.8669 -28.22028,17.8656 -10.12749,6.753 -41.23444,25.0805 -51.14838,30.1354 l -4.32838,2.2069 -5.93355,-5.6904 c -3.26345,-3.1297 -9.39695,-8.3266 -13.63,-11.5487 -10.1391,-7.7177 -23.14807,-21.321 -30.60382,-32.0018 -9.21246,-13.1975 -14.04508,-15.4151 -20.51848,-9.4158 -4.82864,4.475 -4.50075,10.4076 1.17186,21.2026 6.71803,12.7845 16.33108,23.6136 32.36434,36.4586 7.84091,6.2817 14.61308,12.3426 15.04929,13.4687 0.52548,1.3566 -0.58007,3.1297 -3.27613,5.2544 -11.32325,8.9235 -77.84895,54.5453 -92.58936,63.4956 -9.29526,5.6441 -24.43688,15.205 -33.64802,21.2466 -9.21115,6.0415 -20.93148,13.4664 -26.04518,16.4998 l -9.29763,5.5152 -2.55965,-3.0311 c -1.4078,-1.667 -7.72712,-10.5453 -14.04291,-19.7295 -13.59419,-19.7682 -24.3586,-31.4043 -29.0518,-31.4043 -4.09064,0 -9.50794,5.359 -9.50794,9.4056 0,6.4288 7.50479,20.0129 23.44189,42.4313 9.02787,12.6993 9.03481,12.7157 6.32705,14.9083 -7.46315,6.0432 -48.83139,21.6973 -65.89032,24.9333 -13.12508,2.4898 -44.1125,3.4754 -59.44276,1.8908 z"
           style="fill:#b19fb0;stroke:#e6e6e6;stroke-width:7.43989;stroke-miterlimit:10;stroke-opacity:0.177165;fill-opacity:1" />
        <path
           transform="scale(0.75)"
           id="path845"
           d="m 1171.9648,742.93864 c -5.4662,-7.52036 -14.8474,-19.1264 -20.8472,-25.79121 -5.9997,-6.6648 -10.4738,-12.50585 -9.9425,-12.9801 0.5314,-0.47425 6.244,-1.80372 12.6947,-2.95437 12.2711,-2.18889 56.4971,-2.69544 84.9389,-0.97286 l 13.2894,0.80487 -7.6552,7.05508 c -13.6259,12.5577 -49.617,40.87846 -58.9752,46.40645 l -3.5643,2.10552 z"
           style="fill:#b19fb0;stroke:#e6e6e6;stroke-width:7.43989;stroke-miterlimit:10;stroke-opacity:0.177165;fill-opacity:1" />
        <path
           transform="scale(0.75)"
           id="path847"
           d="m 1451.9147,964.79344 c -6.4348,-2.07972 -11.1371,-5.1977 -16.322,-10.82264 -10.8534,-11.77456 -14.4662,-23.53887 -14.4319,-46.99484 0.04,-27.18071 5.4883,-55.91887 15.3557,-80.99214 7.0379,-17.88362 23.4026,-50.74789 28.0255,-56.28213 l 3.7252,-4.45947 0.9744,4.45947 c 1.1031,5.04858 10.626,31.28468 18.6344,51.33901 9.7051,24.30307 19.1951,51.74525 21.0501,60.87065 2.9176,14.35241 3.774,31.21417 2.0227,39.82495 -3.511,17.26219 -15.3425,33.81443 -28.8814,40.40493 -4.9059,2.38812 -8.8261,3.18898 -16.6756,3.40672 -5.6441,0.15654 -11.7087,-0.18299 -13.4771,-0.75451 z"
           style="fill:#b19fb0;stroke:#e6e6e6;stroke-width:7.43989;stroke-miterlimit:10;stroke-opacity:0.177165;fill-opacity:1" />
      </g>
      <path
         style="fill:#ec7192;fill-opacity:0.5;stroke:#e6e6e6;stroke-width:2.0237;stroke-opacity:0.177165"
         d="m 3080.9774,2433.6817 c -61.4887,-3.7832 -95.7125,-8.3176 -131.3202,-17.3991 -58.3674,-14.8861 -92.706,-36.8962 -109.4569,-70.159 -7.0033,-13.9068 -9.6688,-26.259 -9.6956,-44.9313 -0.026,-18.4977 2.6269,-32.6897 10.6077,-56.7346 11.1295,-33.5314 21.5117,-53.0782 66.7966,-125.7592 16.3879,-26.302 46.0995,-74.1237 66.0259,-106.2706 19.9264,-32.1469 57.5129,-91.9241 83.5256,-132.8383 73.0567,-114.9078 95.4831,-154.5688 114.5544,-202.5894 15.0009,-37.7713 21.849,-65.6615 29.6917,-120.9254 5.9516,-41.9385 7.1045,-47.3619 11.1239,-52.3256 3.564,-4.4014 5.657,-3.0063 6.8699,4.579 2.0142,12.596 17.7407,24.1225 30.0702,22.0394 8.4228,-1.423 17.0332,-9.4907 20.7344,-19.4274 1.6086,-4.3187 4.0947,-15.3671 5.5246,-24.5519 6.6679,-42.8299 15.6201,-43.1724 57.2597,-2.191 28.032,27.5888 37.6758,34.0341 55.406,37.0296 8.5798,1.4495 22.7734,-2.3564 36.1186,-9.6849 5.8586,-3.2172 14.704,-8.0911 19.6566,-10.8308 l 9.0047,-4.9813 6.4813,7.1588 c 12.2211,13.4987 33.7268,60.348 79.1886,172.5095 80.3035,198.1217 107.372,249.3809 206.035,390.165 88.9982,126.9931 107.8485,166.6435 102.4686,215.5353 -2.6398,23.99 -9.5356,40.6777 -22.8118,55.204 -43.5739,47.6767 -163.0903,69.4292 -485.0146,88.2745 -48.4784,2.8379 -147.0853,7.9035 -176.8647,9.0858 -12.1073,0.4806 -28.1618,1.1334 -35.6766,1.4505 -7.5149,0.3172 -28.3515,-0.3271 -46.3036,-1.4316 z"
         id="path1442"
         transform="scale(0.26458333)" />
    </g>
  </g>
</svg>
